<svg width="666" height="921" viewBox="0 0 666 921" fill="none" xmlns="http://www.w3.org/2000/svg">
<path fill-rule="evenodd" clip-rule="evenodd" d="M314.838 -18.5872C302.645 -11.909 277.989 1.56415 260.047 11.3527L227.426 29.1511L227.421 37.1661L227.417 45.1812L198.34 61.5504L169.263 77.9196L128.824 69.4693L88.3843 61.019L65.1099 73.0942C16.8168 98.1462 6.66305 103.695 6.02836 105.38C5.45955 106.894 13.6091 191.28 17.3729 222.849L18.7284 234.212L23.3131 235.453C25.8354 236.137 37.3927 239.12 48.9945 242.083L70.0899 247.474L70.6118 252.055C71.2085 257.294 73.542 255.494 32.333 281.582C8.15918 296.887 0.821656 301.765 0.0438168 303.056C-0.376774 303.755 2.13917 327.675 11.567 412.59C12.5222 421.2 12.3575 421.062 26.6322 425.251C32.2063 426.887 37.166 428.571 37.655 428.993C38.1427 429.415 40.01 444.084 41.8039 461.591C43.5965 479.097 45.2864 495.034 45.5575 497.005C45.9819 500.086 45.0027 501.414 38.5557 506.502C31.3765 512.168 31.089 512.619 31.7236 517.21C32.0872 519.848 34.626 542.913 37.3623 568.47C40.1 594.026 42.659 615.467 43.0504 616.116C43.4419 616.765 47.6035 618.584 52.2996 620.157C56.9945 621.731 61.2676 623.417 61.7946 623.904C62.3216 624.392 59.0443 627.939 54.5103 631.784C49.9775 635.63 46.2682 639.255 46.2682 639.84C46.2682 640.424 48.5764 662.384 51.3977 688.641C54.5331 717.828 57.1174 736.925 58.0486 737.781C58.8847 738.551 80.8428 747.265 106.842 757.145L154.115 775.108L161.316 767.858L168.518 760.61L185.62 767.118C195.027 770.699 206.428 774.995 210.957 776.667C215.486 778.339 224.417 781.646 230.805 784.016L242.418 788.323L243.473 799.92L244.528 811.516L296.469 831.398C325.036 842.333 349.264 851.31 350.309 851.347C351.355 851.384 354.899 848.334 358.187 844.569L364.164 837.721L364.204 847.831C364.232 854.723 364.749 858.12 365.828 858.5C369.745 859.884 425.575 881.046 448.34 889.776C462.193 895.088 474.201 899.436 475.025 899.436C475.848 899.436 479.28 895.693 482.65 891.117L488.776 882.799L493.336 884.489C495.844 885.418 509.868 890.68 524.5 896.181C573.668 914.667 588.78 920.224 589.888 920.224C591.21 920.224 641.804 842.722 642.651 839.397C642.978 838.118 643.415 837.072 643.624 837.072C643.832 837.072 658.952 842.334 677.224 848.765C695.495 855.196 711.366 860.458 712.495 860.458C713.814 860.458 722.418 847.375 736.633 823.755L758.722 787.051L763.993 737.03C766.893 709.518 768.803 686.396 768.238 685.645C767.673 684.895 764.362 683.532 760.88 682.617L754.55 680.953L759.875 672.691C762.804 668.148 766.125 664.176 767.256 663.865C768.388 663.555 779.242 647.881 791.376 629.033C825.233 576.438 822.019 583.565 825.287 553.861C826.818 539.939 828.227 528.39 828.417 528.194C828.608 527.999 830.573 528.487 832.785 529.278C834.997 530.068 837.513 530.432 838.375 530.083C839.237 529.736 848.395 516.604 858.725 500.898L877.507 472.345L884.31 419.22C889.885 375.68 890.81 365.856 889.435 364.768C888.512 364.038 875.664 360.547 860.882 357.009L834.007 350.577L834.675 345.993C835.041 343.473 836.308 331.762 837.487 319.972C839.323 301.643 840.088 297.803 842.765 293.494C845.622 288.896 846.433 283.776 852.026 235.028C855.398 205.643 857.763 181.22 857.284 180.754C856.804 180.287 855.271 179.692 853.878 179.431C852.04 179.085 851.428 178.069 851.649 175.731C851.817 173.959 854.239 151.829 857.034 126.556C862.888 73.5866 862.891 73.519 859.895 72.6381C858.677 72.2808 833.593 67.7231 804.154 62.5118L750.63 53.0351V49.5726C750.63 47.6679 749.918 45.8308 749.047 45.4917C748.177 45.1526 739.299 43.5038 729.321 41.8278L711.177 38.7824L711.86 34.8366C712.236 32.6655 712.928 23.4669 713.399 14.3955L714.254 -2.09842L711.223 -2.8195C709.556 -3.21447 688.809 -6.75622 665.119 -10.6877C641.429 -14.6193 616.538 -18.7678 609.806 -19.9072L597.566 -21.9782L593.074 -18.8483L588.583 -15.7184L563.667 -19.9436L538.75 -24.17L527.178 -16.6929L515.607 -9.21569L487.749 -14.0996C472.428 -16.7864 458.281 -19.0172 456.312 -19.0575C454.298 -19.0991 449.005 -16.8605 444.204 -13.9346C439.513 -11.0762 435.279 -8.73757 434.797 -8.73757C434.315 -8.73757 433.921 -9.86791 433.921 -11.249C433.921 -12.6301 432.923 -14.0619 431.704 -14.4322C428.6 -15.3741 340.517 -30.8352 338.586 -30.7767C337.718 -30.7507 327.031 -25.2653 314.838 -18.5872ZM378.636 -17.8297C398.94 -14.2555 417.229 -10.9684 419.279 -10.5253L423.006 -9.7211L419.607 -7.89436C416.632 -6.29629 414.366 -6.39243 401.404 -8.66611L386.599 -11.2633L382.412 -8.61024C380.111 -7.14989 377.788 -6.22223 377.253 -6.54704C376.718 -6.87185 365.373 -9.04419 352.043 -11.375L327.807 -15.6119L316.852 -9.48853C310.827 -6.11959 304.925 -3.55618 303.734 -3.79134C301.257 -4.28116 335.726 -24.0388 339.364 -24.2142C340.66 -24.2766 358.332 -21.4039 378.636 -17.8297ZM559.799 -14.5426C570.345 -12.7328 579.454 -11.1074 580.042 -10.9294C580.63 -10.7514 572.766 -4.9035 562.567 2.06436C552.369 9.03352 543.735 15.5064 543.382 16.4509C542.699 18.2764 538.382 17.7567 509.492 12.37L497.017 10.0443L518.359 -3.86929C530.098 -11.5219 539.91 -17.7933 540.163 -17.8076C540.416 -17.8206 549.253 -16.3525 559.799 -14.5426ZM651.655 -6.76791C679.266 -2.11271 702.33 1.84869 702.907 2.03578C703.871 2.3463 671.105 28.9627 664.99 32.8357C662.714 34.2766 655.148 33.2554 613.049 25.8211C585.947 21.0347 561.583 16.7095 558.906 16.208L554.04 15.2985L575.935 0.0323429C587.977 -8.36469 598.645 -15.2338 599.641 -15.2338C600.638 -15.2338 624.044 -11.4244 651.655 -6.76791ZM483.328 -8.61414C496.218 -6.39373 506.934 -4.41368 507.14 -4.2136C507.348 -4.01481 503.682 -1.36695 498.996 1.66809L490.474 7.18859L466.315 3.0427C453.027 0.762522 441.081 -1.53455 439.767 -2.06204C437.806 -2.84938 438.943 -3.96934 446.101 -8.31012C450.899 -11.2191 455.964 -13.3863 457.357 -13.1251C458.751 -12.864 470.437 -10.8346 483.328 -8.61414ZM376.682 -0.90831C400.847 3.39869 421.649 7.3536 422.908 7.88109C424.665 8.61776 419.158 12.5727 399.207 24.9025L373.218 40.9638L323.122 31.4169C280.011 23.2018 273.424 21.6505 275.88 20.2902C277.448 19.421 289.565 12.5766 302.803 5.08252C316.041 -2.41154 328.194 -8.58816 329.809 -8.64142C331.425 -8.69339 352.518 -5.21401 376.682 -0.90831ZM428.853 -5.56611C428.853 -5.25039 428.283 -4.63195 427.587 -4.19021C426.89 -3.74846 426.32 -4.00702 426.32 -4.76318C426.32 -5.51934 426.89 -6.13908 427.587 -6.13908C428.283 -6.13908 428.853 -5.88182 428.853 -5.56611ZM295.73 2.14232C295.44 2.40997 287.649 6.84819 278.416 12.0062L261.631 21.3855V27.9025C261.631 34.0011 261.448 34.374 258.78 33.7218C257.212 33.3385 252.333 32.316 247.939 31.4481C243.543 30.5815 240.407 29.4278 240.971 28.886C244.026 25.9458 290.61 1.6577 293.197 1.6564C294.88 1.6564 296.02 1.87468 295.73 2.14232ZM458.941 7.72778C470.264 9.67535 479.522 11.5904 479.516 11.9841C479.509 12.3778 475.947 15.014 471.598 17.8424C467.25 20.6709 459.986 25.4027 455.457 28.3572C450.928 31.313 445.116 35.0197 442.542 36.5944L437.859 39.458L437.474 21.8545C437.261 12.1725 437.373 4.2367 437.721 4.21981C438.07 4.20292 447.619 5.78151 458.941 7.72778ZM705.746 39.0981C704.642 53.877 703.129 75.0313 702.387 86.1074C701.644 97.1835 700.793 107.523 700.493 109.085C700.194 110.646 697.435 114.037 694.361 116.62L688.774 121.317L676.712 119.107C670.077 117.891 664.05 116.516 663.316 116.051C662.391 115.465 662.727 103.533 664.413 77.1439C665.75 56.2092 667.025 38.9357 667.248 38.7564C667.47 38.5784 676.076 31.8314 686.371 23.7631C696.667 15.6948 705.503 8.44366 706.006 7.64853C707.801 4.81617 707.738 12.4869 705.746 39.0981ZM430.884 76.6632C430.445 77.1127 391.525 69.9279 379.763 67.2242C377.102 66.6122 376.913 65.8898 376.913 56.291V46.014L403.833 29.1056L430.754 12.1959L431.093 44.1483C431.279 61.7219 431.186 76.354 430.884 76.6632ZM485.855 22.1195L485.849 28.291L462.102 44.2171L438.355 60.1433L437.957 54.0056C437.605 48.5605 437.958 47.5705 441.087 45.2253C444.334 42.7931 484.825 16.1976 485.544 16.0248C485.718 15.9819 485.859 18.7259 485.855 22.1195ZM518.482 20.1304L542.869 24.3698V29.229C542.869 33.3138 542.37 34.2168 539.736 34.895C537.207 35.5446 513.827 31.9743 495.679 28.1662C492.512 27.501 492.195 26.9137 492.195 21.6921C492.195 18.5323 492.622 15.9351 493.146 15.9182C493.669 15.9026 505.07 17.7982 518.482 20.1304ZM604.53 30.3009C632.977 35.3355 657.249 39.7607 658.468 40.1323C660.146 40.6442 660.685 42.2072 660.685 46.5675C660.685 49.735 660.318 52.327 659.868 52.327C659.418 52.327 634.931 47.9421 605.452 42.5827C575.974 37.2233 551.259 32.8383 550.529 32.8383C549.8 32.8383 549.203 30.2073 549.203 26.9917C549.203 22.8003 549.714 21.1451 551.006 21.1451C551.998 21.1451 576.084 25.265 604.53 30.3009ZM308.504 34.8054C329.058 38.7265 351.433 42.9335 358.227 44.156L370.579 46.3778V57.1082V67.8387L363.928 72.173C360.271 74.5571 353.786 78.7056 349.516 81.3925L341.757 86.2776L305.828 78.9551C286.067 74.9287 269.731 71.4623 269.526 71.2518C269.32 71.0414 268.796 61.1424 268.36 49.2556C267.698 31.1584 267.859 27.6439 269.351 27.6582C270.33 27.6686 287.949 30.8842 308.504 34.8054ZM527.34 40.2869L531.447 41.2834L519.739 49.47C513.3 53.9719 503.043 61.1996 496.947 65.5312L485.864 73.406L464.232 69.199C452.336 66.8851 443.071 64.5412 443.645 63.9903C444.219 63.4395 454.769 56.2845 467.088 48.0915L489.488 33.1943L506.36 36.2423C515.641 37.9184 525.081 39.7386 527.34 40.2869ZM248.148 37.5559C254.519 38.7213 260.111 40.0361 260.576 40.4792C261.04 40.9209 261.712 43.2362 262.067 45.6229C262.652 49.5583 262.455 49.8987 259.955 49.2764C258.438 48.8983 251.924 47.5627 245.479 46.3089L233.76 44.0274V39.7321C233.76 34.7339 233.193 34.8197 248.148 37.5559ZM564.515 41.1886C573.861 42.9231 594.904 46.7571 611.278 49.7077C627.652 52.6583 644.298 55.77 648.27 56.6223L655.491 58.1736L632.825 76.3631C616.448 89.5049 609.346 94.4577 607.234 94.2095C600.931 93.4689 501.567 74.2635 499.533 73.3917C497.897 72.6914 503.313 68.2727 521.703 55.301C535.085 45.862 546.37 38.1146 546.78 38.086C547.189 38.0587 555.17 39.4541 564.515 41.1886ZM728.771 47.8797C735.213 49.0438 740.208 50.4535 739.871 51.0122C739.534 51.5721 732.355 58.0294 723.917 65.3623L708.574 78.6952L709.37 68.4351C711.201 44.7979 711.271 44.4692 714.3 45.1461C715.818 45.4852 722.329 46.7156 728.771 47.8797ZM247.062 52.939C264.101 56.0883 262.898 55.2113 262.898 64.488V72.5745L254.346 77.6207C249.643 80.3959 241.744 85.1499 236.792 88.1849L227.788 93.7041L213.533 90.608C205.189 88.7956 198.676 86.6843 197.833 85.5201C197.038 84.4249 192.968 82.8567 188.788 82.0356C184.607 81.2158 180.8 80.188 180.328 79.7528C178.942 78.4756 230.307 49.9182 233.127 50.3989C234.52 50.6367 240.791 51.7787 247.062 52.939ZM770.266 62.6664C782.111 64.7673 805.108 68.8547 821.371 71.7494C837.633 74.6442 851.592 77.0127 852.391 77.0127C853.19 77.0127 846.241 84.8251 836.95 94.3719L820.058 111.732L810.998 110.034C759.028 100.295 723.499 93.5846 718.059 92.4815L711.458 91.142L729.46 75.0742C739.362 66.2367 747.748 58.9701 748.097 58.9259C748.445 58.8817 758.422 60.5642 770.266 62.6664ZM657.738 90.2117L656.129 116.907L651.756 120.834C641.87 129.71 610.836 156.236 610.685 155.938C610.595 155.761 611.133 143.202 611.879 128.026C612.921 106.789 613.665 100.003 615.107 98.5555C617.994 95.6569 658.748 62.9094 659.066 63.2316C659.222 63.3875 658.624 75.5289 657.738 90.2117ZM128.762 75.6277C173.58 84.9095 184.702 87.3313 185.291 87.9342C185.537 88.1862 170.404 97.2394 151.663 108.052L117.589 127.712L67.2889 116.38L16.9903 105.049L26.2446 100.268C31.3347 97.6369 47.1867 89.2932 61.4703 81.7264C75.7539 74.1582 88.3627 67.9556 89.4902 67.9426C90.6164 67.9284 108.289 71.387 128.762 75.6277ZM462.425 75.0547C474.966 77.5506 485.371 79.5956 485.544 79.6008C485.718 79.6073 485.861 81.0845 485.861 82.884C485.861 85.6007 485.377 86.049 483.011 85.5189C481.442 85.1694 471.039 83.0932 459.891 80.9065C448.743 78.7212 438.953 76.6931 438.137 76.402C436.661 75.8758 437.283 70.5152 438.82 70.5178C439.261 70.5178 449.883 72.5602 462.425 75.0547ZM421.659 81.6731C445.474 86.3803 468.554 90.8575 472.948 91.6214C479.357 92.7375 480.61 93.3286 479.283 94.611C478.372 95.4906 465.966 104.57 451.714 114.787L425.802 133.365L411.175 130.353C389.637 125.919 318.19 110.778 316.862 110.366C315.088 109.816 373.366 73.115 376.015 73.115C377.305 73.115 397.845 76.9659 421.659 81.6731ZM303.402 84.6523L334.404 90.951L325.572 96.7028C320.714 99.8664 313.993 104.185 310.638 106.299L304.539 110.143L304.938 122.812C305.157 129.78 305.052 135.477 304.703 135.474C304.355 135.47 287.823 131.947 267.965 127.646C248.107 123.345 226.159 118.611 219.192 117.126C212.224 115.641 206.342 114.25 206.12 114.036C205.899 113.823 212.17 109.774 220.056 105.041C227.942 100.308 241.52 92.1151 250.229 86.835C261.627 79.9256 266.953 77.3921 269.232 77.7961C270.974 78.1041 286.351 81.1898 303.402 84.6523ZM551.708 90.0104C582.002 95.8115 606.919 100.691 607.08 100.856C607.241 101.021 606.711 115.018 605.904 131.96C604.65 158.318 604.155 162.754 602.474 162.702C601.394 162.669 575.997 157.511 546.036 151.243L491.562 139.842L491.144 130.19C490.915 124.881 491.119 111.018 491.597 99.3818C492.37 80.6246 492.705 78.2963 494.549 78.8446C495.693 79.185 521.415 84.2092 551.708 90.0104ZM849.981 136.044L844.304 186.535L836.57 195.481C832.318 200.401 828.727 204.261 828.592 204.058C828.456 203.856 830.212 186.734 832.494 166.011C834.774 145.288 836.67 126.414 836.708 124.07C836.779 119.549 836.416 119.272 828.655 117.943L823.702 117.093L839.361 100.995C847.973 92.1411 855.164 85.0446 855.34 85.2239C855.515 85.4045 853.104 108.273 849.981 136.044ZM192.939 117.938C192.328 118.652 176.608 128.346 158.005 139.479C119.256 162.667 123.131 162.33 121.883 142.625L121.226 132.231L156.906 111.851L192.588 91.4694L193.319 104.055C193.721 110.976 193.55 117.224 192.939 117.938ZM202.406 94.763C201.536 95.1242 200.111 95.1242 199.239 94.763C198.369 94.4031 199.081 94.1082 200.823 94.1082C202.564 94.1082 203.278 94.4031 202.406 94.763ZM217.291 97.9241C219.399 99.1791 212.396 98.067 207.157 96.3143C205.08 95.6205 205.952 95.5205 209.69 96.0246C212.826 96.4481 216.246 97.303 217.291 97.9241ZM712.95 97.8006C713.711 97.8006 712.995 99.2623 711.358 101.049C707.464 105.3 706.608 105.147 707.3 100.321C707.704 97.4966 708.403 96.556 709.717 97.0731C710.734 97.4732 712.188 97.8006 712.95 97.8006ZM485.186 119.961L484.256 140.994L457.227 161.622C442.362 172.969 429.896 182.252 429.526 182.252C429.156 182.252 428.853 172.402 428.853 160.365V138.476L437.405 132.329C478.003 103.147 485.262 98.0514 485.66 98.4606C485.911 98.7166 485.697 108.392 485.186 119.961ZM207.676 102.855C209.826 103.719 209.597 104.145 205.626 106.66C199.875 110.307 199.556 110.251 199.556 105.596C199.556 102.393 200.064 101.715 202.406 101.789C203.974 101.84 206.346 102.319 207.676 102.855ZM732.895 106.085C744.712 108.176 818.742 122.077 824.589 123.302C828.16 124.049 827.843 124.47 809.566 143.246C791.054 162.264 790.859 162.417 786.498 161.409C784.08 160.849 781.948 160.194 781.763 159.953C781.577 159.712 781.815 155.715 782.293 151.07C782.771 146.425 782.935 141.969 782.657 141.166C782.381 140.363 772.923 137.903 761.642 135.7C750.359 133.496 731.295 129.772 719.276 127.425C707.258 125.077 697.423 122.78 697.423 122.321C697.423 120.402 718.483 103.152 720.226 103.643C721.271 103.937 726.972 105.036 732.895 106.085ZM61.5336 121.175C121.603 134.68 115.231 132.624 115.716 138.654C118.463 172.806 124.419 254.447 124.185 254.73C123.725 255.286 25.4959 230.086 24.5419 229.167C23.8718 228.523 12.0509 117.949 12.061 112.417C12.0623 111.525 12.8047 110.793 13.7105 110.793C14.6163 110.793 36.1361 115.465 61.5336 121.175ZM341.724 121.908C357.247 125.163 381.062 130.148 394.649 132.986C408.236 135.823 420.35 138.462 421.569 138.849C423.604 139.493 423.786 142.243 423.784 172.27L423.781 204.988L417.568 209.332L411.355 213.674L402.052 211.658C385.695 208.113 313.09 191.288 312.854 190.987C312.729 190.827 312.223 173.888 311.729 153.343C311.107 127.434 311.241 115.99 312.167 115.99C312.902 115.99 326.203 118.654 341.724 121.908ZM213.491 126.25C240.195 131.959 299.075 144.714 300.135 145.02C300.758 145.201 297.623 147.707 293.167 150.592C288.712 153.476 273.872 163.267 260.189 172.349L235.312 188.861L195.58 179.587C173.729 174.486 150.42 169.053 143.784 167.513C137.149 165.972 131.448 164.296 131.116 163.788C130.208 162.397 197.362 122.506 199.556 123.135C200.601 123.433 206.872 124.835 213.491 126.25ZM716.408 132.936C746.031 138.684 771.1 143.684 772.119 144.045C773.384 144.494 769.966 148.64 761.35 157.105C754.409 163.924 745.013 173.247 740.47 177.82L732.212 186.135L675.862 174.457C644.87 168.034 618.177 162.459 616.546 162.067C613.688 161.381 613.757 161.214 618.446 157.537C621.123 155.438 631.294 146.703 641.049 138.125C650.804 129.549 659.632 122.521 660.667 122.51C661.703 122.497 686.787 127.19 716.408 132.936ZM824.605 184.1L818.927 237.216L802.333 256.537C793.206 267.164 785.504 275.617 785.218 275.323C784.931 275.03 787.055 250.606 789.937 221.05L795.176 167.31L812.493 149.121C822.016 139.117 829.914 130.943 830.045 130.957C830.175 130.972 827.726 154.886 824.605 184.1ZM545.011 157.17C591.854 166.892 599.51 168.798 598.218 170.406C597.389 171.441 593.485 174.967 589.546 178.243C585.604 181.52 574.944 190.723 565.856 198.694C549.425 213.104 549.302 213.18 544.516 212.09C541.868 211.489 516.899 205.968 489.028 199.825C461.158 193.681 437.34 188.236 436.101 187.723C434.257 186.961 435.271 185.727 441.67 180.949C445.974 177.735 458.093 168.529 468.604 160.489C479.115 152.451 488.295 145.86 489.005 145.843C489.715 145.826 514.917 150.923 545.011 157.17ZM306.796 189.63C306.673 189.759 303.803 189.258 300.419 188.518L294.267 187.172L267.498 205.629L240.728 224.086L239.712 209.454C238.92 198.05 239.06 194.461 240.345 193.181C241.252 192.278 256.247 182.092 273.666 170.544L305.337 149.55L306.179 169.474C306.643 180.431 306.92 189.503 306.796 189.63ZM774.831 167.542C774.075 175.989 771.76 200.906 769.688 222.912L765.92 262.921L751.749 278.779C743.955 287.501 736.495 295.806 735.171 297.235C732.801 299.794 732.778 299.633 733.635 286.659C734.473 273.962 734.406 273.454 731.796 272.604C729.835 271.966 729.249 270.942 729.668 268.888C729.986 267.329 731.502 249.39 733.038 229.025L735.829 191.996L755.503 171.56C766.324 160.322 775.409 151.363 775.692 151.653C775.975 151.944 775.587 159.094 774.831 167.542ZM729.622 199.125C729.158 203.064 728.629 206.463 728.449 206.678C728.27 206.892 704.825 202.118 676.352 196.072C647.877 190.024 621.303 184.398 617.296 183.572L610.011 182.067V174.522V166.976L670.239 179.47L730.469 191.962L729.622 199.125ZM788.499 168.685C788.999 169.198 778.536 281.328 777.926 281.996C777.446 282.52 764.193 279.538 762.271 278.474C761.067 277.806 762.145 275.797 766.2 271.154L771.789 264.754L775.853 219.93C780.995 163.21 780.487 166.238 784.675 167.316C786.502 167.786 788.223 168.403 788.499 168.685ZM178.397 181.742C207.802 188.609 232.235 194.601 232.694 195.06C233.152 195.518 233.722 203.18 233.96 212.086L234.394 228.28L226.476 233.945C220.827 237.988 218.568 240.422 218.594 242.438C218.613 243.993 219.425 260.17 220.398 278.387C221.371 296.604 221.988 311.69 221.77 311.915C221.458 312.235 143.064 291.908 134.913 289.395C133.303 288.899 132.285 279.298 128.826 231.952C126.541 200.687 124.408 173.791 124.085 172.182C123.762 170.574 123.82 169.259 124.216 169.259C124.61 169.259 148.992 174.877 178.397 181.742ZM602.82 183.512C588.734 196.077 555.754 224.841 554.587 225.579C553.437 226.305 553.004 225.34 553.004 222.045C553.004 217.743 554.286 216.411 578.024 196.048C602.928 174.684 603.045 174.603 603.453 178.584C603.677 180.782 603.392 183 602.82 183.512ZM658.785 198.447C684.565 203.878 710.087 209.324 715.5 210.552L725.342 212.784L702.035 236.65L678.727 260.516L619.983 247.322C587.673 240.064 560.171 233.684 558.868 233.143C556.908 232.33 560.299 228.806 578.504 212.738C590.607 202.056 601.935 191.978 603.677 190.341C605.576 188.557 607.859 187.607 609.378 187.97C610.771 188.302 633.005 193.017 658.785 198.447ZM487.764 205.646C517.027 212.145 542.251 217.787 543.819 218.186C546.235 218.802 546.669 219.782 546.669 224.617C546.669 227.756 546.175 230.324 545.57 230.324C544.966 230.324 534.562 228.025 522.45 225.218C493.12 218.416 430.505 204.339 429.586 204.339C429.183 204.339 428.853 201.644 428.853 198.352C428.853 192.79 429.056 192.416 431.706 193.098C433.276 193.502 458.501 199.148 487.764 205.646ZM845.614 239.52C842.754 264.766 840.022 286.13 839.545 286.996C838.402 289.065 810.886 323.74 810.619 323.446C810.505 323.321 812.211 306.265 814.409 285.542C818.196 249.842 818.589 247.592 821.89 242.69C824.326 239.072 825.419 235.751 825.523 231.646C825.606 228.418 826.034 224.237 826.474 222.356C827.207 219.222 849.384 192.152 850.381 193.174C850.619 193.419 848.475 214.274 845.614 239.52ZM348.984 205.658C377.235 212.101 401.393 217.816 402.669 218.359C404.526 219.15 398.993 223.969 374.887 242.557C358.331 255.324 343.755 266.045 342.493 266.384C339.692 267.135 229.856 240.45 230.287 239.124C230.793 237.562 293.786 194.245 295.777 194.089C296.791 194.01 320.734 199.216 348.984 205.658ZM485.861 223.14C516.17 229.964 541.434 235.701 542.001 235.887C542.57 236.074 536.584 241.862 528.699 248.748C520.816 255.636 508.099 266.878 500.441 273.73C492.783 280.584 485.797 286.191 484.916 286.191C483.419 286.191 372.593 259.648 367.707 258.119C364.877 257.234 425.971 209.331 428.853 210.175C429.899 210.48 455.552 216.315 485.861 223.14ZM725.75 245.324C724.66 258.868 723.639 270.095 723.481 270.27C723.322 270.446 714.825 268.704 704.597 266.397L686.003 262.203L706.538 241.114C717.833 229.514 727.222 220.175 727.402 220.36C727.583 220.546 726.839 231.779 725.75 245.324ZM572.942 242.741C581.834 244.706 589.56 246.715 590.109 247.206C590.66 247.697 586.1 252.715 579.975 258.358C573.851 264 564.99 272.375 560.287 276.969C555.582 281.563 551.476 285.057 551.162 284.735C550.846 284.411 550.937 273.747 551.363 261.035C552.085 239.478 552.293 237.966 554.458 238.545C555.734 238.888 564.052 240.776 572.942 242.741ZM545.946 249.488C545.68 253.596 545.205 264.851 544.89 274.498L544.318 292.038L539.269 296.585L534.219 301.133L533.413 334.913L532.609 368.694L510.185 391.028L487.761 413.362L487.386 408.543C487.18 405.891 487.54 378.673 488.186 348.056L489.36 292.39L493.628 288.044C499.622 281.942 544.591 242.178 545.599 242.09C546.056 242.049 546.212 245.379 545.946 249.488ZM283.633 259.446C314.2 266.942 339.434 273.304 339.71 273.587C340.314 274.208 342.821 395.646 342.241 396.24C342.018 396.47 330.487 393.496 316.618 389.632C302.749 385.768 278.005 378.937 261.631 374.452C245.257 369.967 231.618 366.1 231.323 365.861C230.798 365.436 225.041 261.039 224.942 250.178C224.908 246.344 225.369 244.866 226.476 245.259C227.348 245.568 253.068 251.952 283.633 259.446ZM664.341 263.44C697.357 270.907 724.664 277.316 725.021 277.684C725.379 278.05 720.576 283.768 714.348 290.392C704.127 301.26 694.488 311.702 680.216 327.368L675.254 332.815L609.712 316.974C573.664 308.262 544.306 300.7 544.47 300.17C544.635 299.641 557.026 287.83 572.006 273.924C592.591 254.816 599.861 248.791 601.777 249.254C603.17 249.59 631.325 255.974 664.341 263.44ZM97.3231 254.427C123.543 261.156 125.128 261.615 124.464 262.296C124.132 262.636 114.525 260.494 103.116 257.533C91.7072 254.573 81.0898 252.136 79.5227 252.119C77.9557 252.1 76.6723 251.574 76.6723 250.949C76.6723 249.236 77.8822 249.44 97.3231 254.427ZM810.048 271.357C808.574 286.395 807.989 289.584 806.906 288.473C806.209 287.757 808.595 260.941 809.64 257.747C811.157 253.107 811.316 258.403 810.048 271.357ZM126.552 280.785C127.076 287.899 128.015 292.525 129.104 293.362C130.053 294.09 135.158 295.79 140.45 297.141L150.073 299.6L132.059 312.304C122.151 319.292 112.254 326.02 110.066 327.257C106.11 329.491 105.827 329.433 59.3927 316.751C33.71 309.738 12.2929 303.642 11.8001 303.205C11.3073 302.768 26.5739 292.404 45.726 280.176L80.5501 257.939L103.137 263.737L125.723 269.534L126.552 280.785ZM423.153 277.801C455.204 285.517 481.902 292.248 482.484 292.759C483.454 293.61 481.488 415.837 480.487 416.863C480.247 417.111 466.106 413.507 449.067 408.856C432.027 404.204 406.114 397.167 391.482 393.215C376.85 389.266 364.504 385.64 364.047 385.159C363.591 384.678 362.803 356.86 362.298 323.341C361.52 271.753 361.648 262.501 363.129 263.083C364.09 263.46 391.102 270.083 423.153 277.801ZM356.672 346.541L357.002 386.753L352.706 390.435L348.409 394.117L347.345 333.342L346.281 272.567L350.512 268.939L354.743 265.31L355.543 285.82C355.981 297.1 356.49 324.426 356.672 346.541ZM801.5 276.794C800.966 281.923 800.261 286.395 799.933 286.731C799.606 287.066 796.382 286.643 792.768 285.791L786.198 284.242L793.909 275.418C798.15 270.564 801.812 266.79 802.046 267.03C802.281 267.27 802.035 271.664 801.5 276.794ZM781.349 289.538C793.714 292.342 803.833 295.069 803.835 295.598C803.84 297.373 766.8 341.404 764.924 341.852C763.904 342.095 755.545 340.473 746.347 338.244L729.625 334.195L730.717 322.288C731.923 309.144 731.067 310.724 746.426 293.289C751.489 287.54 755.851 283.681 756.965 283.961C758.01 284.224 768.982 286.733 781.349 289.538ZM725.963 308.415C724.907 320.845 722.655 347.565 720.96 367.793L717.878 404.571L712.303 411.318C709.239 415.029 698.651 427.879 688.774 439.875C677.229 453.899 670.82 460.769 670.82 459.118C670.82 457.707 672.513 432.692 674.583 403.529C676.653 374.365 678.476 347.609 678.634 344.072L678.921 337.639L702.947 311.26C716.162 296.753 727.179 285.094 727.428 285.349C727.679 285.605 727.019 295.985 725.963 308.415ZM160.284 302.392C160.284 302.855 143.357 315.278 130.872 323.976C130.275 324.392 131.582 348.336 133.778 377.184L137.769 429.637L134.141 432.619C132.146 434.26 128.126 437.367 125.21 439.522L119.906 443.443L119.201 437.899C116.583 417.311 110.791 335.131 111.88 334.014C112.576 333.301 123.037 325.783 135.131 317.308C154.642 303.632 160.284 300.287 160.284 302.392ZM801.332 353.916C798.5 381.338 795.483 404.984 794.626 406.465C792.131 410.78 760.362 452.516 759.92 452.061C759.698 451.835 761.77 428.118 764.521 399.36L769.525 347.071L780.053 334.496C785.842 327.579 793.985 317.725 798.148 312.599C802.31 307.47 805.887 303.452 806.098 303.666C806.307 303.882 804.163 326.494 801.332 353.916ZM196.861 312.068C210.359 315.637 221.618 318.778 221.88 319.048C222.689 319.878 224.056 347.256 223.287 347.256C222.074 347.256 140.757 325.064 140.317 324.613C140.092 324.381 141.783 323.008 144.077 321.561C146.371 320.115 152.809 315.682 158.383 311.711C163.958 307.739 169.373 304.736 170.418 305.034C171.464 305.333 183.363 308.498 196.861 312.068ZM586.575 317.365C607.478 322.417 635.575 329.224 649.015 332.493L673.45 338.434L672.753 345.768C672.37 349.802 670.295 378.535 668.141 409.62C665.989 440.704 664.017 466.363 663.761 466.64C663.257 467.183 537.553 433.184 536.654 432.262C536.032 431.624 538.752 335.815 539.901 317.849L540.661 305.982L544.615 307.081C546.79 307.686 565.672 312.314 586.575 317.365ZM830.954 326.655C829.76 337.629 828.346 347.114 827.814 347.735C827.27 348.369 823.884 348.177 820.092 347.298C808.543 344.616 808.905 344.855 808.905 339.944C808.905 336.18 810.69 333.175 819.356 322.345C825.105 315.163 830.358 308.503 831.03 307.546C831.702 306.588 832.449 306.007 832.69 306.254C832.931 306.501 832.15 315.682 830.954 326.655ZM38.6672 317.264C54.3443 321.592 75.4372 327.4 85.5402 330.17L103.909 335.208L104.835 340.257C106.304 348.262 113.759 443.477 112.98 444.276C112.594 444.671 101.273 441.659 87.8243 437.582C74.3743 433.505 53.6792 427.258 41.8343 423.701C29.9893 420.144 19.6684 416.543 18.8982 415.7C18.1292 414.857 15.0875 391.658 12.1409 364.146C9.19419 336.635 6.46922 312.745 6.0841 311.058C5.50515 308.522 5.79779 308.112 7.77406 308.694C9.08777 309.08 22.9901 312.938 38.6672 317.264ZM178.421 341.429C200.845 347.513 220.505 353.069 222.112 353.776C224.658 354.897 224.981 355.837 224.645 361.142L224.259 367.224L207.53 380.302C198.329 387.495 190.561 393.97 190.267 394.691C189.973 395.414 190.541 408.79 191.528 424.416C192.513 440.042 193.053 453.102 192.724 453.438C192.107 454.071 147.489 441.072 145.407 439.653C144.762 439.213 142.699 417.805 140.82 392.08C138.943 366.355 137.064 341.946 136.646 337.836C136.228 333.727 136.283 330.366 136.769 330.366C137.254 330.366 155.998 335.344 178.421 341.429ZM746.569 344.52C755.134 346.563 762.415 348.515 762.747 348.855C763.078 349.196 761.059 373.567 758.257 403.012C755.456 432.458 753.164 457.348 753.164 458.322C753.164 459.672 748.795 458.924 734.753 455.169C724.627 452.46 716.01 449.903 715.604 449.486C715.196 449.069 715.528 441.021 716.34 431.602C717.594 417.05 718.263 413.868 720.791 410.424C723.476 406.768 723.967 403.832 725.824 380.387C728.41 347.759 729.182 340.755 730.19 340.782C730.632 340.795 738.003 342.476 746.569 344.52ZM845.887 359.634C865.531 364.298 881.822 368.336 882.088 368.608C882.594 369.129 854.393 409.872 850.73 413.911C848.69 416.161 847.717 416.025 826.134 410.464C813.773 407.28 803.317 404.321 802.895 403.889C802.151 403.126 805.929 359.951 807.253 354.077C807.617 352.469 808.42 351.154 809.041 351.154C809.66 351.154 826.24 354.97 845.887 359.634ZM246.429 376.438C255.138 378.912 279.31 385.627 300.143 391.359C320.976 397.091 338.228 401.993 338.48 402.25C338.731 402.509 332.762 408.043 325.216 414.549L311.496 426.377L256.159 410.644C225.723 401.989 200.823 394.487 200.823 393.973C200.823 392.728 227.7 371.961 229.326 371.949C230.023 371.944 237.719 373.965 246.429 376.438ZM877.665 424.585L871.847 470.035L857.169 492.347C849.097 504.618 842.413 514.557 842.315 514.434C842.103 514.164 852.895 424.691 853.472 421.926C853.839 420.18 882.693 378.544 883.249 378.96C883.379 379.056 880.865 399.588 877.665 424.585ZM530.925 404.731C530.43 418.477 529.829 429.922 529.592 430.165C529.248 430.519 500.356 423.145 492.053 420.583C490.584 420.129 495.166 414.765 508.377 401.468C518.477 391.303 527.377 382.277 528.155 381.411C528.931 380.544 530.075 379.814 530.697 379.786C531.352 379.758 531.448 390.249 530.925 404.731ZM407.739 403.888C432.939 410.74 459.192 417.869 466.08 419.729L478.601 423.112L467.365 433.739L456.131 444.366L447.876 441.981C443.336 440.67 416.962 433.291 389.265 425.584C361.569 417.875 338.908 411.217 338.908 410.787C338.908 410.355 342.185 407.324 346.192 404.05C350.199 400.776 355.132 396.597 357.158 394.764C359.182 392.931 361.081 391.43 361.379 391.43C361.677 391.43 382.539 397.037 407.739 403.888ZM253.987 416.234C284.32 424.874 309.225 432.037 309.331 432.15C309.82 432.67 312.631 547.437 312.166 547.914C311.877 548.21 292.549 542.446 269.217 535.104C245.884 527.76 221.529 520.112 215.096 518.107C203.959 514.638 203.37 514.269 202.804 510.439C202.477 508.225 201.03 485.366 199.59 459.641C198.148 433.916 196.642 410.091 196.243 406.696C195.702 402.096 195.94 400.525 197.177 400.525C198.09 400.525 223.653 407.594 253.987 416.234ZM846.738 422.09C846.991 422.302 844.488 445.224 841.175 473.03L835.151 523.584L829.946 522.29C827.083 521.578 824.22 520.514 823.585 519.924C822.892 519.284 823.333 511.235 824.684 499.859C825.944 489.232 826.453 480.423 825.839 479.866C825.235 479.318 810.489 475.172 793.07 470.652C775.651 466.133 761.216 462.302 760.995 462.139C760.772 461.976 769.453 450.16 780.286 435.88L799.983 409.917L823.129 415.812C835.861 419.054 846.485 421.878 846.738 422.09ZM373.164 427.201C392.296 432.584 415.362 439.07 424.42 441.614C433.477 444.159 443.882 447.104 447.539 448.161L454.19 450.081L454.019 483.444C453.924 501.794 453.497 528.25 453.069 542.235L452.29 567.663L395.104 550.101L337.917 532.54L337.158 507.135C334.848 429.741 334.772 417.415 336.602 417.415C337.579 417.415 354.031 421.82 373.164 427.201ZM330.615 484.043L331.517 533.698L325.26 539.961L319.003 546.224L318.201 528.268C317.762 518.391 317.083 494.233 316.694 474.582C316.305 454.931 315.763 437.099 315.488 434.955C315.056 431.578 315.869 430.31 321.565 425.472L328.14 419.886L328.927 427.138C329.36 431.125 330.12 456.733 330.615 484.043ZM710.027 436.936C709.287 444.33 708.319 451.002 707.876 451.762C706.614 453.924 668.177 501.782 667.209 502.395C666.226 503.019 666.882 485.419 668.107 478.312C668.727 474.716 673.861 467.557 689.749 448.137C701.205 434.135 710.757 422.862 710.976 423.085C711.194 423.31 710.767 429.542 710.027 436.936ZM525.767 436.054C559.136 445.139 595.612 454.982 606.716 457.898L611.654 459.195L610.897 474.36C608.237 527.585 606.031 566.956 605.438 571.833C604.833 576.809 604.419 577.415 601.996 576.883C600.482 576.551 573.711 568.598 542.505 559.211C511.299 549.823 485.485 542.143 485.14 542.143C484.489 542.143 485.67 455.969 486.493 443.4C486.752 439.47 486.999 433.788 487.044 430.773C487.103 426.987 487.617 425.463 488.712 425.846C489.583 426.15 506.257 430.744 525.767 436.054ZM480.198 474.257C479.788 499.09 479.129 524.829 478.735 531.457L478.019 543.507L468.552 553.544L459.085 563.581L459.791 506.456L460.498 449.333L470.299 439.221C475.69 433.658 480.291 429.108 480.524 429.108C480.756 429.108 480.61 449.425 480.198 474.257ZM94.7818 446.025L117.325 452.789L124.864 447.366C134.24 440.621 137.266 441.705 128.623 448.712C125.134 451.54 122.27 454.572 122.258 455.448C122.248 456.325 123.749 475.625 125.594 498.338C127.438 521.051 128.693 539.897 128.38 540.216C128.067 540.537 117.872 537.544 105.726 533.564C93.5783 529.583 77.0841 524.242 69.0713 521.693C61.0586 519.144 54.2556 516.844 53.9529 516.584C53.4145 516.123 45.1597 438.994 45.0546 433.452C45.0014 430.678 45.1357 430.692 58.6199 434.955C66.1094 437.324 82.3832 442.305 94.7818 446.025ZM168.517 453.23C181.73 457.207 192.971 461.153 193.495 462C194.02 462.846 194.458 465.69 194.469 468.32C194.487 472.927 194.36 473.063 191.005 472.055C162.559 463.506 134.089 454.688 133.261 454.17C131.867 453.298 140.1 446.12 142.571 446.052C143.627 446.022 155.304 449.253 168.517 453.23ZM756.965 467.304C801.481 479.003 818.024 483.486 818.367 483.939C818.99 484.764 777.576 542.782 776.488 542.609C774.831 542.346 677.341 514.965 672.342 513.359L668.166 512.019L671.682 507.267C674.813 503.037 699.158 472.511 709.286 460.115L713.146 455.392L718.903 457.102C722.07 458.043 739.197 462.633 756.965 467.304ZM175.287 473.495C189.734 477.83 193.656 479.5 194.428 481.637C194.961 483.117 195.798 491.914 196.287 501.189C196.776 510.463 197.75 518.416 198.452 518.86C199.154 519.305 207.022 521.899 215.938 524.626L232.148 529.583L232.942 542.685C233.379 549.89 234.113 564.658 234.572 575.502L235.408 595.218L217.798 589.465C208.113 586.3 185.899 578.964 168.433 573.16L136.676 562.609L132.607 511.774C130.37 483.816 128.556 460.558 128.576 460.092C128.596 459.625 135.027 461.223 142.865 463.642C150.704 466.063 165.293 470.496 175.287 473.495ZM641.049 467.288L661.318 472.927L661.07 483.824C660.933 489.817 660.468 498.831 660.038 503.855L659.253 512.989L636.453 541.534C623.912 557.232 613.072 570.661 612.364 571.376C611.492 572.256 611.317 569.527 611.823 562.931C612.233 557.571 613.408 537.401 614.43 518.107C617.118 467.423 617.623 461.586 619.31 461.62C620.118 461.636 629.901 464.187 641.049 467.288ZM815.922 524.837C814.074 541.144 811.53 562.97 810.271 573.34L807.98 592.194L790.584 619.464C781.016 634.461 772.694 647.266 772.089 647.92C771.465 648.595 771.275 647.196 771.65 644.672C772.011 642.232 774.439 619.438 777.045 594.018L781.783 547.801L800.094 521.108C810.166 506.428 818.604 494.589 818.845 494.801C819.087 495.014 817.77 508.529 815.922 524.837ZM47.3374 512.612C47.0055 514.078 46.1732 514.258 43.8536 513.366C40.907 512.233 40.8854 512.133 43.2202 510.366C45.8552 508.37 48.0279 509.555 47.3374 512.612ZM96.4566 536.899L129.543 547.667L130.363 556.274C132.601 579.715 137.479 642.62 137.092 643.018C136.848 643.267 128.713 640.647 119.013 637.194C109.312 633.742 89.3623 626.693 74.6783 621.528L47.9797 612.139L43.2823 567.721C40.6979 543.291 38.3201 522.042 37.997 520.5C37.3307 517.316 29.7537 515.19 96.4566 536.899ZM686.878 523.743L708.637 529.922L685.227 561.043C672.351 578.159 661.345 592.65 660.77 593.242C660.193 593.836 657.8 593.75 655.453 593.053C653.104 592.354 642.917 589.332 632.814 586.337C622.711 583.341 614.222 580.664 613.95 580.389C613.4 579.833 614.654 578.211 643.299 542.468C654.322 528.713 663.742 517.482 664.229 517.51C664.719 517.54 674.91 520.345 686.878 523.743ZM249.513 553.747C249.948 564.157 250.588 575.026 250.935 577.899C251.505 582.637 251.105 583.582 246.644 588.051L241.722 592.979L240.943 582.178C240.514 576.236 239.787 562.52 239.324 551.696L238.486 532.017L243.604 533.417L248.722 534.819L249.513 553.747ZM747.417 540.872C762.719 545.209 775.355 548.878 775.496 549.024C775.818 549.355 764.761 655.306 764.282 656.48C764.089 656.953 751.392 653.453 736.064 648.706C716.995 642.798 708.079 639.453 707.826 638.112C707.495 636.342 714.053 555.038 715.851 538.643C716.333 534.245 717.112 532.085 718.092 532.441C718.918 532.742 732.113 536.535 747.417 540.872ZM821.172 538.489C820.768 539.525 820.467 539.217 820.407 537.703C820.352 536.334 820.651 535.567 821.072 535.999C821.492 536.43 821.538 537.551 821.172 538.489ZM291.958 548.49L316.584 556.179L324.262 548.789C336.384 537.121 334.62 537.666 347.508 541.622L358.882 545.114L359.664 550.956C360.611 558.047 360.715 616.2 359.78 616.2C358.228 616.2 258.386 583.376 257.611 582.612C257.144 582.148 256.352 571.692 255.853 559.375L254.947 536.98L261.139 538.891C264.544 539.942 278.414 544.262 291.958 548.49ZM705.489 589.997L701.121 641.099L686.37 662.105C678.256 673.658 668.496 687.646 664.68 693.188C660.865 698.731 657.511 703.026 657.228 702.735C656.691 702.184 662.651 614.906 663.951 604.296C664.597 599.021 666.763 595.493 680.741 576.95C689.568 565.24 699.64 551.792 703.124 547.066C706.608 542.339 709.548 538.567 709.658 538.683C709.767 538.8 707.892 561.89 705.489 589.997ZM819.913 548.314C819.595 549.564 819.334 548.542 819.334 546.041C819.334 543.54 819.595 542.517 819.913 543.767C820.232 545.017 820.232 547.064 819.913 548.314ZM412.833 561.825C435.724 568.865 455.202 574.624 456.117 574.624C457.032 574.624 462.417 569.509 468.084 563.256L478.387 551.887L477.529 602.558C477.057 630.427 476.482 653.449 476.248 653.718C476.017 653.987 469.391 652.142 461.525 649.619C429.035 639.193 367.82 618.997 367.468 618.588C367.259 618.346 366.676 602.159 366.172 582.616L365.257 547.081L368.234 548.053C369.872 548.589 389.941 554.786 412.833 561.825ZM506.764 554.686C517.912 558.013 527.522 561.176 528.119 561.713C528.717 562.25 528.797 570.526 528.297 580.103L527.387 597.516L506.527 622.123C495.055 635.659 484.995 647.445 484.172 648.317C483.023 649.537 482.754 644.287 483.004 625.581C483.542 585.382 484.821 548.639 485.684 548.637C486.13 548.635 495.616 551.357 506.764 554.686ZM818.646 560.008C818.328 561.257 818.067 560.235 818.067 557.734C818.067 555.233 818.328 554.21 818.646 555.46C818.965 556.71 818.965 558.758 818.646 560.008ZM615.079 587.172C638.42 594.105 657.662 599.87 657.84 599.983C658.218 600.223 650.44 710.246 650.012 710.712C649.851 710.888 640.929 708.163 630.182 704.659C619.437 701.155 593.257 692.62 572.006 685.691C550.755 678.764 532.885 672.631 532.296 672.066C531.268 671.08 533.427 579.677 534.74 568.618L535.374 563.262L554.007 568.914C564.254 572.023 591.737 580.239 615.079 587.172ZM817.379 570.402C817.061 571.651 816.8 570.629 816.8 568.128C816.8 565.627 817.061 564.604 817.379 565.854C817.698 567.104 817.698 569.152 817.379 570.402ZM140.83 570.421C142.971 571.832 148.026 636.863 146.174 639.154C143.907 641.954 143.084 641.191 142.785 636.013C142.385 629.053 138.939 585.776 138.079 576.898C137.373 569.613 137.861 568.466 140.83 570.421ZM155.308 575.202C158.392 576.234 177.083 582.426 196.842 588.961L232.767 600.844L228.713 605.136L224.658 609.426L226.694 645.491C227.814 665.328 228.528 681.765 228.281 682.017C228.034 682.271 213.632 677.446 196.276 671.297C178.919 665.148 162.722 659.529 160.284 658.81C157.845 658.092 155.656 657.317 155.419 657.09C154.943 656.633 148.924 582.611 148.899 576.898C148.89 574.933 149.066 573.325 149.29 573.325C149.514 573.325 152.222 574.169 155.308 575.202ZM816.104 578.766C815.7 579.802 815.4 579.494 815.339 577.98C815.285 576.611 815.584 575.844 816.004 576.275C816.425 576.707 816.471 577.828 816.104 578.766ZM306.54 605.367C334.446 614.415 357.537 622.037 357.853 622.306C358.17 622.575 353.831 627.51 348.212 633.273L337.993 643.753L286.194 626.521C257.704 617.044 234.219 609.155 234.005 608.99C233.304 608.449 253.955 588.921 255.233 588.917C255.547 588.917 278.636 596.319 306.54 605.367ZM527.667 610.184C527.667 612.294 520.59 621.756 505.18 640.249C485.318 664.086 482.647 666.834 482.293 663.794C481.971 661.037 484.231 657.575 493.648 646.396C513.729 622.561 526.979 607.105 527.33 607.105C527.515 607.105 527.667 608.49 527.667 610.184ZM283.648 631.918C311.602 641.277 334.844 649.316 335.297 649.783C335.75 650.248 336.53 672.933 337.03 700.192L337.94 749.755L303.903 737.496C285.183 730.753 262.485 722.611 253.465 719.402C244.445 716.193 236.898 713.397 236.694 713.189C236.316 712.799 231.248 624.898 231.234 618.474C231.23 616.508 231.585 614.901 232.025 614.901C232.463 614.901 255.693 622.559 283.648 631.918ZM419.986 642.412C446.114 650.912 469.435 658.506 471.811 659.289L476.129 660.712L475.34 710.733C474.907 738.246 474.357 760.954 474.119 761.198C473.882 761.443 459.182 756.5 441.452 750.216C423.723 743.931 399.954 735.616 388.631 731.738L368.045 724.688V704.434C368.045 693.295 367.668 670.862 367.205 654.582L366.365 624.986L369.422 625.973C371.103 626.515 393.857 633.914 419.986 642.412ZM525.909 650.674L525.028 676.054L529.198 677.8C531.491 678.76 550.253 685.016 570.891 691.701C608.171 703.777 608.404 703.876 606.606 706.689C605.139 708.984 604.15 709.323 601.387 708.48C599.511 707.909 574.888 699.81 546.669 690.483C518.451 681.157 493.761 673.126 491.803 672.637C489.446 672.048 488.476 671.128 488.929 669.915C489.725 667.788 525.159 625.295 526.135 625.295C526.495 625.295 526.394 636.715 525.909 650.674ZM106.237 638.972L141.68 651.348L144.424 648.703C147.965 645.293 148.882 646.392 148.882 654.048C148.882 659.123 149.395 660.565 151.641 661.797C154.371 663.295 154.354 663.352 150.058 667.006C147.67 669.036 145.145 670.72 144.448 670.746C143.751 670.772 134.345 667.607 123.545 663.712C112.746 659.818 92.9044 652.711 79.4531 647.921C66.0018 643.131 55.4553 638.757 56.0165 638.204C58.1765 636.073 69.7326 626.685 70.2495 626.641C70.5484 626.615 86.7424 632.164 106.237 638.972ZM361.617 676.575C361.719 700.134 362.099 720.62 362.461 722.1C362.944 724.074 361.249 726.896 356.105 732.685C352.248 737.026 348.006 741.951 346.682 743.63C344.292 746.656 344.268 746.469 343.5 719.443C343.076 704.463 342.435 682.477 342.075 670.586L341.423 648.966L350.553 638.939C358.253 630.484 359.82 629.291 360.557 631.326C361.038 632.654 361.516 653.015 361.617 676.575ZM125.414 670.679L143.118 676.822L146.691 721.375C148.655 745.88 150.069 766.129 149.831 766.372C149.594 766.616 129.758 759.35 105.751 750.226L62.1037 733.638L58.1233 696.032C55.9342 675.348 53.7932 655.372 53.365 651.642L52.5885 644.857L80.1498 654.697C95.3075 660.108 115.677 667.301 125.414 670.679ZM734.481 654.533L749.369 659.221L748.557 668.567C748.111 673.709 747.636 678.058 747.503 678.235C747.368 678.412 744.74 677.711 741.661 676.679C738.582 675.647 729.491 672.733 721.458 670.204L706.855 665.608L707.249 660.068C707.465 657.021 707.927 652.67 708.274 650.399L708.906 646.268L714.249 648.056C717.188 649.04 726.292 651.954 734.481 654.533ZM701.462 659.204C700.502 667.389 699.975 668.335 681.037 695.857C670.346 711.394 661.402 723.906 661.163 723.661C660.923 723.415 661.17 719.441 661.711 714.828C662.673 706.635 663.145 705.799 682.277 678.329C693.046 662.865 701.99 650.345 702.152 650.508C702.316 650.67 702.004 654.584 701.462 659.204ZM758.319 663.947C754.95 669.982 754.47 670.224 754.45 665.896C754.435 662.509 754.941 661.674 757.009 661.674C759.103 661.674 759.349 662.1 758.319 663.947ZM196.833 677.921C213.801 683.898 228.019 689.133 228.429 689.554C228.84 689.975 229.495 696.297 229.885 703.605L230.593 716.892L234.695 718.743C239.606 720.959 239.725 721.527 240.711 747.424C241.107 757.785 241.762 769.88 242.168 774.301L242.907 782.341L231.049 777.82C224.528 775.333 208.075 769.158 194.488 764.098C180.901 759.039 169.41 754.532 168.95 754.085C168.492 753.637 166.908 736.9 165.432 716.892C163.955 696.883 162.394 677.055 161.962 672.829C161.229 665.657 161.336 665.209 163.58 666.099C164.903 666.624 179.866 671.943 196.833 677.921ZM159.63 718.84L162.66 758.467L159.665 761.59L156.671 764.712L155.959 760.29C155.567 757.858 153.832 738.05 152.102 716.272L148.959 676.675L152.404 672.971L155.85 669.268L156.225 674.24C156.431 676.976 157.963 697.046 159.63 718.84ZM732.711 680.077C747.096 684.483 759.365 688.533 759.977 689.079C760.755 689.772 729.875 740.729 720.881 753.591C720.283 754.446 663.078 734.738 663.121 733.691C663.197 731.816 704.251 672.096 705.474 672.081C706.069 672.074 718.326 675.672 732.711 680.077ZM544.521 695.992C575.74 706.255 601.531 714.906 601.836 715.219C602.703 716.108 597.019 815.502 596.033 816.689C595.321 817.548 485.249 779.711 483.632 778.052C483.367 777.781 483.562 754.992 484.065 727.412C484.703 692.389 485.399 677.275 486.37 677.298C487.136 677.318 513.303 685.729 544.521 695.992ZM757.528 741.577C755.172 763.729 753.222 782.439 753.196 783.153C753.17 783.868 747.481 793.807 740.555 805.24C733.628 816.674 725.552 830.263 722.607 835.439C719.661 840.614 717.128 844.706 716.976 844.533C716.824 844.359 718.503 824.924 720.708 801.343L724.716 758.467L743.017 729.627C753.083 713.764 761.43 700.902 761.566 701.043C761.703 701.185 759.885 719.425 757.528 741.577ZM633.77 712.206L650.56 717.624L649.87 727.002C648.537 745.124 648.258 746.023 640.559 757.028C636.506 762.823 630.999 770.778 628.321 774.708C625.643 778.638 618.946 788.471 613.439 796.557C607.931 804.645 603.298 811.077 603.143 810.849C602.987 810.623 603.316 802.837 603.875 793.547C604.433 784.258 605.698 762.538 606.685 745.281C608.357 716.061 608.681 713.625 611.41 709.842C613.021 707.606 614.933 706.005 615.659 706.285C616.385 706.563 624.534 709.227 633.77 712.206ZM302.626 743.433C322.734 750.63 340.217 756.519 341.475 756.519C342.734 756.519 344.018 755.788 344.33 754.895C344.64 754.002 345.183 753.563 345.534 753.92C345.883 754.277 346.566 774.872 347.049 799.685L347.927 844.8L343.735 843.048C341.428 842.086 319.874 833.843 295.835 824.732C271.797 815.62 251.494 807.508 250.717 806.703C249.835 805.79 248.744 792.548 247.812 771.46C246.991 752.881 245.984 734.307 245.575 730.185L244.83 722.691L255.447 726.519C261.286 728.625 282.517 736.236 302.626 743.433ZM375.816 733.337C378.509 734.165 380.706 735.189 380.696 735.611C380.686 736.035 376.622 741.058 371.663 746.774L362.647 757.168L363.391 792.897L364.134 828.627L359.26 834.433L354.384 840.239L353.645 829.236C353.238 823.184 352.686 802.811 352.417 783.96L351.928 749.688L360.14 740.76C364.656 735.85 368.929 731.833 369.635 731.833C370.341 731.833 373.123 732.51 375.816 733.337ZM432.854 753.476C456.782 761.807 476.607 768.832 476.908 769.089C477.211 769.345 476.783 770.246 475.958 771.092C475.061 772.012 474.46 776.693 474.46 782.763C474.46 788.72 473.933 792.897 473.18 792.897C471.979 792.897 373.014 757.796 372.018 757.016C370.913 756.152 386.412 738.329 388.268 738.329C388.862 738.329 408.925 745.145 432.854 753.476ZM688.403 749.522C704.861 754.965 718.407 759.495 718.506 759.591C718.605 759.687 716.774 779.938 714.437 804.591C712.101 829.244 710.168 850.424 710.14 851.657C710.099 853.548 704.899 852.073 676.952 842.247C658.725 835.838 643.69 830.444 643.541 830.26C643.391 830.077 644.411 813.263 645.808 792.897C648.196 758.084 648.528 755.622 651.35 751.733C653 749.458 654.351 745.804 654.351 743.613C654.351 740.796 654.956 739.628 656.416 739.628C657.551 739.628 671.945 744.081 688.403 749.522ZM386.468 768.748C395.496 771.902 414.57 778.682 428.853 783.818C443.137 788.953 459.045 794.641 464.205 796.459L473.586 799.764L472.841 845.182C472.431 870.161 471.817 890.885 471.476 891.236C471.135 891.586 459.838 887.676 446.371 882.551C432.904 877.424 410.429 868.864 396.425 863.528L370.963 853.828L370.143 837.329C369.33 820.987 368.97 763.015 369.682 763.015C369.885 763.015 377.439 765.595 386.468 768.748ZM639.223 803.529L636.668 839.181L615.57 871.581C603.966 889.403 594.12 904.392 593.691 904.893C593.261 905.393 593.864 889.315 595.032 869.163C596.199 849.012 597.197 830.917 597.249 828.952C597.306 826.781 598.047 825.379 599.138 825.379C600.125 825.379 609.916 812.229 620.897 796.157C631.877 780.086 641.068 767.149 641.32 767.408C641.572 767.666 640.628 783.921 639.223 803.529ZM537.168 803.65C565.735 813.687 589.625 822.363 590.258 822.932C591.602 824.144 587.229 912.428 585.824 912.428C585.318 912.428 568.463 906.25 548.368 898.699C528.272 891.148 504.705 882.323 495.996 879.091C487.286 875.857 479.744 872.809 479.234 872.317C478.725 871.824 478.674 851.698 479.123 827.591C479.934 783.93 479.948 783.764 482.583 784.581C484.037 785.033 508.601 793.613 537.168 803.65ZM482.061 881.137C482.061 881.639 481.223 883.183 480.201 884.571C478.44 886.958 478.339 886.869 478.301 882.911C478.27 879.718 478.71 878.906 480.16 879.477C481.206 879.889 482.061 880.636 482.061 881.137Z" fill="url(#paint0_linear_110_342)"/>
<defs>
<linearGradient id="paint0_linear_110_342" x1="445" y1="-30.7769" x2="445" y2="920.224" gradientUnits="userSpaceOnUse">
<stop stop-color="#010313"/>
<stop offset="0.462365" stop-color="#00C2CB"/>
<stop offset="0.729634" stop-color="#0497B7"/>
<stop offset="1" stop-color="#0477E1"/>
</linearGradient>
</defs>
</svg>
