<svg width="250" height="267" viewBox="0 0 250 267" fill="none" xmlns="http://www.w3.org/2000/svg">
<path fill-rule="evenodd" clip-rule="evenodd" d="M88.4376 3.42234C85.0126 5.29727 78.0869 9.07996 73.047 11.8282L63.8837 16.8252L63.8823 19.0755L63.8813 21.3257L55.7133 25.9215L47.5458 30.5173L36.1866 28.1448L24.827 25.7723L18.2893 29.1625C4.72381 36.1961 1.87164 37.754 1.69336 38.2271C1.53358 38.6521 3.82279 62.344 4.88003 71.2073L5.26079 74.3976L6.54862 74.7459C7.25713 74.9378 10.5036 75.7753 13.7625 76.6074L19.6882 78.1208L19.8348 79.407C20.0024 80.8778 20.6579 80.3726 9.0823 87.6968C2.29191 91.9938 0.230802 93.3636 0.0123081 93.7258C-0.105835 93.922 0.60089 100.638 3.24915 124.478C3.51747 126.896 3.4712 126.857 7.48096 128.033C9.04672 128.492 10.4399 128.965 10.5772 129.084C10.7142 129.202 11.2388 133.32 11.7427 138.236C12.2462 143.151 12.7209 147.625 12.7971 148.178C12.9163 149.044 12.6412 149.416 10.8303 150.845C8.81363 152.436 8.73285 152.562 8.91114 153.851C9.01327 154.592 9.7264 161.068 10.495 168.243C11.264 175.418 11.9829 181.438 12.0928 181.62C12.2028 181.802 13.3718 182.313 14.6909 182.754C16.0097 183.196 17.21 183.67 17.358 183.806C17.5061 183.943 16.5855 184.939 15.3119 186.019C14.0386 187.098 12.9967 188.116 12.9967 188.28C12.9967 188.444 13.6451 194.61 14.4375 201.981C15.3183 210.176 16.0442 215.538 16.3058 215.778C16.5406 215.994 22.7086 218.441 30.0118 221.214L43.2909 226.258L45.3135 224.222L47.3366 222.187L52.1406 224.014C54.7828 225.02 57.9855 226.226 59.2576 226.696C60.5298 227.165 63.0386 228.093 64.8328 228.759L68.0949 229.968L68.3913 233.224L68.6878 236.479L83.2778 242.062C91.3023 245.132 98.108 247.652 98.4015 247.662C98.6951 247.673 99.6908 246.816 100.614 245.759L102.293 243.837L102.305 246.675C102.312 248.61 102.458 249.564 102.761 249.671C103.861 250.059 119.544 256.001 125.938 258.452C129.829 259.943 133.203 261.164 133.434 261.164C133.665 261.164 134.629 260.113 135.576 258.828L137.297 256.493L138.577 256.967C139.282 257.228 143.221 258.705 147.331 260.25C161.143 265.44 165.388 267 165.699 267C166.07 267 180.282 245.241 180.52 244.307C180.612 243.948 180.735 243.655 180.793 243.655C180.852 243.655 185.099 245.132 190.231 246.938C195.364 248.743 199.822 250.22 200.139 250.22C200.509 250.22 202.926 246.547 206.919 239.916L213.124 229.611L214.605 215.567C215.419 207.843 215.956 201.351 215.797 201.14C215.639 200.93 214.708 200.547 213.73 200.29L211.952 199.823L213.448 197.504C214.271 196.228 215.204 195.113 215.521 195.026C215.839 194.938 218.888 190.538 222.297 185.246C231.807 170.48 230.904 172.481 231.822 164.141C232.252 160.233 232.648 156.99 232.701 156.935C232.755 156.88 233.307 157.017 233.928 157.239C234.55 157.461 235.256 157.563 235.499 157.465C235.741 157.368 238.313 153.681 241.215 149.272L246.491 141.255L248.402 126.34C249.968 114.115 250.228 111.357 249.841 111.052C249.582 110.847 245.973 109.867 241.821 108.874L234.272 107.068L234.459 105.781C234.562 105.073 234.918 101.785 235.249 98.4751C235.765 93.3293 235.98 92.251 236.732 91.0414C237.534 89.7505 237.762 88.3129 239.333 74.6267C240.28 66.3766 240.945 59.5196 240.81 59.3887C240.675 59.2577 240.245 59.0906 239.853 59.0173C239.337 58.9203 239.165 58.635 239.227 57.9784C239.274 57.4809 239.955 51.2677 240.74 44.1722C242.384 29.3008 242.385 29.2818 241.544 29.0345C241.201 28.9342 234.155 27.6545 225.886 26.1914L210.851 23.5308V22.5587C210.851 22.0239 210.651 21.5081 210.406 21.4129C210.162 21.3177 207.668 20.8548 204.865 20.3843L199.769 19.5292L199.961 18.4214C200.066 17.8119 200.261 15.2293 200.393 12.6825L200.633 8.05167L199.782 7.84922C199.313 7.73833 193.486 6.74396 186.831 5.64016C180.177 4.53636 173.185 3.37164 171.294 3.05173L167.856 2.47029L166.594 3.34902L165.332 4.22776L158.333 3.04152L151.334 1.85492L148.084 3.95418L144.833 6.05345L137.008 4.68227C132.704 3.92792 128.731 3.3016 128.178 3.29029C127.612 3.27862 126.125 3.90712 124.776 4.72859C123.459 5.53109 122.269 6.18768 122.134 6.18768C121.999 6.18768 121.888 5.87033 121.888 5.48258C121.888 5.09482 121.607 4.69284 121.265 4.58888C120.393 4.32442 95.6508 -0.0163683 95.1085 4.64356e-05C94.8647 0.00734189 91.8627 1.54741 88.4376 3.42234ZM106.358 3.635C112.062 4.63849 117.199 5.56137 117.775 5.68576L118.822 5.91155L117.867 6.42442C117.032 6.87309 116.395 6.8461 112.754 6.20775L108.595 5.47856L107.419 6.22343C106.773 6.63343 106.12 6.89388 105.97 6.80269C105.82 6.7115 102.633 6.1016 98.8884 5.44719L92.0805 4.25767L89.0034 5.97684C87.311 6.9227 85.6531 7.64239 85.3186 7.57637C84.6229 7.43885 94.3049 1.89176 95.327 1.84251C95.691 1.825 100.655 2.63152 106.358 3.635ZM157.247 4.55788C160.209 5.06601 162.768 5.52234 162.933 5.57231C163.098 5.62228 160.889 7.26413 158.024 9.2204C155.16 11.177 152.735 12.9943 152.635 13.2595C152.444 13.772 151.231 13.6261 143.116 12.1138L139.612 11.4608L145.607 7.55449C148.904 5.40598 151.66 3.64522 151.731 3.64121C151.802 3.63756 154.284 4.04975 157.247 4.55788ZM183.049 6.74068C190.805 8.04766 197.284 9.15985 197.446 9.21238C197.717 9.29956 188.513 16.7723 186.795 17.8597C186.156 18.2642 184.03 17.9775 172.205 15.8903C164.592 14.5464 157.748 13.3321 156.996 13.1913L155.629 12.936L161.779 8.6499C165.162 6.29237 168.159 4.36382 168.439 4.36382C168.719 4.36382 175.293 5.43333 183.049 6.74068ZM135.766 6.22234C139.387 6.84573 142.397 7.40164 142.455 7.45782C142.513 7.51363 141.484 8.25704 140.167 9.10915L137.774 10.6591L130.987 9.49508C127.255 8.8549 123.899 8.20998 123.53 8.06188C122.979 7.84083 123.298 7.5264 125.309 6.30769C126.657 5.49097 128.08 4.88253 128.471 4.95585C128.863 5.02917 132.145 5.59894 135.766 6.22234ZM105.81 8.3858C112.598 9.59502 118.441 10.7054 118.794 10.8535C119.288 11.0603 117.741 12.1707 112.137 15.6324L104.836 20.1417L90.7646 17.4613C78.6549 15.1549 76.8044 14.7193 77.4944 14.3374C77.935 14.0934 81.3384 12.1718 85.057 10.0678C88.7757 7.96376 92.1894 6.22963 92.6431 6.21468C93.0968 6.20009 99.0218 7.17695 105.81 8.3858ZM120.464 7.07809C120.464 7.16673 120.304 7.34036 120.109 7.46439C119.913 7.58841 119.753 7.51582 119.753 7.30352C119.753 7.09122 119.913 6.91723 120.109 6.91723C120.304 6.91723 120.464 6.98945 120.464 7.07809ZM83.0703 9.24229C82.9888 9.31743 80.8003 10.5635 78.2068 12.0116L73.4918 14.6449V16.4746C73.4918 18.1869 73.4405 18.2916 72.6911 18.1084C72.2506 18.0008 70.8802 17.7138 69.6457 17.4701C68.4109 17.2268 67.5302 16.9029 67.6885 16.7508C68.5465 15.9253 81.6319 9.10623 82.3586 9.10586C82.8315 9.10586 83.1518 9.16714 83.0703 9.24229ZM128.916 10.8104C132.097 11.3572 134.697 11.8949 134.695 12.0054C134.694 12.116 133.693 12.8561 132.471 13.6502C131.25 14.4443 129.21 15.7728 127.937 16.6023C126.665 17.4322 125.033 18.4729 124.309 18.915L122.994 19.7189L122.886 14.7766C122.826 12.0583 122.858 9.8303 122.955 9.82556C123.053 9.82082 125.736 10.264 128.916 10.8104ZM198.243 19.6179C197.933 23.7672 197.508 29.7064 197.3 32.8161C197.091 35.9258 196.852 38.8286 196.768 39.2671C196.684 39.7055 195.909 40.6576 195.045 41.3828L193.476 42.7014L190.088 42.0809C188.224 41.7395 186.531 41.3536 186.325 41.223C186.065 41.0585 186.159 37.7084 186.633 30.2995C187.008 24.4219 187.367 19.5723 187.429 19.5219C187.492 19.472 189.909 17.5777 192.801 15.3125C195.693 13.0472 198.175 11.0114 198.316 10.7882C198.821 9.99299 198.803 12.1466 198.243 19.6179ZM121.035 30.1645C120.911 30.2908 109.979 28.2736 106.675 27.5145C105.927 27.3427 105.874 27.1398 105.874 24.4449V21.5596L113.436 16.8124L120.998 12.0649L121.094 21.0357C121.146 25.9697 121.12 30.0777 121.035 30.1645ZM136.476 14.851L136.474 16.5837L129.804 21.0551L123.133 25.5265L123.022 23.8033C122.923 22.2745 123.022 21.9966 123.901 21.3381C124.813 20.6553 136.187 13.1884 136.389 13.1399C136.438 13.1278 136.477 13.8982 136.476 14.851ZM145.641 14.2926L152.491 15.4828V16.8471C152.491 17.9939 152.351 18.2474 151.611 18.4378C150.901 18.6202 144.333 17.6178 139.236 16.5487C138.346 16.3619 138.257 16.197 138.257 14.731C138.257 13.8439 138.377 13.1147 138.524 13.11C138.671 13.1056 141.874 13.6378 145.641 14.2926ZM169.812 17.148C177.802 18.5615 184.621 19.8039 184.963 19.9082C185.434 20.052 185.586 20.4908 185.586 21.715C185.586 22.6043 185.482 23.332 185.356 23.332C185.23 23.332 178.352 22.1009 170.071 20.5962C161.79 19.0915 154.848 17.8604 154.643 17.8604C154.438 17.8604 154.271 17.1217 154.271 16.2189C154.271 15.0422 154.414 14.5774 154.777 14.5774C155.056 14.5774 161.821 15.7341 169.812 17.148ZM86.6584 18.4127C92.4321 19.5135 98.7172 20.6947 100.626 21.0379L104.095 21.6617V24.6744V27.687L102.227 28.9039C101.2 29.5732 99.378 30.738 98.1788 31.4923L95.9992 32.8639L85.9068 30.808C80.3559 29.6776 75.7671 28.7044 75.7095 28.6453C75.6518 28.5862 75.5045 25.807 75.3821 22.4697C75.196 17.3888 75.2412 16.402 75.6604 16.4061C75.9354 16.409 80.8846 17.3118 86.6584 18.4127ZM148.129 19.9516L149.283 20.2314L145.994 22.5299C144.185 23.7938 141.304 25.823 139.592 27.0392L136.479 29.2501L130.402 28.0689C127.061 27.4193 124.458 26.7612 124.619 26.6066C124.781 26.4519 127.744 24.4431 131.204 22.1428L137.497 17.9604L142.236 18.8161C144.843 19.2867 147.495 19.7977 148.129 19.9516ZM69.7044 19.1849C71.494 19.5121 73.0648 19.8812 73.1954 20.0056C73.326 20.1296 73.5146 20.7797 73.6142 21.4498C73.7786 22.5547 73.7234 22.6502 73.021 22.4755C72.595 22.3694 70.7652 21.9944 68.9547 21.6424L65.663 21.0018V19.7959C65.663 18.3926 65.5036 18.4167 69.7044 19.1849ZM158.572 20.2048C161.197 20.6918 167.108 21.7682 171.707 22.5966C176.307 23.425 180.983 24.2986 182.098 24.5379L184.127 24.9735L177.76 30.0803C173.16 33.77 171.165 35.1605 170.571 35.0908C168.801 34.8829 140.89 29.4908 140.318 29.246C139.859 29.0494 141.38 27.8088 146.546 24.167C150.305 21.5169 153.475 19.3417 153.59 19.3337C153.705 19.3261 155.947 19.7178 158.572 20.2048ZM204.711 22.0834C206.521 22.4102 207.924 22.806 207.829 22.9628C207.734 23.1201 205.718 24.933 203.347 26.9917L199.038 30.735L199.261 27.8544C199.776 21.2181 199.795 21.1258 200.646 21.3159C201.072 21.4111 202.901 21.7565 204.711 22.0834ZM69.3995 23.5038C74.1857 24.388 73.8476 24.1418 73.8476 26.7463V29.0166L71.4456 30.4334C70.1244 31.2125 67.9056 32.5472 66.5146 33.3993L63.9855 34.9489L59.9811 34.0796C57.6374 33.5708 55.808 32.978 55.571 32.6512C55.3479 32.3437 54.2045 31.9034 53.0302 31.6729C51.8559 31.4427 50.7866 31.1542 50.6538 31.032C50.2645 30.6734 64.693 22.6557 65.4851 22.7907C65.8765 22.8574 67.638 23.1781 69.3995 23.5038ZM216.367 26.2348C219.694 26.8247 226.154 27.9723 230.722 28.785C235.29 29.5977 239.211 30.2627 239.436 30.2627C239.66 30.2627 237.708 32.456 235.098 35.1364L230.353 40.0105L227.808 39.5337C213.21 36.7994 203.23 34.9153 201.702 34.6056L199.848 34.2296L204.905 29.7184C207.686 27.2372 210.042 25.1971 210.14 25.1847C210.237 25.1723 213.04 25.6446 216.367 26.2348ZM184.758 33.9684L184.306 41.4634L183.078 42.5657C180.301 45.0578 171.583 52.505 171.541 52.4215C171.516 52.3719 171.666 48.8456 171.876 44.5851C172.169 38.6225 172.378 36.7173 172.783 36.311C173.594 35.4971 185.042 26.3031 185.131 26.3935C185.175 26.4373 185.007 29.8461 184.758 33.9684ZM36.1692 29.8738C48.7585 32.4798 51.8826 33.1597 52.0481 33.3289C52.1171 33.3997 47.8664 35.9414 42.6019 38.9771L33.0305 44.4968L18.9014 41.3153L4.77256 38.1341L7.37207 36.7917C8.80189 36.0531 13.2547 33.7105 17.2669 31.5861C21.2792 29.4613 24.821 27.7198 25.1377 27.7162C25.4541 27.7122 30.4182 28.6832 36.1692 29.8738ZM129.895 29.713C133.418 30.4137 136.34 30.9878 136.389 30.9893C136.438 30.9911 136.478 31.4059 136.478 31.9111C136.478 32.6738 136.342 32.7997 135.677 32.6508C135.237 32.5527 132.314 31.9698 129.183 31.3559C126.051 30.7423 123.301 30.1729 123.072 30.0912C122.658 29.9435 122.832 28.4384 123.264 28.4392C123.388 28.4392 126.372 29.0126 129.895 29.713ZM118.444 31.5711C125.133 32.8927 131.616 34.1497 132.851 34.3642C134.651 34.6775 135.003 34.8435 134.63 35.2035C134.374 35.4505 130.889 37.9995 126.886 40.8681L119.607 46.0839L115.499 45.2384C109.449 43.9934 89.3792 39.7424 89.0063 39.6267C88.5077 39.4724 104.878 29.1683 105.622 29.1683C105.984 29.1683 111.754 30.2495 118.444 31.5711ZM85.2253 32.4075L93.9338 34.1759L91.4528 35.7908C90.0881 36.679 88.2003 37.8915 87.258 38.485L85.5445 39.5644L85.6566 43.1213C85.7182 45.0775 85.6887 46.6771 85.5908 46.676C85.493 46.6749 80.8491 45.686 75.2711 44.4782C69.6931 43.2708 63.5279 41.9416 61.5707 41.5246C59.6135 41.1077 57.9613 40.7174 57.899 40.6572C57.8367 40.5974 59.5982 39.4608 61.8134 38.1319C64.0286 36.803 67.8426 34.5028 70.2891 33.0203C73.4907 31.0805 74.9867 30.3692 75.6269 30.4826C76.1162 30.5691 80.4356 31.4354 85.2253 32.4075ZM154.974 33.9118C163.484 35.5406 170.483 36.9106 170.528 36.957C170.573 37.0033 170.425 40.933 170.198 45.6896C169.846 53.0898 169.706 54.3351 169.234 54.3205C168.931 54.3114 161.797 52.8632 153.381 51.1032L138.079 47.9023L137.962 45.1924C137.897 43.702 137.955 39.8099 138.089 36.5429C138.306 31.2767 138.4 30.6231 138.918 30.777C139.24 30.8726 146.465 32.2831 154.974 33.9118ZM238.759 46.8361L237.164 61.0119L234.992 63.5234C233.797 64.9047 232.789 65.9885 232.75 65.9316C232.712 65.8747 233.206 61.0677 233.847 55.2496C234.487 49.4315 235.02 44.1324 235.03 43.4744C235.05 42.2049 234.948 42.1273 232.768 41.7541L231.377 41.5155L235.776 36.996C238.195 34.5101 240.215 32.5177 240.264 32.568C240.313 32.6187 239.636 39.0391 238.759 46.8361ZM54.1963 41.7526C54.0248 41.9533 49.609 44.6748 44.3833 47.8006C33.4988 54.3107 34.5874 54.2162 34.2369 48.6837L34.0522 45.7655L44.0748 40.0437L54.0978 34.3215L54.3031 37.855C54.4159 39.7982 54.3679 41.5524 54.1963 41.7526ZM56.8556 35.2462C56.6112 35.3476 56.2108 35.3476 55.966 35.2462C55.7215 35.1451 55.9215 35.0623 56.4108 35.0623C56.9001 35.0623 57.1005 35.1451 56.8556 35.2462ZM61.0369 36.1337C61.6291 36.486 59.6619 36.1738 58.1901 35.6817C57.6068 35.4869 57.8517 35.4588 58.9018 35.6004C59.7825 35.7193 60.7433 35.9593 61.0369 36.1337ZM200.267 36.099C200.481 36.099 200.28 36.5094 199.82 37.011C198.726 38.2045 198.485 38.1614 198.68 36.8067C198.793 36.0137 198.99 35.7496 199.359 35.8948C199.644 36.0071 200.053 36.099 200.267 36.099ZM136.288 42.3206L136.027 48.2259L128.435 54.0174C124.259 57.2029 120.757 59.8092 120.653 59.8092C120.55 59.8092 120.464 57.0439 120.464 53.6643V47.519L122.866 45.7932C134.271 37.6001 136.31 36.1694 136.421 36.2843C136.492 36.3562 136.432 39.0727 136.288 42.3206ZM58.336 37.518C58.9399 37.7606 58.8755 37.8802 57.7602 38.5864C56.1446 39.6103 56.055 39.5946 56.055 38.2877C56.055 37.3885 56.1977 37.1981 56.8556 37.2189C57.2962 37.2331 57.9623 37.3677 58.336 37.518ZM205.869 38.4248C209.189 39.0121 229.984 42.9148 231.626 43.2588C232.629 43.4685 232.54 43.5867 227.406 48.858C222.206 54.1976 222.151 54.2406 220.927 53.9576C220.247 53.8003 219.648 53.6165 219.596 53.5486C219.544 53.4812 219.611 52.3588 219.745 51.0547C219.88 49.7506 219.926 48.4995 219.848 48.274C219.77 48.0486 217.113 47.3581 213.944 46.7394C210.775 46.1208 205.42 45.0753 202.044 44.4162C198.668 43.7571 195.905 43.1121 195.905 42.9834C195.905 42.4446 201.821 37.6015 202.311 37.7394C202.604 37.8218 204.206 38.1304 205.869 38.4248ZM17.2847 42.6616C34.1582 46.4531 32.3683 45.876 32.5046 47.5689C33.2761 57.1573 34.9493 80.0786 34.8835 80.1581C34.7543 80.3142 7.16176 73.2391 6.8938 72.9812C6.70556 72.8002 3.38509 41.7559 3.38793 40.2027C3.38829 39.9521 3.59682 39.7467 3.85126 39.7467C4.10569 39.7467 10.1506 41.0585 17.2847 42.6616ZM95.9899 42.8674C100.35 43.7811 107.04 45.1808 110.856 45.9774C114.673 46.7741 118.076 47.5149 118.418 47.6236C118.99 47.8046 119.041 48.5764 119.04 57.0067L119.04 66.1928L117.295 67.4122L115.549 68.6313L112.936 68.0651C108.341 67.07 87.9466 62.3462 87.8804 62.2616C87.8451 62.2167 87.7032 57.4612 87.5644 51.6931C87.3896 44.4188 87.4274 41.2058 87.6875 41.2058C87.8939 41.2058 91.63 41.9536 95.9899 42.8674ZM59.9694 44.0864C67.4704 45.6893 84.0098 49.2702 84.3076 49.3563C84.4827 49.407 83.602 50.1107 82.3504 50.9205C81.0989 51.7303 76.9304 54.4792 73.0868 57.0289L66.0989 61.6648L54.9383 59.0611C48.8002 57.629 42.2528 56.1035 40.3889 55.6713C38.5249 55.2386 36.9236 54.7681 36.8303 54.6255C36.5752 54.2348 55.4386 43.0352 56.055 43.2117C56.3485 43.2956 58.11 43.6892 59.9694 44.0864ZM201.238 45.9636C209.559 47.5773 216.601 48.981 216.887 49.0824C217.243 49.2086 216.283 50.3726 213.862 52.7491C211.913 54.6638 209.273 57.281 207.997 58.565L205.677 60.8995L189.849 57.621C181.143 55.8175 173.645 54.2523 173.187 54.1421C172.384 53.9495 172.404 53.9028 173.721 52.8705C174.473 52.2811 177.33 49.8287 180.07 47.4205C182.81 45.0126 185.29 43.0396 185.581 43.0363C185.872 43.0326 192.918 44.3502 201.238 45.9636ZM231.631 60.3283L230.036 75.2409L225.374 80.6655C222.811 83.6489 220.647 86.0222 220.567 85.9397C220.486 85.8573 221.083 79.0003 221.892 70.7021L223.364 55.6144L228.228 50.5075C230.903 47.6988 233.122 45.404 233.159 45.408C233.195 45.412 232.507 52.126 231.631 60.3283ZM153.093 52.7673C166.251 55.4969 168.402 56.032 168.039 56.4836C167.806 56.774 166.709 57.764 165.603 58.6839C164.496 59.6039 161.501 62.1876 158.948 64.4254C154.333 68.4711 154.298 68.4926 152.954 68.1866C152.21 68.0177 145.196 66.4678 137.367 64.7431C129.539 63.0181 122.848 61.4894 122.5 61.3453C121.982 61.1315 122.267 60.785 124.065 59.4434C125.273 58.5413 128.678 55.9565 131.63 53.6993C134.583 51.4425 137.161 49.592 137.361 49.5872C137.56 49.5825 144.64 51.0135 153.093 52.7673ZM86.1787 61.8808C86.1442 61.9169 85.3378 61.7765 84.3873 61.5685L82.6593 61.1906L75.1398 66.3726L67.6202 71.5546L67.3348 67.4465C67.1124 64.2449 67.1516 63.237 67.5127 62.8777C67.7675 62.6242 71.9794 59.7644 76.8724 56.5223L85.7687 50.6279L86.0054 56.2217C86.1356 59.2982 86.2136 61.845 86.1787 61.8808ZM217.649 55.6793C217.437 58.051 216.787 65.0466 216.204 71.2248L215.146 82.4576L211.165 86.91C208.976 89.3587 206.881 91.6904 206.509 92.0916C205.843 92.8102 205.837 92.765 206.077 89.1223C206.313 85.5574 206.294 85.4148 205.561 85.1762C205.01 84.9971 204.845 84.7097 204.963 84.133C205.052 83.6953 205.478 78.6589 205.91 72.941L206.693 62.545L212.22 56.8075C215.26 53.6522 217.811 51.1371 217.891 51.2185C217.97 51.3002 217.862 53.3075 217.649 55.6793ZM204.95 64.5465C204.82 65.6525 204.671 66.6068 204.621 66.667C204.57 66.7271 197.985 65.387 189.986 63.6893C181.988 61.9913 174.523 60.4118 173.398 60.1798L171.352 59.7574V57.6392V55.5206L188.27 59.0283L205.188 62.5355L204.95 64.5465ZM221.488 56.0003C221.629 56.1444 218.69 87.6257 218.518 87.8132C218.384 87.9602 214.661 87.123 214.121 86.8243C213.783 86.6368 214.086 86.0729 215.225 84.7692L216.795 82.9723L217.936 70.3876C219.381 54.4631 219.238 55.3134 220.414 55.6158C220.928 55.7479 221.411 55.9211 221.488 56.0003ZM50.1115 59.6662C58.3712 61.5941 65.2346 63.2764 65.3634 63.4052C65.4922 63.5339 65.6523 65.685 65.7192 68.1855L65.8409 72.732L63.6169 74.3224C62.0301 75.4576 61.3956 76.1408 61.4027 76.707C61.4081 77.1436 61.6362 81.6854 61.9095 86.7999C62.1828 91.9143 62.3561 96.1501 62.2949 96.2132C62.2073 96.3029 40.1864 90.596 37.8968 89.8906C37.4445 89.7512 37.1588 87.0556 36.187 73.7629C35.5453 64.985 34.9461 57.4338 34.8553 56.9823C34.7646 56.5307 34.781 56.1615 34.892 56.1615C35.0027 56.1615 41.8518 57.7388 50.1115 59.6662ZM169.331 60.1631C165.375 63.6908 156.111 71.7665 155.783 71.9737C155.46 72.1776 155.338 71.9066 155.338 70.9815C155.338 69.7737 155.698 69.3998 162.366 63.6828C169.362 57.6844 169.395 57.6618 169.509 58.7795C169.572 59.3967 169.492 60.0193 169.331 60.1631ZM185.052 64.3561C192.293 65.8809 199.463 67.41 200.983 67.7547L203.748 68.3814L197.201 75.0819L190.654 81.7824L174.152 78.0781C165.077 76.0405 157.352 74.2491 156.985 74.0974C156.435 73.869 157.387 72.8798 162.501 68.3686C165.901 65.3695 169.083 62.5399 169.572 62.0803C170.106 61.5795 170.747 61.3128 171.174 61.4146C171.565 61.508 177.81 62.8317 185.052 64.3561ZM137.012 66.3773C145.232 68.2019 152.318 69.7861 152.758 69.8981C153.437 70.071 153.559 70.3461 153.559 71.7037C153.559 72.585 153.42 73.3058 153.25 73.3058C153.08 73.3058 150.158 72.6605 146.756 71.8723C138.517 69.9627 120.928 66.0104 120.67 66.0104C120.557 66.0104 120.464 65.2538 120.464 64.3295C120.464 62.7679 120.521 62.6629 121.266 62.8544C121.707 62.9678 128.792 64.5531 137.012 66.3773ZM237.532 75.8877C236.729 82.9756 235.961 88.9739 235.827 89.2168C235.506 89.7979 227.777 99.533 227.702 99.4505C227.67 99.4155 228.149 94.6268 228.767 88.8086C229.83 78.7858 229.941 78.154 230.868 76.7777C231.552 75.7618 231.859 74.8295 231.889 73.6772C231.912 72.7707 232.032 71.5969 232.155 71.0687C232.362 70.1888 238.591 62.5888 238.871 62.8759C238.938 62.9445 238.336 68.7998 237.532 75.8877ZM98.0293 66.3806C105.965 68.1895 112.751 69.7942 113.109 69.9466C113.631 70.1688 112.077 71.5217 105.305 76.7405C100.655 80.3248 96.5603 83.3349 96.2059 83.4301C95.4191 83.6409 64.5663 76.1489 64.6873 75.7764C64.8296 75.338 82.5241 63.1764 83.0835 63.1327C83.3681 63.1104 90.0938 64.5721 98.0293 66.3806ZM136.478 71.289C144.992 73.2048 152.088 74.8156 152.248 74.8678C152.407 74.9203 150.726 76.5454 148.511 78.4787C146.297 80.4123 142.725 83.5687 140.573 85.4925C138.422 87.4167 136.46 88.991 136.212 88.991C135.792 88.991 104.661 81.5387 103.288 81.1094C102.493 80.861 119.655 67.4118 120.464 67.6489C120.758 67.7346 127.964 69.3728 136.478 71.289ZM203.862 77.5171C203.556 81.3199 203.269 84.4719 203.225 84.5211C203.18 84.5704 200.793 84.0812 197.921 83.4337L192.697 82.2562L198.466 76.3353C201.639 73.0786 204.276 70.4566 204.326 70.5084C204.377 70.5605 204.168 73.7144 203.862 77.5171ZM160.939 76.792C163.437 77.3438 165.607 77.9078 165.761 78.0457C165.916 78.1836 164.635 79.5923 162.914 81.1765C161.194 82.7607 158.705 85.112 157.384 86.4019C156.062 87.6917 154.909 88.6726 154.821 88.5821C154.732 88.4913 154.758 85.4972 154.877 81.9283C155.08 75.876 155.138 75.4514 155.747 75.6141C156.105 75.7104 158.441 76.2404 160.939 76.792ZM153.356 78.6862C153.281 79.8396 153.147 82.9996 153.059 85.7081L152.898 90.6325L151.48 91.9092L150.062 93.1859L149.835 102.67L149.609 112.154L143.31 118.425L137.012 124.695L136.906 123.342C136.848 122.598 136.949 114.956 137.131 106.36L137.461 90.7314L138.66 89.5112C140.343 87.7979 152.975 76.634 153.258 76.6092C153.387 76.5979 153.43 77.5328 153.356 78.6862ZM79.6723 81.4822C88.2583 83.5866 95.3465 85.3729 95.4241 85.4524C95.5938 85.6267 96.2981 119.721 96.1351 119.888C96.0725 119.953 92.8335 119.118 88.9376 118.033C85.0417 116.948 78.0912 115.03 73.4918 113.771C68.8924 112.512 65.0613 111.426 64.9783 111.359C64.831 111.24 63.2137 81.9294 63.1859 78.8799C63.1763 77.8035 63.3058 77.3887 63.6169 77.4989C63.8617 77.5857 71.0866 79.3782 79.6723 81.4822ZM186.613 82.6035C195.887 84.6999 203.557 86.4993 203.658 86.6025C203.758 86.7054 202.409 88.3107 200.66 90.1703C197.789 93.2217 195.081 96.1533 191.072 100.552L189.678 102.081L171.268 97.6336C161.142 95.1874 152.895 93.0645 152.941 92.9156C152.987 92.7672 156.468 89.451 160.676 85.5469C166.458 80.1822 168.5 78.4907 169.038 78.6206C169.43 78.715 177.338 80.5072 186.613 82.6035ZM27.3379 80.0731C34.703 81.9622 35.1482 82.091 34.9618 82.2821C34.8685 82.3777 32.1701 81.7762 28.9653 80.9449C25.7604 80.1139 22.778 79.4296 22.3378 79.4249C21.8977 79.4198 21.5372 79.272 21.5372 79.0966C21.5372 78.6154 21.877 78.6727 27.3379 80.0731ZM227.541 84.8261C227.128 89.0483 226.963 89.9435 226.659 89.6316C226.463 89.4306 227.133 81.9017 227.427 81.0051C227.853 79.7025 227.898 81.1893 227.541 84.8261ZM35.5482 87.4732C35.6955 89.4703 35.9592 90.7693 36.2652 91.0042C36.5318 91.2085 37.9659 91.686 39.4523 92.0653L42.1553 92.7555L37.0951 96.3222C34.312 98.2843 31.532 100.173 30.9175 100.52C29.8061 101.148 29.7268 101.131 16.6833 97.5708C9.46912 95.6018 3.45306 93.8903 3.31463 93.7677C3.1762 93.6452 7.46459 90.7354 12.8444 87.3021L22.6264 81.0591L28.971 82.6867L35.3155 84.3143L35.5482 87.4732ZM118.863 86.6353C127.866 88.8017 135.366 90.6916 135.529 90.835C135.802 91.0739 135.249 125.39 134.968 125.678C134.901 125.748 130.929 124.736 126.142 123.43C121.356 122.124 114.077 120.148 109.967 119.039C105.857 117.93 102.389 116.912 102.26 116.777C102.132 116.642 101.911 108.832 101.769 99.421C101.55 84.9373 101.586 82.3398 102.002 82.5032C102.273 82.609 109.86 84.4686 118.863 86.6353ZM100.189 105.935L100.282 117.224L99.0748 118.258L97.8678 119.292L97.5688 102.229L97.2699 85.166L98.4585 84.1472L99.647 83.1284L99.8716 88.8867C99.9947 92.0537 100.138 99.7256 100.189 105.935ZM225.141 86.3526C224.99 87.7928 224.793 89.0483 224.7 89.1424C224.609 89.2365 223.703 89.118 222.688 88.8787L220.842 88.4439L223.008 85.9663C224.199 84.6036 225.228 83.5439 225.294 83.6114C225.36 83.6789 225.291 84.9125 225.141 86.3526ZM219.48 89.9307C222.953 90.7179 225.796 91.4835 225.796 91.632C225.798 92.1303 215.393 104.492 214.866 104.618C214.58 104.686 212.232 104.231 209.648 103.605L204.951 102.468L205.258 99.1255C205.596 95.4351 205.356 95.8787 209.67 90.9838C211.093 89.3697 212.318 88.2863 212.631 88.3647C212.924 88.4388 216.006 89.1431 219.48 89.9307ZM203.922 95.2305C203.626 98.7203 202.993 106.222 202.517 111.901L201.651 122.227L200.085 124.121C199.224 125.163 196.25 128.771 193.476 132.139C190.233 136.076 188.432 138.005 188.432 137.542C188.432 137.145 188.908 130.122 189.49 121.934C190.071 113.746 190.583 106.235 190.627 105.241L190.708 103.435L197.457 96.0293C201.169 91.9563 204.264 88.6828 204.334 88.7547C204.404 88.8265 204.219 91.7407 203.922 95.2305ZM45.0235 93.5394C45.0235 93.6696 40.269 97.1572 36.7617 99.5993C36.5941 99.7161 36.9613 106.438 37.578 114.538L38.6993 129.264L37.6801 130.102C37.1196 130.562 35.9905 131.435 35.1713 132.04L33.6814 133.141L33.4835 131.584C32.748 125.804 31.121 102.731 31.4271 102.418C31.6224 102.217 34.5611 100.107 37.958 97.7273C43.4389 93.8877 45.0235 92.9484 45.0235 93.5394ZM225.093 108.005C224.298 115.704 223.45 122.343 223.21 122.759C222.509 123.97 213.585 135.688 213.461 135.56C213.398 135.497 213.98 128.838 214.753 120.764L216.159 106.084L219.116 102.553C220.742 100.611 223.03 97.8444 224.199 96.405C225.368 94.9653 226.373 93.837 226.432 93.8972C226.491 93.9578 225.889 100.306 225.093 108.005ZM55.2981 96.2562C59.0897 97.2582 62.2522 98.1399 62.3258 98.2158C62.5532 98.4489 62.9372 106.135 62.7212 106.135C62.3803 106.135 39.5384 99.9047 39.4149 99.7781C39.3516 99.7132 39.8266 99.3276 40.4711 98.9212C41.1155 98.5152 42.924 97.2706 44.4897 96.1559C46.0555 95.0408 47.5768 94.1974 47.8703 94.2813C48.1639 94.3652 51.5064 95.2538 55.2981 96.2562ZM164.768 97.7434C170.64 99.1616 178.532 101.073 182.308 101.99L189.171 103.659L188.976 105.718C188.868 106.85 188.285 114.917 187.68 123.644C187.076 132.372 186.522 139.575 186.45 139.653C186.308 139.806 150.998 130.26 150.745 130.001C150.571 129.822 151.335 102.923 151.658 97.8791L151.871 94.5472L152.982 94.8559C153.593 95.0258 158.897 96.3251 164.768 97.7434ZM233.414 100.352C233.079 103.432 232.681 106.096 232.532 106.27C232.379 106.448 231.428 106.394 230.363 106.147C227.119 105.394 227.221 105.461 227.221 104.082C227.221 103.026 227.722 102.182 230.156 99.1416C231.771 97.1251 233.247 95.2553 233.436 94.9864C233.624 94.7176 233.834 94.5545 233.902 94.6238C233.969 94.6932 233.75 97.2706 233.414 100.352ZM10.8616 97.7149C15.2653 98.93 21.1902 100.561 24.0281 101.338L29.188 102.753L29.4482 104.17C29.8606 106.418 31.9548 133.15 31.7359 133.374C31.6274 133.485 28.4475 132.64 24.6698 131.495C20.8917 130.35 15.0784 128.597 11.7512 127.598C8.42397 126.599 5.52484 125.588 5.30848 125.352C5.09247 125.115 4.23807 118.601 3.41035 110.877C2.58264 103.153 1.8172 96.4463 1.70902 95.9724C1.54639 95.2604 1.62859 95.1455 2.18373 95.3089C2.55275 95.4172 6.45788 96.5002 10.8616 97.7149ZM50.1183 104.499C56.4172 106.208 61.9397 107.767 62.3909 107.966C63.1062 108.281 63.1969 108.545 63.1026 110.034L62.9941 111.742L58.2951 115.413C55.7105 117.433 53.5284 119.251 53.4459 119.453C53.3633 119.656 53.5227 123.411 53.7999 127.798C54.0768 132.186 54.2284 135.852 54.1358 135.947C53.9625 136.124 41.4294 132.475 40.8447 132.076C40.6636 131.953 40.0839 125.942 39.5562 118.72C39.0288 111.497 38.5011 104.645 38.3836 103.491C38.2662 102.337 38.2819 101.393 38.4182 101.393C38.5544 101.393 43.8197 102.791 50.1183 104.499ZM209.71 105.367C212.116 105.941 214.161 106.489 214.255 106.584C214.348 106.68 213.781 113.522 212.993 121.789C212.207 130.056 211.563 137.044 211.563 137.318C211.563 137.697 210.336 137.487 206.391 136.433C203.547 135.672 201.126 134.954 201.012 134.837C200.898 134.72 200.991 132.461 201.219 129.816C201.571 125.731 201.759 124.837 202.469 123.87C203.224 122.844 203.362 122.019 203.883 115.437C204.61 106.277 204.826 104.31 205.11 104.318C205.234 104.321 207.304 104.793 209.71 105.367ZM237.609 109.611C243.127 110.92 247.703 112.054 247.777 112.13C247.92 112.276 239.998 123.715 238.969 124.849C238.396 125.481 238.123 125.443 232.06 123.882C228.588 122.987 225.651 122.157 225.532 122.035C225.323 121.821 226.385 109.7 226.756 108.05C226.859 107.599 227.084 107.23 227.259 107.23C227.433 107.23 232.09 108.301 237.609 109.611ZM69.2215 114.328C71.668 115.023 78.4577 116.908 84.3097 118.518C90.1617 120.127 95.0078 121.503 95.0786 121.575C95.149 121.648 93.4726 123.202 91.3528 125.028L87.4989 128.349L71.9549 123.932C63.4055 121.502 56.4108 119.396 56.4108 119.251C56.4108 118.902 63.9606 113.071 64.4175 113.068C64.6132 113.067 66.7751 113.634 69.2215 114.328ZM246.535 127.846L244.901 140.606L240.778 146.871C238.51 150.316 236.633 153.106 236.605 153.072C236.546 152.996 239.577 127.876 239.739 127.1C239.842 126.609 247.948 114.92 248.104 115.037C248.14 115.064 247.434 120.828 246.535 127.846ZM149.136 122.272C148.997 126.131 148.828 129.344 148.762 129.413C148.665 129.512 140.55 127.442 138.217 126.722C137.804 126.595 139.092 125.089 142.802 121.356C145.64 118.502 148.14 115.968 148.358 115.724C148.576 115.481 148.898 115.276 149.072 115.269C149.256 115.26 149.283 118.206 149.136 122.272ZM114.533 122.035C121.612 123.959 128.986 125.96 130.921 126.483L134.438 127.433L131.282 130.416L128.127 133.4L125.808 132.73C124.533 132.362 117.124 130.29 109.344 128.126C101.564 125.962 95.1989 124.093 95.1989 123.972C95.1989 123.851 96.1194 123 97.245 122.081C98.3706 121.161 99.7563 119.988 100.325 119.474C100.894 118.959 101.427 118.538 101.511 118.538C101.595 118.538 107.455 120.112 114.533 122.035ZM71.3446 125.501C79.8651 127.927 86.8609 129.938 86.8907 129.97C87.0281 130.116 87.8177 162.338 87.6871 162.472C87.606 162.555 82.1768 160.936 75.6226 158.875C69.0685 156.813 62.2272 154.666 60.4202 154.103C57.2919 153.129 57.1264 153.025 56.9674 151.95C56.8756 151.328 56.4692 144.911 56.0646 137.688C55.6596 130.466 55.2365 123.777 55.1244 122.824C54.9725 121.532 55.0394 121.091 55.3867 121.091C55.6432 121.091 62.824 123.076 71.3446 125.501ZM237.848 127.146C237.919 127.205 237.216 133.641 236.285 141.447L234.593 155.641L233.131 155.277C232.327 155.078 231.522 154.779 231.344 154.613C231.149 154.433 231.273 152.174 231.653 148.98C232.007 145.996 232.15 143.523 231.977 143.367C231.807 143.213 227.665 142.049 222.772 140.78C217.879 139.511 213.825 138.435 213.762 138.39C213.7 138.344 216.139 135.026 219.181 131.017L224.714 123.728L231.216 125.383C234.792 126.293 237.777 127.086 237.848 127.146ZM104.821 128.581C110.196 130.092 116.675 131.913 119.219 132.627C121.763 133.342 124.686 134.168 125.713 134.465L127.582 135.004L127.533 144.371C127.507 149.523 127.387 156.951 127.267 160.877L127.048 168.016L110.984 163.085L94.9206 158.155L94.7074 151.022C94.0583 129.294 94.037 125.833 94.5512 125.833C94.8256 125.833 99.447 127.07 104.821 128.581ZM92.8694 144.539L93.1228 158.48L91.3652 160.239L89.6077 161.997L89.3824 156.956C89.2589 154.183 89.0682 147.4 88.959 141.883C88.8497 136.366 88.6974 131.359 88.6202 130.757C88.4988 129.809 88.7273 129.453 90.3272 128.095L92.1741 126.527L92.3951 128.563C92.5168 129.682 92.7303 136.872 92.8694 144.539ZM199.446 131.314C199.238 133.39 198.966 135.263 198.842 135.476C198.487 136.083 187.69 149.52 187.418 149.692C187.142 149.867 187.326 144.926 187.671 142.93C187.845 141.921 189.287 139.911 193.75 134.458C196.968 130.527 199.651 127.362 199.712 127.425C199.774 127.488 199.654 129.238 199.446 131.314ZM147.687 131.066C157.061 133.617 167.307 136.38 170.426 137.199L171.813 137.563L171.6 141.821C170.853 156.764 170.233 167.818 170.067 169.187C169.897 170.584 169.781 170.754 169.1 170.605C168.675 170.511 161.155 168.279 152.389 165.643C143.623 163.007 136.372 160.851 136.275 160.851C136.092 160.851 136.424 136.657 136.655 133.129C136.728 132.025 136.797 130.43 136.81 129.583C136.827 128.52 136.971 128.092 137.279 128.2C137.523 128.285 142.207 129.575 147.687 131.066ZM134.887 141.792C134.772 148.764 134.587 155.99 134.476 157.851L134.275 161.234L131.616 164.052L128.957 166.87L129.155 150.832L129.353 134.794L132.107 131.955C133.621 130.393 134.913 129.116 134.979 129.116C135.044 129.116 135.003 134.82 134.887 141.792ZM26.6241 133.865L32.9565 135.764L35.0742 134.242C37.7079 132.348 38.558 132.652 36.13 134.62C35.15 135.414 34.3454 136.265 34.3422 136.511C34.3394 136.757 34.761 142.176 35.2792 148.553C35.7973 154.929 36.1496 160.221 36.0617 160.31C35.9738 160.4 33.1102 159.56 29.6983 158.443C26.286 157.325 21.6528 155.825 19.4021 155.11C17.1513 154.394 15.2403 153.748 15.1553 153.675C15.0041 153.546 12.6853 131.892 12.6558 130.335C12.6408 129.557 12.6786 129.561 16.4663 130.757C18.5701 131.422 23.1414 132.821 26.6241 133.865ZM47.3362 135.888C51.0477 137.005 54.2052 138.113 54.3526 138.351C54.4999 138.588 54.623 139.387 54.6262 140.125C54.6312 141.418 54.5956 141.457 53.653 141.174C45.6626 138.773 37.6655 136.298 37.4328 136.152C37.0414 135.907 39.354 133.892 40.048 133.873C40.3447 133.865 43.6246 134.772 47.3362 135.888ZM212.631 139.84C225.135 143.124 229.782 144.383 229.878 144.51C230.053 144.742 218.42 161.031 218.115 160.982C217.649 160.908 190.264 153.221 188.86 152.77L187.687 152.394L188.675 151.06C189.554 149.872 196.393 141.302 199.238 137.821L200.322 136.495L201.939 136.975C202.829 137.239 207.64 138.528 212.631 139.84ZM49.2379 141.578C53.296 142.795 54.3978 143.264 54.6145 143.864C54.7643 144.279 54.9995 146.749 55.1369 149.353C55.2742 151.957 55.5479 154.19 55.745 154.314C55.9422 154.439 58.1524 155.168 60.6569 155.933L65.21 157.325L65.4331 161.003C65.5559 163.026 65.7619 167.172 65.8911 170.217L66.126 175.753L61.1793 174.137C58.4588 173.249 52.2189 171.189 47.3127 169.559L38.3922 166.597L37.2492 152.325C36.6207 144.475 36.1112 137.946 36.1168 137.815C36.1225 137.684 37.9289 138.132 40.1305 138.812C42.3325 139.491 46.4306 140.736 49.2379 141.578ZM180.07 139.835L185.764 141.418L185.694 144.478C185.655 146.16 185.525 148.691 185.404 150.102L185.184 152.666L178.779 160.68C175.256 165.088 172.211 168.858 172.012 169.059C171.768 169.306 171.718 168.54 171.86 166.688C171.976 165.183 172.306 159.52 172.593 154.103C173.348 139.873 173.489 138.234 173.963 138.244C174.191 138.248 176.938 138.964 180.07 139.835ZM229.192 155.992C228.672 160.571 227.958 166.699 227.604 169.61L226.961 174.903L222.074 182.56C219.386 186.77 217.049 190.365 216.879 190.549C216.704 190.738 216.65 190.346 216.756 189.637C216.857 188.952 217.539 182.552 218.271 175.415L219.602 162.44L224.746 154.946C227.575 150.824 229.945 147.5 230.013 147.56C230.081 147.619 229.711 151.414 229.192 155.992ZM13.297 152.56C13.2038 152.972 12.97 153.022 12.3184 152.772C11.4907 152.454 11.4847 152.426 12.1405 151.93C12.8807 151.369 13.491 151.702 13.297 152.56ZM27.0945 159.379L36.3884 162.402L36.619 164.818C37.2474 171.4 38.6178 189.061 38.5089 189.173C38.4406 189.243 36.1553 188.507 33.4305 187.538C30.7057 186.568 25.1018 184.589 20.9771 183.139L13.4774 180.503L12.1579 168.032C11.432 161.174 10.7641 155.208 10.6733 154.775C10.4861 153.881 8.35778 153.284 27.0945 159.379ZM192.943 155.685L199.055 157.42L192.48 166.158C188.863 170.963 185.771 175.031 185.609 175.198C185.448 175.364 184.775 175.34 184.116 175.144C183.456 174.948 180.595 174.1 177.757 173.259C174.919 172.418 172.534 171.666 172.458 171.589C172.303 171.433 172.656 170.978 180.702 160.942C183.798 157.081 186.444 153.927 186.581 153.935C186.719 153.944 189.582 154.731 192.943 155.685ZM70.0881 164.109C70.2101 167.032 70.3898 170.083 70.4873 170.89C70.6475 172.22 70.535 172.486 69.282 173.74L67.8996 175.124L67.6807 172.091C67.5601 170.423 67.3558 166.572 67.2259 163.533L66.9903 158.008L68.428 158.401L69.8656 158.795L70.0881 164.109ZM209.948 160.494C214.247 161.712 217.796 162.742 217.836 162.783C217.926 162.876 214.82 192.623 214.686 192.952C214.632 193.085 211.065 192.102 206.76 190.769C201.403 189.111 198.898 188.172 198.828 187.795C198.734 187.298 200.577 164.472 201.082 159.869C201.217 158.634 201.436 158.027 201.711 158.127C201.943 158.212 205.65 159.277 209.948 160.494ZM230.666 159.825C230.553 160.116 230.468 160.03 230.451 159.605C230.436 159.22 230.52 159.005 230.638 159.126C230.756 159.247 230.769 159.562 230.666 159.825ZM82.0106 162.633L88.928 164.792L91.0848 162.717C94.49 159.441 93.9943 159.594 97.6147 160.705L100.81 161.685L101.029 163.325C101.295 165.316 101.325 181.643 101.062 181.643C100.626 181.643 72.5804 172.428 72.3627 172.213C72.2314 172.083 72.0089 169.147 71.8687 165.689L71.6143 159.402L73.3537 159.938C74.3102 160.233 78.2061 161.446 82.0106 162.633ZM198.171 174.287L196.944 188.634L192.801 194.531C190.521 197.775 187.78 201.702 186.708 203.258C185.636 204.814 184.694 206.02 184.615 205.939C184.464 205.784 186.138 181.28 186.503 178.301C186.685 176.82 187.293 175.829 191.22 170.623C193.699 167.336 196.528 163.56 197.507 162.233C198.485 160.906 199.311 159.847 199.342 159.88C199.373 159.913 198.846 166.395 198.171 174.287ZM230.313 162.584C230.223 162.935 230.15 162.648 230.15 161.946C230.15 161.243 230.223 160.956 230.313 161.307C230.402 161.658 230.402 162.233 230.313 162.584ZM115.964 166.377C122.394 168.353 127.866 169.971 128.123 169.971C128.38 169.971 129.892 168.534 131.484 166.779L134.378 163.587L134.137 177.813C134.005 185.637 133.843 192.101 133.778 192.177C133.713 192.252 131.851 191.734 129.642 191.026C120.515 188.099 103.32 182.429 103.221 182.314C103.163 182.246 102.999 177.701 102.857 172.214L102.6 162.238L103.437 162.511C103.897 162.661 109.534 164.401 115.964 166.377ZM142.349 164.373C145.481 165.307 148.18 166.195 148.348 166.346C148.516 166.496 148.538 168.82 148.398 171.509L148.142 176.397L142.283 183.306C139.06 187.106 136.234 190.416 136.004 190.66C135.681 191.003 135.605 189.529 135.675 184.277C135.826 172.991 136.186 162.675 136.428 162.674C136.553 162.674 139.218 163.438 142.349 164.373ZM229.957 165.867C229.867 166.218 229.794 165.931 229.794 165.228C229.794 164.526 229.867 164.239 229.957 164.59C230.046 164.941 230.046 165.516 229.957 165.867ZM172.775 173.493C179.332 175.44 184.737 177.058 184.786 177.09C184.893 177.158 182.708 208.047 182.588 208.178C182.542 208.228 180.036 207.463 177.017 206.479C173.999 205.495 166.645 203.099 160.676 201.153C154.706 199.209 149.687 197.487 149.521 197.328C149.233 197.051 149.839 171.389 150.208 168.284L150.386 166.781L155.62 168.367C158.498 169.24 166.218 171.547 172.775 173.493ZM229.601 168.785C229.512 169.136 229.438 168.849 229.438 168.147C229.438 167.444 229.512 167.157 229.601 167.508C229.691 167.859 229.691 168.434 229.601 168.785ZM39.559 168.79C40.1604 169.187 41.5803 187.445 41.06 188.088C40.4234 188.874 40.1921 188.66 40.1081 187.206C39.9957 185.252 39.0277 173.101 38.7861 170.609C38.5879 168.564 38.7249 168.242 39.559 168.79ZM43.6257 170.133C44.4922 170.422 49.7425 172.161 55.2927 173.996L65.384 177.332L64.2453 178.537L63.1062 179.741L63.6781 189.867C63.9926 195.436 64.1933 200.051 64.1239 200.122C64.0546 200.193 60.0089 198.839 55.1337 197.112C50.2581 195.386 45.7085 193.808 45.0235 193.606C44.3385 193.405 43.7236 193.187 43.657 193.123C43.5232 192.995 41.8326 172.213 41.8255 170.609C41.823 170.057 41.8724 169.606 41.9354 169.606C41.9984 169.606 42.7589 169.843 43.6257 170.133ZM229.243 171.133C229.129 171.424 229.045 171.338 229.028 170.913C229.013 170.528 229.097 170.313 229.215 170.434C229.333 170.555 229.346 170.87 229.243 171.133ZM86.1068 178.602C93.9455 181.142 100.432 183.282 100.521 183.358C100.61 183.433 99.3908 184.819 97.8122 186.437L94.9419 189.379L80.3914 184.541C72.3886 181.88 65.7918 179.665 65.7317 179.619C65.5349 179.467 71.3357 173.984 71.6947 173.983C71.783 173.983 78.2684 176.061 86.1068 178.602ZM148.221 179.954C148.221 180.547 146.233 183.203 141.905 188.395C136.325 195.088 135.575 195.859 135.475 195.006C135.385 194.232 136.02 193.259 138.665 190.121C144.306 183.429 148.028 179.09 148.126 179.09C148.178 179.09 148.221 179.479 148.221 179.954ZM79.6765 186.056C87.5288 188.684 94.0573 190.941 94.1847 191.072C94.3117 191.202 94.5309 197.571 94.6715 205.225L94.927 219.14L85.3659 215.698C80.1075 213.805 73.7316 211.519 71.198 210.618C68.6643 209.717 66.5445 208.932 66.4872 208.874C66.3808 208.764 64.9574 184.085 64.9534 182.282C64.9524 181.73 65.052 181.278 65.1755 181.278C65.2986 181.278 71.8239 183.428 79.6765 186.056ZM117.973 189.003C125.313 191.389 131.864 193.521 132.531 193.741L133.744 194.14L133.523 208.184C133.401 215.909 133.246 222.284 133.179 222.353C133.113 222.421 128.984 221.034 124.003 219.269C119.023 217.505 112.347 215.17 109.166 214.081L103.383 212.102V206.416C103.383 203.288 103.277 196.99 103.148 192.419L102.912 184.11L103.77 184.387C104.243 184.539 110.634 186.617 117.973 189.003ZM147.727 191.322L147.48 198.448L148.651 198.938C149.295 199.207 154.566 200.964 160.363 202.841C170.834 206.231 170.9 206.259 170.395 207.049C169.983 207.693 169.705 207.788 168.929 207.552C168.402 207.391 161.485 205.117 153.559 202.499C145.632 199.88 138.697 197.626 138.147 197.488C137.485 197.323 137.212 197.065 137.34 196.724C137.563 196.127 147.516 184.197 147.791 184.197C147.892 184.197 147.863 187.403 147.727 191.322ZM29.8417 188.037L39.7978 191.511L40.5686 190.769C41.5632 189.811 41.8208 190.12 41.8208 192.269C41.8208 193.694 41.9649 194.099 42.5959 194.445C43.3627 194.866 43.3578 194.882 42.1511 195.907C41.4803 196.477 40.7711 196.95 40.5753 196.957C40.3796 196.965 37.7374 196.076 34.7038 194.983C31.6701 193.889 26.0967 191.894 22.3183 190.549C18.5398 189.204 15.5773 187.976 15.735 187.821C16.3417 187.223 19.5878 184.587 19.733 184.575C19.817 184.567 24.3659 186.125 29.8417 188.037ZM101.578 198.594C101.606 205.208 101.713 210.96 101.815 211.375C101.95 211.93 101.474 212.722 100.03 214.347C98.946 215.566 97.7546 216.949 97.3827 217.42C96.7112 218.27 96.7045 218.217 96.4888 210.63C96.3696 206.424 96.1896 200.251 96.0885 196.913L95.9052 190.842L98.4699 188.027C100.633 185.654 101.073 185.319 101.28 185.89C101.415 186.263 101.549 191.979 101.578 198.594ZM35.2286 196.939L40.2017 198.663L41.2052 211.172C41.7571 218.052 42.1543 223.737 42.0874 223.805C42.0208 223.874 36.4489 221.833 29.7054 219.272L17.4449 214.615L16.3268 204.057C15.7119 198.25 15.1105 192.641 14.9902 191.594L14.772 189.689L22.514 192.451C26.7718 193.971 32.4935 195.99 35.2286 196.939ZM206.315 192.406L210.497 193.722L210.269 196.346C210.143 197.789 210.01 199.01 209.973 199.06C209.935 199.11 209.197 198.913 208.332 198.623C207.467 198.333 204.913 197.515 202.657 196.805L198.555 195.515L198.665 193.959C198.726 193.104 198.856 191.882 198.953 191.245L199.131 190.085L200.632 190.587C201.457 190.863 204.015 191.681 206.315 192.406ZM197.04 193.717C196.77 196.015 196.622 196.28 191.302 204.007C188.299 208.37 185.787 211.883 185.72 211.814C185.653 211.745 185.722 210.629 185.874 209.334C186.144 207.034 186.277 206.799 191.651 199.086C194.676 194.745 197.188 191.23 197.234 191.275C197.28 191.321 197.192 192.42 197.04 193.717ZM213.011 195.049C212.065 196.743 211.93 196.811 211.924 195.596C211.92 194.645 212.062 194.41 212.643 194.41C213.231 194.41 213.3 194.53 213.011 195.049ZM55.2902 198.972C60.0565 200.65 64.0503 202.12 64.1656 202.238C64.2809 202.356 64.4649 204.131 64.5745 206.183L64.7734 209.913L65.9256 210.433C67.3049 211.055 67.3384 211.215 67.6156 218.485C67.7266 221.394 67.9106 224.79 68.0248 226.031L68.2323 228.289L64.9015 227.019C63.0696 226.321 58.4481 224.587 54.6316 223.167C50.815 221.746 47.5871 220.481 47.4579 220.355C47.3291 220.23 46.8843 215.531 46.4697 209.913C46.0548 204.296 45.6164 198.729 45.495 197.542C45.289 195.529 45.3192 195.403 45.9494 195.653C46.3209 195.8 50.5243 197.293 55.2902 198.972ZM44.8399 210.46L45.6911 221.586L44.8498 222.462L44.0086 223.339L43.8086 222.098C43.6987 221.415 43.2111 215.853 42.7254 209.739L41.8425 198.622L42.8101 197.582L43.778 196.542L43.8834 197.938C43.9414 198.707 44.3716 204.341 44.8399 210.46ZM205.818 199.577C209.858 200.814 213.305 201.951 213.477 202.104C213.695 202.299 205.021 216.606 202.495 220.217C202.327 220.457 186.258 214.924 186.27 214.63C186.291 214.103 197.823 197.336 198.167 197.332C198.334 197.33 201.777 198.34 205.818 199.577ZM152.955 204.045C161.725 206.927 168.969 209.356 169.055 209.444C169.299 209.693 167.702 237.599 167.425 237.932C167.225 238.173 136.306 227.55 135.852 227.084C135.777 227.008 135.832 220.61 135.973 212.867C136.153 203.034 136.348 198.79 136.621 198.797C136.836 198.803 144.186 201.164 152.955 204.045ZM212.789 216.844C212.127 223.063 211.579 228.316 211.572 228.517C211.565 228.717 209.967 231.508 208.021 234.718C206.075 237.928 203.807 241.743 202.979 243.196C202.152 244.649 201.44 245.798 201.398 245.749C201.355 245.701 201.827 240.244 202.446 233.623L203.572 221.586L208.713 213.489C211.54 209.035 213.885 205.424 213.923 205.464C213.961 205.503 213.451 210.624 212.789 216.844ZM178.025 208.598L182.742 210.119L182.548 212.752C182.173 217.84 182.095 218.092 179.932 221.182C178.794 222.809 177.247 225.042 176.495 226.145C175.742 227.249 173.861 230.01 172.314 232.28C170.767 234.551 169.466 236.356 169.422 236.292C169.378 236.229 169.471 234.043 169.628 231.435C169.785 228.827 170.14 222.729 170.417 217.884C170.887 209.68 170.978 208.996 171.744 207.934C172.197 207.306 172.734 206.857 172.938 206.935C173.142 207.013 175.431 207.761 178.025 208.598ZM85.0072 217.365C90.6557 219.386 95.5665 221.039 95.9198 221.039C96.2735 221.039 96.6344 220.834 96.7219 220.583C96.8091 220.332 96.9614 220.209 97.06 220.309C97.1582 220.409 97.35 226.191 97.4856 233.158L97.7322 245.824L96.5547 245.333C95.9066 245.062 89.8522 242.748 83.0998 240.19C76.3475 237.632 70.6442 235.354 70.4261 235.128C70.1784 234.872 69.872 231.154 69.6101 225.234C69.3795 220.017 69.0966 214.803 68.9817 213.645L68.7725 211.541L71.7549 212.616C73.395 213.207 79.3587 215.344 85.0072 217.365ZM105.566 214.53C106.323 214.763 106.94 215.05 106.937 215.169C106.934 215.288 105.793 216.698 104.4 218.303L101.867 221.221L102.076 231.252L102.285 241.284L100.916 242.914L99.546 244.544L99.3385 241.455C99.2243 239.756 99.0691 234.036 98.9937 228.743L98.8563 219.121L101.163 216.614C102.432 215.236 103.632 214.108 103.83 214.108C104.028 214.108 104.81 214.298 105.566 214.53ZM121.588 220.184C128.31 222.523 133.878 224.496 133.963 224.568C134.048 224.64 133.928 224.893 133.696 225.13C133.444 225.389 133.275 226.703 133.275 228.407C133.275 230.08 133.127 231.252 132.916 231.252C132.578 231.252 104.779 221.397 104.499 221.178C104.189 220.936 108.543 215.932 109.064 215.932C109.231 215.932 114.867 217.845 121.588 220.184ZM193.372 219.074C197.995 220.602 201.8 221.874 201.828 221.901C201.855 221.928 201.341 227.614 200.685 234.535C200.028 241.457 199.485 247.403 199.477 247.749C199.466 248.28 198.005 247.866 190.155 245.107C185.035 243.308 180.812 241.794 180.77 241.742C180.728 241.691 181.014 236.97 181.407 231.252C182.078 221.478 182.171 220.787 182.963 219.695C183.427 219.057 183.806 218.03 183.806 217.415C183.806 216.625 183.976 216.297 184.386 216.297C184.705 216.297 188.748 217.547 193.372 219.074ZM108.558 224.472C111.094 225.358 116.452 227.261 120.464 228.703C124.477 230.145 128.945 231.742 130.395 232.252L133.03 233.18L132.82 245.931C132.705 252.945 132.533 258.763 132.437 258.862C132.341 258.96 129.168 257.862 125.385 256.423C121.602 254.984 115.289 252.581 111.355 251.082L104.203 248.359L103.973 243.727C103.744 239.139 103.643 222.863 103.843 222.863C103.9 222.863 106.022 223.587 108.558 224.472ZM179.557 234.237L178.839 244.247L172.913 253.343C169.653 258.347 166.888 262.555 166.767 262.696C166.646 262.836 166.816 258.322 167.144 252.664C167.472 247.007 167.752 241.927 167.767 241.375C167.783 240.765 167.991 240.372 168.297 240.372C168.574 240.372 171.325 236.68 174.409 232.167C177.494 227.655 180.075 224.023 180.146 224.096C180.217 224.168 179.952 228.732 179.557 234.237ZM150.89 234.271C158.914 237.089 165.625 239.525 165.803 239.685C166.18 240.025 164.952 264.811 164.557 264.811C164.415 264.811 159.681 263.077 154.036 260.957C148.391 258.837 141.771 256.359 139.325 255.452C136.878 254.544 134.759 253.688 134.616 253.55C134.473 253.411 134.459 247.761 134.585 240.993C134.813 228.735 134.817 228.688 135.557 228.917C135.965 229.044 142.865 231.453 150.89 234.271ZM135.41 256.026C135.41 256.167 135.175 256.601 134.888 256.99C134.393 257.66 134.365 257.636 134.354 256.524C134.346 255.628 134.469 255.4 134.877 255.56C135.17 255.676 135.41 255.885 135.41 256.026Z" fill="url(#paint0_linear_243_41)"/>
<defs>
<linearGradient id="paint0_linear_243_41" x1="125" y1="0" x2="125" y2="267" gradientUnits="userSpaceOnUse">
<stop stop-color="#010313"/>
<stop offset="0.462365" stop-color="#00C2CB"/>
<stop offset="0.729634" stop-color="#0497B7"/>
<stop offset="1" stop-color="#0477E1"/>
</linearGradient>
</defs>
</svg>
