<svg width="226" height="281" viewBox="0 0 226 281" fill="none" xmlns="http://www.w3.org/2000/svg">
<path opacity="0.4" fill-rule="evenodd" clip-rule="evenodd" d="M65.1657 272.188C69.0747 272.037 76.9749 271.74 82.722 271.529L93.1712 271.143L94.184 269.122L95.1966 267.1L104.574 266.629L113.952 266.158L123.054 273.377L132.156 280.597L139.533 280.479C154.838 280.235 158.092 280.113 158.464 279.767C158.798 279.457 167.4 257.144 170.438 248.707L171.531 245.67L170.535 244.78C169.987 244.291 167.457 242.084 164.914 239.877L160.29 235.863L160.737 234.642C161.248 233.245 160.434 233.405 174.089 232.009C182.099 231.189 184.56 230.882 184.918 230.654C185.112 230.531 187.499 224.18 195.846 201.573C196.692 199.281 196.716 199.337 193.656 196.484C192.46 195.37 191.426 194.321 191.356 194.153C191.287 193.985 192.669 190.05 194.427 185.408C196.186 180.766 197.772 176.534 197.953 176.002C198.235 175.171 198.649 174.96 200.912 174.487C203.433 173.961 203.562 173.884 203.982 172.646C204.223 171.934 206.496 165.796 209.034 159.005C211.571 152.214 213.634 146.483 213.617 146.27C213.601 146.057 212.784 145.075 211.801 144.087C210.819 143.1 209.958 142.137 209.887 141.947C209.816 141.758 211.088 141.276 212.713 140.876C214.338 140.476 215.728 140.028 215.802 139.881C215.876 139.733 218.067 133.903 220.672 126.925C223.567 119.168 225.328 114.025 225.202 113.692C225.089 113.392 220.667 108.432 215.376 102.668L205.756 92.1895L203.031 93.1124L200.305 94.0348L196.826 90.2414C194.913 88.1547 192.588 85.6364 191.66 84.6448C190.732 83.6532 188.904 81.6954 187.597 80.294L185.22 77.7465L186.419 74.6882L187.617 71.6303L177.066 60.08C171.262 53.7276 166.303 48.4147 166.045 48.274C165.787 48.133 164.511 48.4566 163.209 48.9928L160.842 49.9681L162.107 47.4128C162.97 45.6705 163.269 44.7488 163.046 44.517C162.235 43.6751 150.868 31.3127 146.245 26.2464C143.432 23.1634 140.961 20.556 140.754 20.4524C140.547 20.3488 139.212 20.8613 137.787 21.5916L135.197 22.9191L134.263 21.9191C133.75 21.3692 130.888 18.2774 127.903 15.0489C117.872 4.19968 114.774 0.896625 114.495 0.757329C114.163 0.590927 91.6588 13.7763 91.026 14.5084C90.7823 14.7901 90.5404 14.999 90.4879 14.9727C90.4356 14.9465 87.2978 11.7169 83.5151 7.79577C79.7323 3.87463 76.4056 0.5505 76.1218 0.408486C75.7902 0.242569 71.9753 2.46049 65.4195 6.63057L55.2327 13.1105L47.5938 25.0657C43.3923 31.641 39.9935 37.2336 40.0407 37.4942C40.0882 37.7544 40.7489 38.5148 41.5088 39.1835L42.8905 40.3998L40.5089 41.8141C39.1989 42.5917 37.8624 43.1757 37.5387 43.1118C37.2151 43.0478 32.5074 45.6362 27.0774 48.8643C11.9255 57.8723 13.6333 56.4786 9.06256 63.5609C6.92033 66.88 5.10845 69.6162 5.03591 69.6418C4.96321 69.6669 4.53063 69.2968 4.07429 68.8189C3.61781 68.3413 3.03107 67.933 2.77019 67.9123C2.50979 67.8914 -1.45058 70.0522 -6.03029 72.7144L-14.357 77.5544L-22.7728 90.0999C-29.6702 100.382 -31.1427 102.744 -30.9343 103.191C-30.7942 103.491 -28.0041 105.989 -24.7337 108.741L-18.7879 113.745L-19.5343 114.817C-19.9445 115.407 -21.741 118.201 -23.5257 121.027C-26.3007 125.42 -26.9778 126.292 -28.1947 127.042C-29.4934 127.843 -30.3435 129.033 -37.9026 140.626C-42.4594 147.615 -46.1367 153.478 -46.0752 153.656C-46.0133 153.834 -45.703 154.177 -45.3855 154.418C-44.9669 154.737 -44.9413 155.07 -45.2922 155.632C-45.558 156.058 -48.9602 161.336 -52.8527 167.36C-61.0102 179.985 -61.0197 180.002 -60.3775 180.601C-60.1162 180.844 -54.3841 185.15 -47.6393 190.168L-35.3766 199.293L-35.8136 200.166C-36.054 200.647 -36.1068 201.2 -35.9305 201.395C-35.7544 201.59 -33.7301 203.123 -31.4327 204.801L-27.2548 207.852L-27.9245 208.761C-28.2931 209.262 -29.6281 211.495 -30.8915 213.724L-33.1883 217.777L-32.517 218.341C-32.1477 218.65 -27.3778 222.154 -21.917 226.126C-16.4563 230.098 -10.721 234.276 -9.17204 235.411L-6.35558 237.473L-4.83095 237.249L-3.30664 237.024L2.42538 241.225L8.15724 245.426L12.0109 244.995L15.8643 244.565L22.2529 249.302C25.7663 251.907 29.0421 254.25 29.532 254.508C30.0333 254.771 31.6467 254.873 33.2233 254.739C34.7637 254.608 36.1235 254.55 36.2445 254.611C36.3659 254.672 36.3223 255.006 36.148 255.355C35.9737 255.703 36.044 256.19 36.3037 256.437C36.9652 257.065 57.1628 272.047 57.6556 272.275C57.8771 272.378 61.2568 272.338 65.1657 272.188ZM49.219 263.97C44.5647 260.514 40.3806 257.384 39.9211 257.014L39.0855 256.343L40.1707 256.309C41.1204 256.281 41.6781 256.59 44.6506 258.794L48.0454 261.312L49.4331 261.169C50.1962 261.091 50.8972 261.149 50.9909 261.298C51.0844 261.447 53.6628 263.423 56.7208 265.688L62.2802 269.806L65.8076 269.639C67.7479 269.547 69.5556 269.643 69.8253 269.852C70.3863 270.288 59.2254 270.935 58.2883 270.522C57.9546 270.374 53.8734 267.426 49.219 263.97ZM4.0796 240.349C1.65609 238.565 -0.429163 237.009 -0.554498 236.891C-0.679846 236.772 2.03549 236.286 5.47961 235.811C8.92358 235.336 11.9115 234.79 12.1196 234.596C12.5217 234.221 13.5417 234.895 20.1264 239.889L22.9697 242.045L15.8469 242.87C11.9293 243.323 8.67059 243.671 8.60508 243.643C8.53972 243.614 6.50312 242.132 4.0796 240.349ZM-18.0367 226.831C-24.392 222.183 -29.6916 218.282 -29.8132 218.162C-30.0165 217.962 -18.4177 215.371 -16.3912 215.163C-15.6373 215.086 -13.8634 216.295 -4.21593 223.467C1.99506 228.084 7.57557 232.241 8.18537 232.704L9.29415 233.546L1.86177 234.642C-2.22621 235.245 -5.77574 235.636 -6.02612 235.511C-6.27682 235.385 -11.6816 231.479 -18.0367 226.831ZM24.057 248.474C21.096 246.292 18.6512 244.445 18.6246 244.368C18.5974 244.292 19.8535 244.085 21.4149 243.909L24.2546 243.589L29.8061 247.674C32.8596 249.921 35.5736 252.003 35.8374 252.302C36.2311 252.747 35.804 252.887 33.456 253.081C31.8825 253.211 30.3354 253.121 30.018 252.88C29.7005 252.638 27.018 250.656 24.057 248.474ZM51.846 259.947C46.3132 255.821 41.5817 252.206 41.3317 251.915C40.9828 251.508 42.8667 251.203 49.4398 250.603L58.0021 249.821L69.394 258.532C79.1975 266.028 80.6581 267.248 79.8688 267.282C79.3647 267.304 75.4542 267.506 71.1795 267.731C66.9047 267.956 63.0693 267.985 62.6564 267.795C62.2437 267.605 57.3789 264.074 51.846 259.947ZM38.1394 254.559C38.1793 254.479 38.4007 254.395 38.6317 254.371C38.8626 254.347 38.9733 254.484 38.8779 254.675C38.7825 254.866 38.5609 254.95 38.3857 254.863C38.2105 254.775 38.0996 254.638 38.1394 254.559ZM72.5868 269.363C72.6936 269.332 75.2128 269.192 78.1855 269.053L83.5901 268.798L84.4126 267.154C85.1824 265.616 85.2753 265.545 85.8639 266.045C86.2099 266.339 87.3075 267.211 88.3031 267.983C89.2991 268.754 89.9419 269.44 89.7317 269.505C88.5926 269.863 73.8133 270.129 73.1626 269.804C72.7393 269.592 72.4801 269.394 72.5868 269.363ZM32.2517 247.42C29.6503 245.504 27.564 243.856 27.6153 243.758C27.6666 243.659 28.8951 243.442 30.3457 243.276C31.7959 243.109 34.2197 242.83 35.7315 242.654C37.2434 242.478 39.1727 242.274 40.0188 242.201L41.5576 242.068L39.4326 246.557C38.2641 249.026 37.2344 251.014 37.1447 250.974C37.055 250.935 34.853 249.335 32.2517 247.42ZM-25.8493 208.455C-23.7062 204.866 -20.6559 199.72 -19.0712 197.019C-17.4866 194.319 -15.9675 191.818 -15.6949 191.461C-15.4226 191.105 -14.3008 190.597 -13.202 190.332L-11.2044 189.85L-8.45008 191.925C-6.93531 193.067 -5.59314 194.172 -5.4674 194.381C-5.3088 194.645 -6.89925 197.613 -10.6539 204.058C-13.6323 209.171 -16.1333 213.368 -16.2119 213.385C-16.2902 213.402 -19.3057 214.021 -22.9129 214.761C-26.5201 215.502 -29.6572 216.219 -29.884 216.356C-30.6929 216.845 -29.7088 214.918 -25.8493 208.455ZM48.0074 233.56C48.1747 233.502 57.0544 240.211 59.6706 242.373C60.2626 242.862 60.2189 243.068 59.0074 245.489L57.7103 248.082L48.807 248.96L39.9034 249.839L43.8509 241.736C46.0222 237.279 47.8925 233.6 48.0074 233.56ZM27.3005 240.403L28.081 238.847L36.0624 237.817L44.0438 236.787L43.3692 238.386C42.7705 239.804 42.5566 240.009 41.4738 240.207C40.3504 240.412 26.8121 242.027 26.6093 241.98C26.5603 241.969 26.8712 241.259 27.3005 240.403ZM18.8451 236.8L13.2481 232.663L13.8614 231.437C14.3769 230.406 14.6164 230.241 15.3643 230.402C16.0821 230.556 21.5107 234.398 25.5933 237.642C26.3057 238.208 26.3113 238.396 25.6522 239.713C25.2534 240.511 24.8182 241.112 24.6846 241.05C24.551 240.989 21.9233 239.076 18.8451 236.8ZM-1.50823 223.409C-8.02589 218.56 -13.5708 214.39 -13.8304 214.143C-14.1879 213.802 -14.126 213.34 -13.5756 212.24C-13.1759 211.441 -12.7563 210.834 -12.6432 210.89C-12.5301 210.947 -6.9263 215.134 -0.190003 220.195C6.54596 225.255 12.2072 229.471 12.3906 229.563C12.5741 229.654 12.3921 230.393 11.9862 231.204C11.4572 232.262 11.1199 232.615 10.795 232.452C10.5456 232.328 5.00893 228.258 -1.50823 223.409ZM73.4974 259.516C68.8238 255.941 63.7285 252.065 62.1744 250.901L59.349 248.787L60.7033 246.08L62.0577 243.373L64.2771 243.116C65.4977 242.975 67.652 242.745 69.0646 242.604L71.6323 242.348L79.7426 248.715C84.2035 252.217 87.8737 255.147 87.8988 255.226C87.9238 255.305 86.8063 257.868 85.4156 260.921C83.298 265.57 82.814 266.436 82.4406 266.245C82.1956 266.119 78.1711 263.091 73.4974 259.516ZM19.1619 230.601L18.2549 229.833L22.2322 229.241C24.4196 228.915 27.9109 228.382 29.9905 228.057L33.7714 227.465L38.6797 231.247C41.3792 233.328 43.4129 235.085 43.1991 235.151C42.9853 235.218 39.4293 235.696 35.2976 236.213L27.7847 237.152L23.9269 234.261C21.8048 232.67 19.6607 231.024 19.1619 230.601ZM89.0214 266.416C87.5665 265.32 86.3263 264.285 86.2654 264.115C86.2042 263.945 86.3276 263.276 86.5396 262.629C86.8892 261.563 86.9815 261.502 87.5318 261.973C87.8654 262.26 89.3348 263.416 90.7974 264.543L93.456 266.593L92.9139 267.677C92.283 268.937 92.4366 268.987 89.0214 266.416ZM9.92774 225.697C7.7967 224.083 2.98914 220.469 -0.755739 217.664C-4.50062 214.86 -8.29367 211.981 -9.18475 211.266L-10.8047 209.966L-2.80938 208.229C2.96725 206.974 5.37818 206.619 5.87788 206.947C7.36953 207.927 29.9309 225.273 30.3324 225.748C30.6553 226.131 28.7358 226.564 22.4744 227.523C17.9179 228.22 14.1024 228.755 13.9959 228.711C13.8895 228.666 12.0588 227.31 9.92774 225.697ZM-30.5306 203.343C-32.0035 202.239 -33.0817 201.255 -32.9264 201.157C-32.771 201.058 -30.1508 200.332 -27.1034 199.544L-21.5626 198.111L-23.0576 200.599C-26.5016 206.331 -26.5606 206.405 -27.2368 205.854C-27.5757 205.577 -29.0577 204.448 -30.5306 203.343ZM91.236 262.672C87.3489 259.733 87.5409 260.106 88.7117 257.766L89.7324 255.726L92.5195 255.529C94.0526 255.421 96.6388 255.215 98.267 255.072L101.228 254.813L104.422 257.387C106.291 258.894 107.662 260.246 107.727 260.646C107.789 261.022 108.614 261.93 109.562 262.663C110.51 263.396 111.337 264.134 111.401 264.303C111.588 264.8 95.0679 265.542 94.4195 265.066C94.0991 264.83 92.6664 263.753 91.236 262.672ZM-39.0985 194.393C-41.8118 192.372 -47.0786 188.448 -50.8025 185.672C-54.5264 182.896 -57.7376 180.542 -57.9383 180.442C-58.1393 180.341 -55.406 179.244 -51.8648 178.005L-45.426 175.751L-43.3621 177.319C-31.5233 186.314 -23.4362 192.477 -22.2075 193.44L-20.7169 194.608L-27.2716 196.397C-30.8768 197.38 -33.9028 198.158 -33.996 198.125C-34.0891 198.093 -36.3854 196.413 -39.0985 194.393ZM-7.32613 201.601L-3.55218 195.07L-1.95698 194.629C1.64935 193.634 12.8008 190.847 12.8012 190.941C12.8015 190.997 11.0812 194.098 8.97825 197.832C6.03559 203.058 4.99212 204.676 4.44692 204.86C3.35509 205.228 -11.026 208.362 -11.0653 208.24C-11.0848 208.181 -9.40198 205.194 -7.32613 201.601ZM123.847 271.831C113.748 263.851 111.258 261.841 111.186 261.615C111.156 261.521 116.103 261.141 122.181 260.771L133.23 260.098L144.448 269.285L155.666 278.472L152.735 278.514C151.123 278.537 146.084 278.647 141.537 278.759C136.99 278.871 133.037 278.85 132.752 278.711C132.467 278.573 128.46 275.477 123.847 271.831ZM39.8734 229.998C37.0347 227.79 34.6766 225.965 34.6336 225.942C34.5907 225.919 34.7412 225.528 34.9683 225.074C35.3112 224.389 35.4895 224.336 36.0176 224.768C36.3679 225.053 38.7218 226.886 41.2491 228.84C43.7765 230.794 45.9823 232.537 46.1507 232.713C46.4554 233.032 45.6224 234.306 45.2363 234.112C45.1255 234.056 42.7122 232.205 39.8734 229.998ZM50.9594 233.457C45.5651 229.273 40.3267 225.24 39.3181 224.494C37.8474 223.407 37.607 223.1 38.1027 222.943C38.4427 222.836 42.7082 222.107 47.5815 221.322L56.442 219.896L59.7399 222.496C64.5959 226.324 80.6506 239.132 80.9325 239.403C81.3094 239.765 62.0228 241.691 61.3567 241.358C61.0324 241.196 56.3534 237.64 50.9594 233.457ZM81.0717 247.583L74.0711 242.094L77.018 241.754C78.6389 241.567 80.8739 241.323 81.9843 241.212L84.0033 241.01L85.502 237.764C86.3263 235.978 87.0718 234.554 87.1589 234.599C87.2461 234.644 90.9586 237.613 95.409 241.196C99.8595 244.779 104.781 248.735 106.345 249.986C107.91 251.237 109.214 252.328 109.242 252.41C109.271 252.492 107.183 252.724 104.603 252.926C102.023 253.128 97.5743 253.486 94.7178 253.722C90.9797 254.031 89.3207 254 88.7987 253.612C88.3995 253.315 84.9224 250.602 81.0717 247.583ZM19.3104 214.992C12.425 209.717 6.77532 205.351 6.75569 205.29C6.73607 205.228 8.63582 201.763 10.9771 197.591C14.6192 191.1 15.3036 190.043 15.7198 190.268C15.9871 190.412 21.7224 194.908 28.465 200.259L40.7237 209.988L39.6106 212.476C38.9982 213.844 37.1972 217.315 35.6082 220.19C33.0464 224.825 32.6685 225.37 32.2739 225C32.0292 224.77 26.1954 220.267 19.3104 214.992ZM-49.8818 165.853L-42.0816 153.831L-39.0078 152.547C-37.3174 151.841 -35.9274 151.319 -35.9189 151.387C-35.9104 151.455 -38.5129 155.553 -41.7022 160.494C-44.8911 165.435 -47.7502 169.957 -48.0556 170.544C-48.6441 171.675 -48.5876 171.791 -46.8039 173.103L-45.6656 173.94L-51.635 176.031C-54.9181 177.181 -57.6219 178.067 -57.6435 177.999C-57.6647 177.932 -54.1722 172.466 -49.8818 165.853ZM113.049 253.084C113.293 252.981 118.469 252.513 124.553 252.045C137.223 251.071 136.206 250.668 134.032 255.796L132.886 258.501L121.342 259.153L109.797 259.805L111.202 256.538C111.974 254.742 112.806 253.187 113.049 253.084ZM107.744 257.739C108.008 257.758 108.367 257.937 108.54 258.138C108.714 258.338 108.497 258.323 108.059 258.104C107.621 257.884 107.479 257.72 107.744 257.739ZM104.4 255.069C104.028 254.487 105.649 255.649 106.745 256.75C107.18 257.186 106.948 257.102 106.071 256.504C105.336 256.003 104.584 255.357 104.4 255.069ZM-20.2515 192.741C-20.4429 192.645 -20.0784 192.366 -19.4414 192.122C-17.9256 191.539 -17.7296 191.686 -18.5126 192.816C-18.9707 193.477 -19.2653 193.627 -19.5303 193.331C-19.7356 193.102 -20.06 192.837 -20.2515 192.741ZM39.8177 215.806L42.7063 210.617L52.1065 208.814C57.2765 207.822 61.5827 207.048 61.6757 207.095C61.7687 207.141 60.6017 209.664 59.0824 212.701L56.3198 218.222L53.3937 218.697C39.5018 220.951 37.0333 221.323 36.985 221.17C36.9542 221.074 38.2292 218.66 39.8177 215.806ZM107.44 255.035C107.008 254.546 107.12 254.468 108.436 254.333C110.342 254.136 110.415 254.191 109.828 255.365C109.424 256.173 109.21 256.28 108.631 255.967C108.243 255.757 107.707 255.337 107.44 255.035ZM-24.2212 188.142C-26.9286 186.127 -43.7894 173.307 -45.1049 172.262C-45.9086 171.625 -45.7758 171.558 -38.8103 169.121C-31.7549 166.653 -31.6865 166.639 -30.7173 167.441C-30.1799 167.887 -29.7264 168.32 -29.7104 168.405C-29.6939 168.489 -30.2584 169.467 -30.9647 170.579C-31.6714 171.69 -32.2749 172.794 -32.3065 173.031C-32.3384 173.269 -30.2705 175.079 -27.7119 177.054C-25.153 179.03 -20.8291 182.367 -18.1033 184.472C-15.3775 186.576 -13.1945 188.393 -13.2524 188.509C-13.4946 188.993 -20.9674 190.695 -21.3438 190.351C-21.5695 190.146 -22.8643 189.151 -24.2212 188.142ZM146.5 268.8C133.1 257.836 134.443 259.156 135.082 257.574C138.702 248.613 147.508 227.269 147.603 227.227C147.789 227.144 169.309 245.86 169.432 246.211C169.52 246.458 158.536 275.839 157.835 277.233C157.722 277.458 157.443 277.549 157.215 277.435C156.988 277.321 152.166 273.435 146.5 268.8ZM76.1377 233.364C72.6453 230.59 67.286 226.336 64.2277 223.911C61.1693 221.486 58.4561 219.296 58.1985 219.045C57.7682 218.626 58.0694 217.91 61.8598 210.335L65.9901 202.082L68.1005 201.768L70.211 201.454L72.2956 203.133C75.9614 206.085 92.0947 219.464 92.1159 219.57C92.1273 219.626 90.1165 223.963 87.6477 229.207C84.5339 235.822 83.0558 238.692 82.8229 238.575C82.6382 238.483 79.6298 236.137 76.1377 233.364ZM108.931 248.402C102.936 243.602 89.7405 232.976 89.5126 232.766C89.3787 232.642 90.4834 232.404 91.9678 232.237C93.4522 232.07 98.4195 231.467 103.006 230.897L111.346 229.862L120.166 237.2C125.017 241.236 130.192 245.539 131.667 246.762C133.141 247.986 134.363 249.126 134.382 249.296C134.435 249.761 112.514 251.375 112.041 250.941C111.816 250.734 110.416 249.591 108.931 248.402ZM-16.6865 183.442C-23.4097 178.265 -29.0825 173.85 -29.2931 173.631C-29.5546 173.358 -28.1718 172.743 -24.937 171.691C-22.3309 170.844 -18.7916 169.675 -17.072 169.093L-13.9459 168.034L-1.25024 178.069C5.73209 183.589 11.7403 188.353 12.1011 188.658C12.7332 189.19 12.6946 189.223 11.0516 189.561C10.1135 189.754 6.45339 190.678 2.9179 191.614C-0.617409 192.551 -3.7244 193.213 -3.98613 193.085C-4.24836 192.958 -9.96339 188.619 -16.6865 183.442ZM-37.4354 156.923L-29.3036 144.238L-22.6923 141.452C-19.0562 139.92 -16.0525 138.756 -16.0176 138.866C-15.9826 138.977 -19.5991 144.87 -24.0543 151.964L-32.1546 164.861L-38.8046 167.271C-42.4619 168.597 -45.4797 169.665 -45.5107 169.645C-45.5417 169.625 -41.9077 163.9 -37.4354 156.923ZM29.4708 198.893C18.919 190.547 17.2343 189.103 17.7622 188.86C18.1014 188.703 19.5279 188.305 20.9322 187.974C22.3368 187.643 26.1789 186.663 29.4702 185.795C35.4206 184.227 35.4612 184.224 36.5271 185.101C37.1169 185.586 42.6988 190.12 48.9317 195.176C55.1644 200.232 60.4662 204.602 60.713 204.887C61.0807 205.312 60.6697 205.495 58.4576 205.896C56.9699 206.165 52.7604 206.962 49.1026 207.668C45.445 208.374 42.3049 208.881 42.124 208.796C41.9435 208.711 36.2495 204.255 29.4708 198.893ZM93.4681 220.674C93.5152 220.657 94.1739 221.145 94.9313 221.757L96.3083 222.871L105.369 221.583L114.43 220.295L112.839 224.113C111.599 227.09 111.11 227.978 110.626 228.139C110.284 228.253 105.228 228.936 99.3899 229.657L88.7763 230.969L91.0791 225.837C92.3456 223.014 93.4208 220.691 93.4681 220.674ZM-27.0094 167.362C-25.753 165.327 -22.0261 159.332 -18.7276 154.042L-12.7305 144.423L-7.16555 142.205C-4.10498 140.986 -1.18083 139.829 -0.667569 139.635C0.2515 139.288 0.236896 139.331 -1.61599 142.497C-3.4295 145.594 -3.47673 145.731 -2.92777 146.273C-2.51516 146.681 -2.49688 147.013 -2.86159 147.479C-3.13832 147.832 -5.78375 152.166 -8.7403 157.111L-14.1156 166.1L-21.6421 168.78C-25.7816 170.254 -29.1966 171.371 -29.2314 171.262C-29.2657 171.153 -28.2658 169.398 -27.0094 167.362ZM-11.6553 165.083C-11.0412 164.148 -10.4794 163.357 -10.4071 163.325C-10.3348 163.294 -5.04209 167.447 1.35451 172.555C7.75127 177.663 13.7235 182.426 14.6268 183.138L16.2686 184.434L15.3163 186.338L14.3639 188.241L0.796139 177.512L-12.7721 166.783L-11.6553 165.083ZM-30.302 165.354C-30.363 165.162 -13.5796 138.192 -13.3418 138.101C-13.155 138.029 -10.1989 140.448 -9.84999 140.959C-9.63134 141.279 -10.1559 141.65 -11.7617 142.311L-13.975 143.222L-20.6543 154.018C-29.1062 167.68 -28.5962 166.98 -29.5134 166.181C-29.9134 165.832 -30.2681 165.46 -30.302 165.354ZM124.759 238.818C118.232 233.387 112.844 228.801 112.787 228.628C112.729 228.454 113.553 226.45 114.617 224.173L116.552 220.033L119.258 219.601C121.189 219.291 122.064 218.962 122.312 218.45C122.504 218.055 124.341 213.872 126.396 209.154C128.45 204.437 130.199 200.553 130.283 200.524C130.401 200.482 147.548 215.473 149.281 217.132C149.623 217.46 148.667 220.01 143.561 232.389C140.189 240.563 137.331 247.616 137.209 248.063C137.088 248.509 136.907 248.834 136.808 248.784C136.709 248.734 131.287 244.249 124.759 238.818ZM18.2593 184.975C23.3872 183.577 35.3106 180.47 35.6971 180.431C36.078 180.392 36.0651 180.69 35.6492 181.522C35.1063 182.607 34.6158 182.781 26.0767 184.932C17.1177 187.188 17.0782 187.194 17.4781 186.138C17.6992 185.555 18.0507 185.032 18.2593 184.975ZM6.07164 174.166C0.274548 169.553 -5.45558 164.968 -6.66179 163.977L-8.85492 162.176L0.0180522 159.088L8.89102 156L21.9974 166.719C29.2057 172.614 35.3158 177.684 35.5754 177.984C35.9656 178.436 34.6681 178.898 28.0625 180.661C23.6707 181.833 19.5502 182.95 18.9056 183.144C18.2029 183.355 17.509 183.308 17.1728 183.025C16.8644 182.766 11.8689 178.779 6.07164 174.166ZM49.9843 193.866C43.4462 188.545 37.8157 183.949 37.4717 183.651C36.942 183.191 36.9563 182.89 37.5667 181.67C37.9629 180.878 38.4111 180.292 38.5634 180.368C38.7154 180.445 41.0412 182.333 43.7325 184.565C50.2492 189.971 64.2172 201.4 64.4485 201.516C64.5498 201.566 64.2925 202.287 63.877 203.118C63.175 204.521 63.0768 204.59 62.4964 204.084C62.1528 203.785 56.5224 199.187 49.9843 193.866ZM-35.7235 140.3C-31.8178 134.291 -28.4345 129.245 -28.2052 129.087C-27.6566 128.709 -16.3612 123.423 -16.3311 123.531C-16.3181 123.577 -18.9 127.665 -22.0683 132.616C-27.5262 141.145 -27.909 141.664 -29.3578 142.485C-30.4271 143.091 -31.1212 143.791 -31.6653 144.814C-32.0935 145.618 -32.7289 146.618 -33.0769 147.038C-33.6569 147.736 -42.6501 151.775 -42.7717 151.391C-42.8008 151.3 -39.6292 146.308 -35.7235 140.3ZM84.8825 211.323C78.592 206.144 73.2386 201.663 72.9863 201.365C72.6192 200.932 74.6189 200.413 83.0264 198.756C88.8009 197.619 93.8194 196.748 94.1794 196.821C94.9785 196.984 119.229 217.534 118.954 217.815C118.629 218.145 97.3221 221.147 96.8016 220.936C96.5368 220.828 91.1732 216.503 84.8825 211.323ZM52.6708 189.693C45.9106 184.158 40.2822 179.532 40.163 179.414C40.0435 179.295 42.2793 178.588 45.131 177.843C47.9827 177.098 52.5993 175.861 55.3898 175.096C58.1804 174.331 60.645 173.795 60.8664 173.906C61.2429 174.095 85.7604 194.734 86.796 195.734C87.396 196.313 65.9874 200.711 65.3692 200.135C65.145 199.927 59.4307 195.228 52.6708 189.693ZM-4.85049 153.916C-2.86699 150.636 -1.19324 147.933 -1.13128 147.908C-1.06932 147.884 0.847596 149.393 3.12821 151.261L7.27458 154.658L-0.550947 157.395C-4.85522 158.9 -8.39473 160.075 -8.41669 160.006C-8.43879 159.936 -6.83398 157.196 -4.85049 153.916ZM33.2476 173.792C31.2598 172.178 29.5708 170.699 29.4946 170.506C29.418 170.313 31.1981 169.621 33.4504 168.968C35.7025 168.315 38.9875 167.317 40.7502 166.75C42.5131 166.183 43.9865 165.818 44.0248 165.939C44.0633 166.06 42.6944 168.739 40.9829 171.892C38.0805 177.239 37.8374 177.595 37.3661 177.176C37.0887 176.929 35.2353 175.406 33.2476 173.792ZM40.8876 175.487C41.473 174.484 43.013 171.704 44.31 169.311L46.6674 164.958L48.5111 164.446L50.3548 163.934L54.821 155.514L59.2869 147.094L67.7445 144.281L76.2017 141.468L75.6878 142.731C75.405 143.426 71.8793 150.246 67.8525 157.889L60.5313 171.783L58.9096 172.343C56.6322 173.128 40.3058 177.501 40.0411 177.397C39.9211 177.349 40.3022 176.49 40.8876 175.487ZM108.104 205.977C101.364 200.24 95.8221 195.46 95.7884 195.354C95.7149 195.122 110.412 164.172 110.633 164.095C110.718 164.065 113.242 166.266 116.242 168.986C119.241 171.705 124.601 176.542 128.152 179.733C131.704 182.925 134.645 185.616 134.689 185.713C134.767 185.887 123.039 212.946 121.693 215.699C121.217 216.67 120.915 216.985 120.686 216.747C120.506 216.559 114.844 211.712 108.104 205.977ZM12.8776 157.072C5.51794 151.034 -0.539531 145.982 -0.582956 145.844C-0.626545 145.707 1.30279 144.869 3.70479 143.981C7.6466 142.526 11.3884 141.104 16.9545 138.948L18.8897 138.198L33.3711 150.44C41.3358 157.173 47.7639 162.774 47.6556 162.887C47.5474 163 42.9409 164.421 37.4189 166.044C29.831 168.274 27.2424 168.879 26.8191 168.522C26.5112 168.261 20.2373 163.109 12.8776 157.072ZM154.319 230.683C148.576 225.686 148.235 225.371 148.488 225.283C148.614 225.239 150.759 226.988 153.255 229.17C155.75 231.352 158.112 233.303 158.504 233.504C158.896 233.706 159.152 234 159.073 234.158C158.857 234.59 158.578 234.387 154.319 230.683ZM-22.7619 136.743C-20.4933 133.135 -19.9437 132.404 -19.8115 132.821C-19.7267 133.089 -23.7112 139.554 -24.377 140.228C-25.3442 141.207 -24.7157 139.851 -22.7619 136.743ZM150.297 220.356C151.062 218.496 151.41 217.211 151.242 216.862C151.095 216.559 150.026 215.488 148.866 214.482L146.757 212.651L152.89 211.712C156.263 211.196 159.601 210.744 160.307 210.707C161.584 210.641 161.648 210.692 171.723 219.733C177.296 224.733 181.912 228.965 181.981 229.138C182.05 229.31 176.903 230.003 170.544 230.679L158.98 231.907L154.033 227.603L149.085 223.299L150.297 220.356ZM75.3381 183.793C68.2526 177.814 62.3887 172.757 62.307 172.555C62.1704 172.219 78.0916 141.633 78.4728 141.5C78.5647 141.468 81.6654 144.156 85.3629 147.473C89.0607 150.79 94.6884 155.826 97.869 158.663C101.05 161.5 103.696 163.968 103.751 164.147C103.805 164.326 100.492 171.442 96.3882 179.962C90.0727 193.073 88.8728 195.391 88.5738 195.058C88.3796 194.842 82.4234 189.772 75.3381 183.793ZM100.731 174.817L105.723 164.631L107.268 164.243L108.814 163.855L101.41 179.32L94.0074 194.785L92.4854 195.168L90.9634 195.551L93.3511 190.276C94.6646 187.376 97.9854 180.418 100.731 174.817ZM-19.9263 136.447C-19.1445 135.22 -18.4029 134.181 -18.2781 134.137C-18.1536 134.094 -17.3962 134.606 -16.595 135.276L-15.1384 136.493L-18.1912 137.749C-19.8701 138.44 -21.2674 138.931 -21.296 138.841C-21.3246 138.751 -20.7082 137.674 -19.9263 136.447ZM-13.2506 135.767C-16.0061 133.504 -18.2062 131.543 -18.1401 131.41C-17.9173 130.961 -3.04605 124.514 -2.51771 124.637C-2.23061 124.704 -0.333303 126.165 1.69816 127.884L5.39192 131.01L3.61457 133.876C1.65228 137.04 2.06703 136.749 -3.99561 139.215C-5.9945 140.028 -7.5783 140.453 -7.82306 140.242C-8.05257 140.044 -10.4949 138.031 -13.2506 135.767ZM3.05908 137.974C4.89327 134.971 8.83218 128.514 11.8115 123.624L17.2284 114.734L19.4816 113.734C20.7205 113.183 25.005 111.273 29.0025 109.49C33.6758 107.405 36.1543 106.478 35.9461 106.894C35.768 107.25 32.1847 113.348 27.9834 120.444C23.782 127.541 19.9466 134.061 19.4606 134.933L18.5764 136.52L9.20568 140.151C4.05148 142.148 -0.190255 143.704 -0.220708 143.608C-0.251476 143.512 1.22456 140.976 3.05908 137.974ZM144.542 210.662C144.6 210.545 150.424 209.541 154.662 208.917C154.864 208.887 157.557 202.683 160.647 195.129L166.263 181.395L167.552 181.099C168.261 180.937 169.664 180.659 170.669 180.482L172.498 180.16L171.975 181.647C170.035 187.17 161.119 208.63 160.704 208.774C160.439 208.867 156.86 209.447 152.749 210.063C146.117 211.059 144.276 211.193 144.542 210.662ZM-10.15 117.013C-5.97697 110.452 -2.23366 104.866 -1.83138 104.601C-0.659239 103.826 12.5968 97.2946 12.6506 97.4649C12.6778 97.5499 9.16356 103.272 4.84187 110.181L-3.01595 122.741L-7.25033 124.589C-9.57917 125.606 -12.8705 127.067 -14.5643 127.836C-16.258 128.607 -17.6648 129.17 -17.6906 129.09C-17.716 129.009 -14.323 123.574 -10.15 117.013ZM136.565 203.619C133.622 201.02 131.187 198.812 131.155 198.711C131.056 198.399 134.168 191.321 134.361 191.418C134.667 191.57 152.313 207.399 152.367 207.568C152.394 207.655 151.796 207.789 151.036 207.865C150.277 207.941 148.098 208.25 146.196 208.55C144.293 208.851 142.552 208.927 142.327 208.72C142.102 208.513 139.509 206.218 136.565 203.619ZM39.2385 153.252C34.6199 149.348 28.4139 144.096 25.4469 141.581L20.0526 137.008L21.1535 135.245C21.7589 134.276 25.9072 127.289 30.372 119.718C34.8366 112.147 38.5711 105.923 38.6704 105.885C38.8657 105.812 66.1833 130.203 66.293 130.549C66.3689 130.788 53.5924 154.615 51.0359 159.002L49.347 161.901L48.4915 161.126C48.0209 160.699 43.857 157.156 39.2385 153.252ZM-21.0394 120.163C-19.354 117.545 -17.8013 115.33 -17.5891 115.241C-17.3724 115.149 -16.5452 115.624 -15.7028 116.322C-13.137 118.452 -13.1979 118.346 -13.8178 119.585C-14.2928 120.534 -15.121 121.068 -18.667 122.709C-21.0191 123.798 -23.1804 124.817 -23.4704 124.974C-23.7601 125.131 -24.0214 125.184 -24.0507 125.091C-24.0801 124.999 -22.7252 122.781 -21.0394 120.163ZM177 222.211C173.604 219.147 169.033 215.028 166.842 213.058L162.859 209.476L163.263 208.086C163.905 205.882 174.047 180.925 174.344 180.821C174.491 180.77 176.958 182.954 179.825 185.675C182.692 188.395 187.108 192.575 189.637 194.962C192.167 197.35 194.308 199.557 194.395 199.866C194.482 200.176 192.319 206.411 189.587 213.722C186.856 221.032 184.526 227.402 184.41 227.876C184.235 228.588 184.11 228.655 183.686 228.259C183.405 227.997 180.396 225.275 177 222.211ZM144.908 198.532C140.037 194.176 135.795 190.301 135.48 189.921C134.981 189.318 135.019 189.04 135.773 187.744L136.637 186.258L142.495 185.064C145.716 184.407 148.487 183.751 148.652 183.606C148.817 183.461 150.362 180.015 152.086 175.949C153.811 171.883 155.323 168.521 155.449 168.477C155.684 168.395 165.262 177.288 165.607 177.908C165.713 178.1 163.53 183.76 160.756 190.486C157.981 197.211 155.373 203.605 154.959 204.694C154.545 205.784 154.107 206.625 153.985 206.563C153.863 206.502 149.778 202.888 144.908 198.532ZM2.43447 126.273C0.538677 124.68 -1.04575 123.272 -1.08625 123.144C-1.12674 123.017 2.45705 117.123 6.87807 110.047C11.2989 102.972 15.0167 96.9813 15.1396 96.7355C15.31 96.395 16.3143 97.1335 19.3712 99.8473C21.5755 101.805 23.4195 103.534 23.4691 103.69C23.5191 103.847 22.4199 105.835 21.0268 108.109C18.8748 111.622 18.305 112.34 17.2345 112.891C16.098 113.476 15.6038 114.155 12.1777 119.835C7.4094 127.741 6.33137 129.411 6.08126 129.277C5.97172 129.218 4.33057 127.867 2.43447 126.273ZM-20.6318 109.965C-24.9829 106.317 -28.5695 103.249 -28.6021 103.147C-28.6638 102.952 -16.4301 96.2219 -14.999 95.6638C-14.2021 95.3528 -13.9747 95.5096 -9.24935 99.6278C-6.54315 101.986 -4.28721 104.048 -4.23575 104.21C-4.14501 104.496 -10.5443 114.912 -11.6186 116.228C-11.913 116.588 -12.2809 116.818 -12.437 116.74C-12.5928 116.662 -16.2804 113.614 -20.6318 109.965ZM132.226 181.145C130.348 179.425 125.117 174.69 120.602 170.623C116.087 166.556 112.368 163.149 112.337 163.052C112.307 162.955 114.506 162.31 117.224 161.618L122.167 160.361L134.096 171.292C140.657 177.304 145.972 182.329 145.907 182.459C145.75 182.773 136.37 184.63 135.96 184.429C135.784 184.342 134.104 182.864 132.226 181.145ZM-20.4249 89.5826L-13.2253 78.8492L-6.71847 75.0674C-3.13982 72.9874 -0.204648 71.321 -0.195693 71.3644C-0.17629 71.4593 -14.1828 92.6721 -14.6771 93.2969C-14.9895 93.6913 -27.5002 100.564 -27.5876 100.389C-27.608 100.349 -24.3845 95.4856 -20.4249 89.5826ZM64.2587 138.215C66.1182 134.809 67.7137 131.998 67.8039 131.966C67.9354 131.92 74.2695 137.415 76.0339 139.106C76.3462 139.406 74.5169 140.182 69.5168 141.875C65.694 143.168 62.3169 144.325 62.012 144.446C61.7073 144.567 61.3275 144.607 61.1677 144.536C60.9994 144.461 62.2993 141.802 64.2587 138.215ZM95.128 153.926C89.6562 149.027 83.9546 143.925 82.4575 142.589L79.7359 140.161L83.9024 138.894L88.0685 137.626L89.8433 139.266C90.8195 140.168 96.52 145.348 102.512 150.777C108.503 156.206 113.361 160.737 113.307 160.845C113.252 160.954 112.046 161.306 110.625 161.628C109.204 161.95 107.436 162.383 106.695 162.591C105.955 162.799 105.288 162.938 105.213 162.901C105.138 162.863 100.6 158.824 95.128 153.926ZM135.348 170.155C128.811 164.159 123.453 159.219 123.44 159.177C123.383 158.984 137.161 129.679 137.339 129.617C137.449 129.579 141.581 133.465 146.522 138.252C151.462 143.04 156.621 148.034 157.985 149.349C160.348 151.625 160.449 151.793 160.108 152.83C159.911 153.43 157.39 159.378 154.505 166.049C151.621 172.72 148.992 178.919 148.664 179.826C148.22 181.054 147.961 181.421 147.651 181.265C147.421 181.15 141.885 176.151 135.348 170.155ZM-12.963 94.1028C-12.9999 94.0176 -9.47732 88.55 -5.13487 81.9526L2.76066 69.9574L3.90626 70.9387C4.53633 71.4785 5.12195 72.1071 5.20709 72.3358C5.30049 72.5846 4.17375 74.5595 2.39833 77.2594C0.74015 79.7815 -0.499721 81.9395 -0.415585 82.1575C-0.33282 82.3718 2.85185 85.2728 6.66145 88.6046C10.4712 91.936 13.6172 94.7186 13.6525 94.7874C13.6878 94.8568 10.0135 96.7451 5.48725 98.9845L-2.7425 103.056L-7.8188 98.6568C-10.6111 96.2373 -12.926 94.1882 -12.963 94.1028ZM106.764 152.394C102.633 148.629 97.6518 144.091 95.6952 142.31C93.7388 140.528 91.4943 138.476 90.7079 137.75L89.2779 136.429L93.5319 128.034C95.8717 123.417 99.3183 116.797 101.191 113.323L104.596 107.006L116.76 118.631L128.923 130.256L125.907 136.76C116.72 156.574 115.183 159.693 114.723 159.463C114.477 159.34 110.896 156.159 106.764 152.394ZM124.638 143.408L130.678 130.769L133.042 129.976L135.406 129.184L133.341 133.814C132.205 136.361 129.327 142.54 126.944 147.547C124.562 152.553 122.448 157.119 122.246 157.695C121.929 158.601 121.564 158.818 119.521 159.322L117.163 159.904L117.88 157.976C118.275 156.916 121.316 150.36 124.638 143.408ZM23.2875 107.557C24.4068 105.785 25.4922 104.224 25.6996 104.088C26.2898 103.701 41.9953 96.4646 42.3161 96.4317C42.642 96.398 40.2557 100.755 39.0506 102.394C38.441 103.223 36.2463 104.383 29.8003 107.283C25.1523 109.374 21.3276 111.016 21.3007 110.932C21.2742 110.848 22.1682 109.33 23.2875 107.557ZM69.5093 130.962C62.2649 124.472 54.3352 117.4 51.9112 115.267L50.8331 114.319L52.9377 110.589C60.3244 97.4967 65.8482 87.8423 66.6129 86.6865C67.3932 85.5074 67.5735 85.4067 68.1158 85.8456C68.4545 86.12 74.1824 91.4942 80.8445 97.7883C87.5065 104.083 93.0283 109.268 93.115 109.311C93.2787 109.393 82.1054 130.983 80.3119 134.05C79.7509 135.009 78.9717 136.411 78.5796 137.166C78.0871 138.114 77.7654 138.433 77.5386 138.199C77.3578 138.013 73.7448 134.756 69.5093 130.962ZM85.7895 127.058C89.0269 120.845 92.4412 114.435 93.3768 112.813L95.0777 109.863L98.7251 108.522L102.372 107.181L94.9851 121.503L87.5974 135.824L83.8564 137.142C81.799 137.867 80.0677 138.435 80.0091 138.406C79.9508 138.377 82.5517 133.27 85.7895 127.058ZM179.141 182.67L174.326 178.127L171.746 178.547C168.537 179.068 167.913 178.414 170.971 177.734C172.205 177.46 173.308 177.055 173.421 176.836C173.534 176.616 175.593 171.558 177.996 165.597C180.399 159.635 182.462 154.723 182.581 154.682C182.7 154.64 184.886 156.678 187.438 159.21C189.99 161.742 193.463 165.165 195.156 166.816C196.85 168.467 198.27 169.903 198.313 170.007C198.39 170.191 190.731 190.686 190.058 192.097C189.721 192.804 189.69 192.783 186.837 190.012C185.253 188.472 181.789 185.168 179.141 182.67ZM161.509 171.575C158.689 168.91 156.36 166.5 156.335 166.22C156.31 165.941 156.559 165.168 156.888 164.504C157.465 163.339 157.514 163.321 158.231 163.997C164.304 169.733 170.35 175.539 170.493 175.774C170.734 176.169 167.757 176.944 167.128 176.65C166.858 176.525 164.33 174.241 161.509 171.575ZM15.3176 93.9916C5.60035 85.4395 2.00643 82.2276 1.97734 82.07C1.92474 81.7835 19.6613 72.3581 19.9131 72.5386C20.2965 72.8136 41.3549 91.9859 42.4092 93.0199L43.2902 93.8837L41.8063 94.6398C40.4852 95.3131 30.5107 99.9508 26.3993 101.804L24.8326 102.509L23.6009 101.354C22.9233 100.718 19.1958 97.4052 15.3176 93.9916ZM162.365 165.611C159.279 162.7 158.504 161.786 158.579 161.149C158.632 160.709 159.532 158.384 160.58 155.983C161.627 153.582 162.386 151.453 162.265 151.253C162.145 151.053 160.494 149.408 158.596 147.598L155.146 144.309L156.6 140.904C157.399 139.031 159.079 135.214 160.332 132.42L162.61 127.341L166.312 131.008C168.348 133.025 173.008 137.671 176.667 141.332L183.321 147.989L177.928 161.325C174.962 168.659 172.483 174.754 172.419 174.869C172.355 174.984 170.939 173.772 169.274 172.176C167.608 170.579 164.499 167.625 162.365 165.611ZM44.4632 108.579L40.0781 104.606L41.5158 101.889C42.3067 100.394 43.5613 98.1787 44.3038 96.9655L45.6538 94.7601L54.9898 90.428C60.1246 88.0455 64.5454 86.0217 64.8136 85.9306C65.1438 85.8183 64.8434 86.5286 63.8838 88.129C63.1041 89.4293 60.263 94.3699 57.5707 99.1084C50.4977 111.556 49.6342 112.965 49.2141 112.744C49.013 112.638 46.875 110.764 44.4632 108.579ZM7.75405 72.0607C10.277 68.1796 13.6714 62.9938 15.297 60.5361L18.2525 56.0683L26.0687 51.3777C30.3676 48.7983 34.0764 46.615 34.3109 46.5262C34.5532 46.4343 34.4244 46.8112 34.0115 47.4009C33.6127 47.971 30.1251 53.4155 26.2615 59.5001L19.2368 70.5627L11.2634 74.9926C6.87806 77.4288 3.26195 79.3536 3.22815 79.2699C3.19421 79.1857 5.23094 75.9421 7.75405 72.0607ZM199.475 171.841C199.744 171.513 199.976 171.572 200.447 172.089C201.045 172.746 201.037 172.774 200.227 172.926C199.313 173.098 198.916 172.525 199.475 171.841ZM190.19 159.535L183.229 152.656L184.109 150.381C186.505 144.187 193.218 127.704 193.365 127.653C193.458 127.62 195.173 129.305 197.176 131.396C199.18 133.487 203.307 137.776 206.347 140.926L211.876 146.654L207.451 158.449C205.017 164.937 202.933 170.597 202.82 171.026C202.585 171.914 204.222 173.403 190.19 159.535ZM40.0647 88.5718L35.3732 84.2755L45.1876 79.3701C50.5857 76.6723 55.1822 74.4016 55.4016 74.3245C55.6215 74.2472 56.2124 74.5699 56.7146 75.0413C57.217 75.5131 59.3971 77.557 61.5595 79.5836C63.7218 81.6105 65.5187 83.3536 65.5524 83.4574C65.6205 83.6668 65.1004 83.9181 53.3863 89.331C48.8784 91.4141 45.0922 93.0621 44.9732 92.9935C44.854 92.9244 42.6452 90.9346 40.0647 88.5718ZM153.829 136.028C155.034 133.348 156.245 130.525 156.52 129.757C156.975 128.49 157.195 128.302 158.88 127.736L160.74 127.112L159.573 129.935C158.931 131.487 157.382 135.039 156.132 137.828L153.859 142.898L152.749 141.9L151.639 140.903L153.829 136.028ZM27.004 76.6343C23.7036 73.6151 20.9891 71.0997 20.9721 71.0453C20.933 70.9213 37.086 45.585 37.3546 45.3489C37.4627 45.2539 40.2138 47.7343 43.4688 50.8603C47.5183 54.7497 49.338 56.7154 49.2322 57.0854C49.0923 57.5735 37.1813 77.2584 34.66 81.1681C33.9835 82.2168 33.5151 82.6635 33.3138 82.4505C33.1439 82.2709 30.3047 79.6537 27.004 76.6343ZM8.15712 67.9562C8.38944 67.7458 8.42607 67.8613 8.25032 68.2507C8.09118 68.6031 7.91924 68.7588 7.86792 68.5971C7.81661 68.4354 7.94667 68.1468 8.15712 67.9562ZM142.493 132.015L137.271 126.977L134.407 127.875C129.887 129.293 130.399 129.378 127.657 126.758L125.238 124.446L125.779 122.874C126.436 120.966 133.749 106.283 133.984 106.401C134.375 106.596 155.338 127.438 155.436 127.728C155.495 127.904 154.374 130.641 152.945 133.811L150.347 139.574L149.031 138.313C148.307 137.62 145.365 134.785 142.493 132.015ZM43.7471 69.517L51.2953 57.1755L57.6558 53.7323C61.1543 51.8388 65.3739 49.5381 67.0329 48.62C68.692 47.7018 70.0773 47.0402 70.1119 47.1493C70.1775 47.3558 57.6628 68.6229 55.9969 71.1358C55.1687 72.3852 54.1786 73.0028 48.3233 75.9218C44.6259 77.7654 40.3959 79.8904 38.9233 80.6445C37.4507 81.3985 36.2353 81.98 36.2221 81.937C36.2095 81.8938 39.5953 76.3049 43.7471 69.517ZM9.7138 65.6362C9.95151 65.3609 9.88809 65.6516 9.57242 66.2826C9.25675 66.9135 9.06206 67.1386 9.13986 66.7833C9.21733 66.4278 9.47577 65.9113 9.7138 65.6362ZM113.781 113.443C108.914 108.787 104.743 104.884 104.513 104.769C104.283 104.654 102.283 105.267 100.069 106.131L96.0431 107.703L102.654 95.0283C106.29 88.0575 109.341 82.3221 109.433 82.2836C109.526 82.2449 110.959 83.5439 112.618 85.17C119.472 91.8878 132.316 104.684 132.353 104.831C132.375 104.919 130.478 109.075 128.139 114.069L123.884 123.148L123.258 122.528C122.913 122.187 118.649 118.099 113.781 113.443ZM89.2607 103.426C86.8774 101.185 84.86 99.1777 84.7779 98.967C84.6952 98.7564 85.7197 96.6586 87.0543 94.3057L89.4807 90.0276L97.8319 86.4444C102.425 84.4733 106.442 82.7656 106.759 82.6491C107.202 82.4859 106.607 83.8443 104.183 88.5317C98.9744 98.6047 94.0152 107.712 93.7979 107.605C93.6856 107.549 91.6438 105.669 89.2607 103.426ZM11.5082 62.8458C11.7459 62.5705 11.6825 62.8613 11.3668 63.4922C11.0512 64.1231 10.8565 64.3482 10.9343 63.9929C11.0117 63.6375 11.2702 63.1209 11.5082 62.8458ZM66.1247 81.6042C61.1304 76.9187 57.0195 73.0436 56.9892 72.9928C56.9242 72.8845 72.7667 46.1085 72.9333 46.0447C72.9958 46.0207 74.8955 47.8306 77.1556 50.0665C79.4153 52.3024 84.9209 57.749 89.3901 62.1705C93.8595 66.5917 97.579 70.387 97.6558 70.6037C97.7897 70.9817 85.7104 93.7677 83.9845 96.3924L83.149 97.6635L79.177 93.8936C76.9927 91.82 71.119 86.2897 66.1247 81.6042ZM13.1386 60.3832C13.3763 60.1079 13.3129 60.3987 12.9973 61.0296C12.6816 61.6605 12.4869 61.8856 12.5647 61.5303C12.6422 61.1748 12.9006 60.6583 13.1386 60.3832ZM183.263 145.496C182.902 144.87 189.839 127.83 190.594 127.485C191.517 127.064 191.628 127.36 191.05 128.703C190.272 130.509 185.676 141.86 184.772 144.208C184.03 146.135 183.762 146.363 183.263 145.496ZM180.226 142.468C179.58 141.82 175.662 137.906 171.518 133.772L163.984 126.254L165.545 125.682L167.107 125.11L171.147 115.756C173.369 110.611 175.264 106.374 175.358 106.342C175.452 106.309 178.465 109.338 182.053 113.073C185.641 116.808 189.004 120.263 189.527 120.751C190.049 121.239 190.502 121.71 190.533 121.797C190.595 121.972 182.766 141.402 182.051 142.847C181.805 143.343 181.558 143.727 181.502 143.699C181.445 143.671 180.871 143.117 180.226 142.468ZM14.5149 58.4335C14.7472 58.2231 14.7838 58.3385 14.6081 58.728C14.4489 59.0803 14.277 59.2361 14.2256 59.0743C14.1743 58.9126 14.3044 58.624 14.5149 58.4335ZM146.005 115.832C140.13 110.039 135.285 105.211 135.24 105.103C135.194 104.995 136.908 104.296 139.048 103.55L142.941 102.191L153.791 113.055C159.759 119.03 164.668 123.975 164.701 124.044C164.809 124.268 157.152 126.596 156.83 126.437C156.751 126.397 151.879 121.625 146.005 115.832ZM91.0093 86.7965C91.2757 86.2642 94.2492 84.7678 100.458 82.0414C108.461 78.5271 109.48 78.1699 109.185 78.9814C108.918 79.7174 107.913 80.3065 104.134 81.9416C96.0762 85.4278 90.7937 87.6598 90.7054 87.6157C90.6589 87.5924 90.7955 87.2239 91.0093 86.7965ZM155.112 112.014C149.264 106.136 144.435 101.184 144.379 101.01C144.324 100.835 146.991 95.0146 150.306 88.0751L156.333 75.458L163.345 82.8326C167.201 86.8888 171.881 91.7985 173.744 93.7428C175.607 95.6872 177.151 97.3419 177.176 97.42C177.223 97.566 167.402 120.378 166.595 122C166.348 122.496 166.056 122.857 165.945 122.802C165.835 122.747 160.96 117.892 155.112 112.014ZM122.154 92.2142C116.657 86.7827 111.751 81.933 111.252 81.4365L110.346 80.5343L116.858 68.0152C120.439 61.1292 123.444 55.47 123.534 55.4383C123.625 55.4065 126.698 58.5028 130.363 62.3187C134.027 66.1345 138.955 71.2225 141.312 73.6254L145.599 77.9937L143.043 83.103C141.637 85.9131 138.9 91.6196 136.962 95.7845L133.437 103.356L132.793 102.723C132.439 102.374 127.651 97.6452 122.154 92.2142ZM96.5619 76.8037L99.9866 70.5122L99.1583 69.547C98.7029 69.0163 94.7747 65.0777 90.4289 60.795C82.5791 53.0584 82.5329 53.0041 83.34 52.5207C83.9986 52.1262 84.2902 52.1651 84.8785 52.7254C85.2781 53.1057 90.4474 58.2463 96.366 64.1495C102.285 70.0523 107.479 75.1843 107.91 75.5543C108.428 75.9992 108.556 76.3533 108.289 76.6024C107.82 77.0388 93.5472 83.3003 93.3016 83.1774C93.2111 83.1322 94.678 80.264 96.5619 76.8037ZM200.613 132.555L193.263 124.974L192.239 125.296C190.918 125.711 190.826 125.318 191.793 123.387C192.433 122.106 192.486 121.678 192.077 121.085C191.58 120.363 191.591 120.351 193.133 119.97C193.989 119.758 194.837 119.651 195.015 119.732C195.194 119.813 197.16 121.795 199.384 124.137C201.608 126.478 205.7 130.767 208.478 133.667C211.256 136.568 213.356 138.998 213.145 139.067C212.332 139.333 208.242 140.247 208.106 140.193C208.028 140.162 204.656 136.725 200.613 132.555ZM141.143 90.9397C144.091 84.9838 146.581 79.768 146.677 79.3492C146.804 78.7906 147.587 78.2919 149.611 77.4786C151.129 76.8689 152.817 76.16 153.362 75.9031C154.345 75.4405 154.327 75.4907 151.109 82.4049C149.325 86.2372 146.711 91.8641 145.301 94.9089L142.736 100.445L139.175 101.826C136.171 102.99 135.627 103.094 135.698 102.488C135.745 102.092 138.195 96.8955 141.143 90.9397ZM199.793 122.144L196.117 118.367L200.842 106.678C203.44 100.249 205.641 94.9636 205.731 94.9323C205.822 94.9005 209.892 99.2292 214.777 104.551L223.659 114.227L219.914 124.214C217.853 129.707 215.871 135.016 215.507 136.011L214.846 137.82L209.158 131.87C206.029 128.598 201.815 124.221 199.793 122.144ZM44.6024 49.5895L41.4504 46.5339L42.8344 44.2783C43.5954 43.0375 44.2638 41.9999 44.3196 41.9721C44.3757 41.9444 44.9483 42.4518 45.592 43.0997C46.2362 43.7473 48.1543 45.6262 49.8551 47.2747L52.9469 50.2714L52.1486 51.6194C51.7096 52.3607 51.0445 53.4003 50.6705 53.9296L49.9903 54.892L48.8723 53.7687C48.2574 53.1508 46.336 51.2704 44.6024 49.5895ZM53.4947 52.5654C54.7693 50.6214 55.0212 50.4491 63.2569 45.889C67.9063 43.3144 71.7344 41.2834 71.7636 41.3755C71.7928 41.4676 71.2291 42.4391 70.5109 43.5346C69.2351 45.4804 69.0106 45.632 60.7327 50.1546C56.0729 52.7006 52.2438 54.7336 52.2236 54.6722C52.203 54.6107 52.7752 53.6627 53.4947 52.5654ZM39.7965 44.2156C41.4052 43.117 41.5564 43.1164 41.0153 44.2107C40.5916 45.067 40.3588 45.214 39.8389 44.9539C39.3123 44.6905 39.3043 44.552 39.7965 44.2156ZM182.748 111.332C179.236 107.689 176.322 104.58 176.272 104.422C176.222 104.264 176.855 102.587 177.679 100.694L179.178 97.2535L178.38 96.2704C177.425 95.0935 177.467 94.9353 180.487 88.2784C181.696 85.6149 183.058 82.4814 183.513 81.3149L184.342 79.1939L186.753 81.8263C188.079 83.2741 191.437 86.9018 194.215 89.8875C196.993 92.8731 199.314 95.4558 199.373 95.6264C199.432 95.7972 197.717 100.218 195.563 105.452C193.409 110.685 191.299 115.883 190.874 117.003C190.153 118.905 190.07 119.004 189.618 118.498C189.352 118.199 186.26 114.974 182.748 111.332ZM197.268 105.69L201.508 95.3122L202.655 94.9014L203.802 94.4906L203.423 95.6956C203.214 96.3583 201.151 101.574 198.837 107.285L194.629 117.669L193.296 118.17L191.962 118.671L192.495 117.369C192.788 116.653 194.936 111.398 197.268 105.69ZM48.2715 43.3683C45.2105 40.4471 42.6364 37.8819 42.5514 37.6672C42.4434 37.3944 56.6399 28.4251 60.5248 26.3118C60.783 26.1714 72.6801 38.3401 72.5371 38.5989C72.2814 39.0623 54.4205 48.9622 54.1111 48.8123C53.9606 48.739 51.3326 46.2895 48.2715 43.3683ZM97.6015 63.0301C91.0467 56.5135 85.6533 51.0862 85.616 50.9688C85.5103 50.6356 99.4846 26.2775 99.8824 26.1019C100.17 25.9749 123.072 49.3679 123.27 49.99C123.302 50.0918 120.377 55.816 116.769 62.7102C112.188 71.4647 110.106 75.1899 109.864 75.0618C109.674 74.9606 104.156 69.5465 97.6015 63.0301ZM49.7933 24.7319C53.1818 19.4402 56.0334 14.9659 56.1303 14.789C56.2268 14.6119 58.9119 12.8204 62.0965 10.8076C65.2814 8.79486 69.0273 6.38298 70.4212 5.4478C71.815 4.51292 72.9687 3.79927 72.9851 3.862C73.0014 3.92503 70.1259 8.6165 66.5953 14.2878L60.1759 24.5993L51.934 29.5723C47.4007 32.3073 43.6783 34.5019 43.6621 34.4491C43.6456 34.3962 46.4049 30.0236 49.7933 24.7319ZM77.206 47.7113L73.6677 44.2321L75.025 41.9533C77.6473 37.5495 77.8309 37.3577 81.156 35.5504C82.9064 34.5985 85.2953 33.2845 86.4647 32.63C87.6342 31.9755 90.5591 30.3376 92.9645 28.9905C95.3704 27.6433 97.347 26.6037 97.3575 26.6807C97.3682 26.7574 96.3026 28.6801 94.9896 30.9532C93.6766 33.2264 90.6174 38.5463 88.1912 42.7753C84.0827 49.936 83.6937 50.5098 82.53 51.1209C81.8426 51.4822 81.1599 51.6455 81.0126 51.4837C80.8651 51.3222 79.1522 49.6247 77.206 47.7113ZM164.415 81.4958C160.267 77.1502 156.614 73.4653 156.298 73.307C155.981 73.1486 155.566 73.1712 155.375 73.3575C155.184 73.5436 154.992 73.5862 154.949 73.4519C154.906 73.3178 157.334 68.0367 160.344 61.7166L165.818 50.2253L166.651 51.1945C167.11 51.7276 171.489 56.5186 176.384 61.8414C181.278 67.1642 185.36 71.7651 185.453 72.0657C185.56 72.407 184.163 75.8847 181.736 81.3217C179.597 86.1118 177.506 90.924 177.089 92.0151L176.33 93.9993L174.143 91.698C172.941 90.4321 168.563 85.8411 164.415 81.4958ZM144.737 74.8342C144.164 74.2866 143.741 73.7519 143.797 73.6467C143.853 73.5411 145.509 72.7854 147.477 71.9671L151.056 70.4794L155.378 61.3727L159.701 52.266L161.66 51.4146L163.619 50.5633L162.416 53.432C161.754 55.0098 159.321 60.2188 157.01 65.0079L152.807 73.7148L149.615 74.934C147.86 75.6044 146.278 76.0802 146.101 75.9914C145.924 75.9026 145.31 75.3818 144.737 74.8342ZM132.936 62.578C127.971 57.4661 123.872 53.1998 123.829 53.097C123.785 52.9943 124.007 52.8207 124.321 52.7111C124.662 52.5919 125.404 51.4867 126.171 49.9555C126.922 48.4527 127.582 47.4653 127.771 47.56C128.073 47.7111 148.528 69.0169 148.68 69.3388C148.849 69.6957 142.702 72.2419 142.236 72.0084C142.086 71.9337 137.902 67.6902 132.936 62.578ZM68.1779 31.4244C64.7265 27.981 61.892 25.1338 61.8793 25.0971C61.8666 25.0604 64.8828 20.1824 68.5821 14.2574C72.2811 8.33227 75.4405 3.23249 75.6031 2.92495C75.8519 2.45317 76.9735 3.47946 82.7605 9.47421C86.5349 13.3842 89.6348 16.6362 89.6491 16.7016C89.6636 16.7666 87.285 20.8797 84.3632 25.8414C79.3688 34.323 78.9746 34.9024 77.7743 35.5284C77.0721 35.8946 76.2713 36.6467 75.9948 37.1992C75.6393 37.9098 75.3396 38.1283 74.9726 37.9447C74.6872 37.8019 71.6298 34.8677 68.1779 31.4244ZM146.528 64.5613C144.655 62.6299 140.715 58.5197 137.772 55.4271C134.828 52.3348 131.546 48.8985 130.478 47.7908L128.536 45.7768L134.456 34.4134C137.712 28.1635 140.482 23.0128 140.612 22.9672C140.742 22.922 143.089 25.3295 145.828 28.3167C148.568 31.3044 153.139 36.2913 155.987 39.3992L161.165 45.0496L159.289 49.3148C157.43 53.5396 150.204 68.209 150.025 68.1195C149.974 68.094 148.4 66.4927 146.528 64.5613ZM87.3609 23.9879L92.5032 15.3159L101.898 9.79682C107.065 6.761 111.433 4.21845 111.604 4.14632C111.775 4.07414 109.594 8.05421 106.757 12.9907C103.92 17.9273 101.385 22.3663 101.124 22.8556C100.836 23.3961 100.473 23.6565 100.198 23.5193C99.9502 23.3951 95.8284 25.4804 91.0387 28.1532C86.2493 30.8261 82.3054 32.9332 82.2746 32.8362C82.2439 32.7393 84.5328 28.7576 87.3609 23.9879ZM113.038 36.7971C107.122 30.6712 102.21 25.4768 102.123 25.2537C101.938 24.7788 114.18 3.05837 114.533 3.23512C114.66 3.29872 118.119 6.97777 122.219 11.4108C126.319 15.8439 131.131 21.035 132.913 22.9462C134.695 24.8577 136.207 26.5756 136.273 26.7639C136.339 26.9522 133.811 32.0357 130.656 38.0604C124.941 48.9724 124.917 49.0126 124.357 48.475C124.049 48.1779 118.955 42.9231 113.038 36.7971ZM136.676 24.1832C136.739 24.0567 137.144 23.7723 137.577 23.5509C138.321 23.1704 138.335 23.2054 137.845 24.2089C137.45 25.018 137.237 25.1675 136.944 24.8412C136.733 24.6058 136.612 24.3097 136.676 24.1832Z" fill="url(#paint0_linear_243_39)"/>
<defs>
<linearGradient id="paint0_linear_243_39" x1="30.8973" y1="258.887" x2="150.928" y2="18.9858" gradientUnits="userSpaceOnUse">
<stop stop-color="#010313"/>
<stop offset="0.462365" stop-color="#00C2CB"/>
<stop offset="0.729634" stop-color="#0497B7"/>
<stop offset="1" stop-color="#0477E1"/>
</linearGradient>
</defs>
</svg>
