<svg width="17" height="17" viewBox="0 0 17 17" fill="none" xmlns="http://www.w3.org/2000/svg">
<g clip-path="url(#clip0_110_519)">
<path d="M16.75 8.5C16.75 4.08172 13.1683 0.5 8.75 0.5C4.33172 0.5 0.75 4.08172 0.75 8.5C0.75 12.493 3.67548 15.8027 7.5 16.4028V10.8125H5.46875V8.5H7.5V6.7375C7.5 4.7325 8.69435 3.625 10.5217 3.625C11.397 3.625 12.3125 3.78125 12.3125 3.78125V5.75H11.3037C10.3099 5.75 10 6.36667 10 6.99933V8.5H12.2188L11.8641 10.8125H10V16.4028C13.8245 15.8027 16.75 12.493 16.75 8.5Z" fill="white"/>
<path d="M11.8641 10.8125L12.2188 8.5H10V6.99933C10 6.36667 10.3099 5.75 11.3037 5.75H12.3125V3.78125C12.3125 3.78125 11.397 3.625 10.5217 3.625C8.69435 3.625 7.5 4.7325 7.5 6.7375V8.5H5.46875V10.8125H7.5V16.4028C8.32829 16.5324 9.17171 16.5324 10 16.4028V10.8125H11.8641Z" fill="#2385BF"/>
</g>
<defs>
<clipPath id="clip0_110_519">
<rect width="16" height="16" fill="white" transform="translate(0.75 0.5)"/>
</clipPath>
</defs>
</svg>
