<svg width="17" height="17" viewBox="0 0 17 17" fill="none" xmlns="http://www.w3.org/2000/svg">
<g clip-path="url(#clip0_110_533)">
<mask id="mask0_110_533" style="mask-type:luminance" maskUnits="userSpaceOnUse" x="0" y="0" width="17" height="17">
<path d="M8.75 16.5C13.1683 16.5 16.75 12.9183 16.75 8.5C16.75 4.08172 13.1683 0.5 8.75 0.5C4.33172 0.5 0.75 4.08172 0.75 8.5C0.75 12.9183 4.33172 16.5 8.75 16.5Z" fill="white"/>
</mask>
<g mask="url(#mask0_110_533)">
<path d="M4.1875 32.875C13.6799 32.875 21.375 25.1799 21.375 15.6875C21.375 6.19511 13.6799 -1.5 4.1875 -1.5C-5.30489 -1.5 -13 6.19511 -13 15.6875C-13 25.1799 -5.30489 32.875 4.1875 32.875Z" fill="white"/>
</g>
<path d="M11 6.875C11.3452 6.875 11.625 6.59518 11.625 6.25C11.625 5.90482 11.3452 5.625 11 5.625C10.6548 5.625 10.375 5.90482 10.375 6.25C10.375 6.59518 10.6548 6.875 11 6.875Z" fill="#2385BF"/>
<path d="M8.75 6.5C8.35444 6.5 7.96776 6.6173 7.63886 6.83706C7.30996 7.05682 7.05362 7.36918 6.90224 7.73463C6.75087 8.10009 6.71126 8.50222 6.78843 8.89018C6.8656 9.27814 7.05608 9.63451 7.33579 9.91421C7.61549 10.1939 7.97186 10.3844 8.35982 10.4616C8.74778 10.5387 9.14992 10.4991 9.51537 10.3478C9.88082 10.1964 10.1932 9.94004 10.4129 9.61114C10.6327 9.28224 10.75 8.89556 10.75 8.5C10.75 7.96957 10.5393 7.46086 10.1642 7.08579C9.78914 6.71071 9.28043 6.5 8.75 6.5ZM8.75 9.5C8.55222 9.5 8.35888 9.44135 8.19443 9.33147C8.02998 9.22159 7.90181 9.06541 7.82612 8.88268C7.75043 8.69996 7.73063 8.49889 7.76922 8.30491C7.8078 8.11093 7.90304 7.93275 8.04289 7.79289C8.18275 7.65304 8.36093 7.5578 8.55491 7.51921C8.74889 7.48063 8.94996 7.50043 9.13268 7.57612C9.31541 7.65181 9.47159 7.77998 9.58147 7.94443C9.69135 8.10888 9.75 8.30222 9.75 8.5C9.75 8.76522 9.64464 9.01957 9.45711 9.20711C9.26957 9.39464 9.01522 9.5 8.75 9.5Z" fill="#2385BF"/>
<path fill-rule="evenodd" clip-rule="evenodd" d="M6.25001 4.9352C5.66203 4.9352 5.18538 5.41185 5.18538 5.99983V10.9998C5.18538 11.5878 5.66203 12.0645 6.25001 12.0645H11.25C11.838 12.0645 12.3146 11.5878 12.3146 10.9998V5.99983C12.3146 5.41185 11.838 4.9352 11.25 4.9352H6.25001ZM4.31464 5.99983C4.31464 4.93095 5.18113 4.06445 6.25001 4.06445H11.25C12.3189 4.06445 13.1854 4.93095 13.1854 5.99983V10.9998C13.1854 12.0687 12.3189 12.9352 11.25 12.9352H6.25001C5.18113 12.9352 4.31464 12.0687 4.31464 10.9998V5.99983Z" fill="#2385BF"/>
</g>
<defs>
<clipPath id="clip0_110_533">
<rect width="16" height="16" fill="white" transform="translate(0.75 0.5)"/>
</clipPath>
</defs>
</svg>
