<svg width="17" height="17" viewBox="0 0 17 17" fill="none" xmlns="http://www.w3.org/2000/svg">
<g clip-path="url(#clip0_110_524)">
<path d="M8.74998 0.5C4.33169 0.5 0.75 4.08169 0.75 8.49998C0.75 12.9183 4.33169 16.5 8.74998 16.5C13.1683 16.5 16.75 12.9183 16.75 8.49998C16.75 4.08169 13.1682 0.5 8.74998 0.5ZM6.61557 12.3676H4.8591V6.69293H6.61557V12.3676ZM5.72896 5.94979C5.15532 5.94979 4.69028 5.48096 4.69028 4.90271C4.69028 4.32441 5.15538 3.85561 5.72896 3.85561C6.30255 3.85561 6.76759 4.32441 6.76759 4.90271C6.76762 5.48099 6.30258 5.94979 5.72896 5.94979ZM13.198 12.3676H11.45V9.38887C11.45 8.57189 11.1397 8.11585 10.4937 8.11585C9.7906 8.11585 9.4233 8.59082 9.4233 9.38887V12.3676H7.73864V6.69293H9.4233V7.45721C9.4233 7.45721 9.93005 6.51984 11.1333 6.51984C12.3366 6.51984 13.198 7.25456 13.198 8.77448L13.198 12.3676Z" fill="white"/>
</g>
<defs>
<clipPath id="clip0_110_524">
<rect width="16" height="16" fill="white" transform="translate(0.75 0.5)"/>
</clipPath>
</defs>
</svg>
