<svg width="121" height="30" viewBox="0 0 121 30" fill="none" xmlns="http://www.w3.org/2000/svg">
<path d="M17.5022 28.6128H0V1.46263H8.84441V21.2596H17.5022V28.6128Z" fill="white"/>
<path d="M53.128 15.0754C53.1528 18.0418 52.3692 20.6814 50.7769 22.9942C49.1847 25.2819 47.0948 26.9913 44.5075 28.1226C41.9449 29.2287 39.2083 29.6686 36.2975 29.4424C34.1081 29.5178 31.9686 29.2538 29.8787 28.6505C27.8138 28.0472 25.9603 27.1547 24.3183 25.9732C22.6763 24.7665 21.3826 23.2079 20.4372 21.2973C19.4918 19.3868 19.0689 17.2877 19.1684 15C19.1187 12.0085 19.9148 9.35629 21.5568 7.0435C23.2237 4.70557 25.3632 2.98355 27.9755 1.87743C30.6127 0.771311 33.3866 0.331379 36.2975 0.55763C38.4619 0.482212 40.5642 0.771311 42.6042 1.42493C44.6692 2.0534 46.4978 2.97098 48.09 4.17765C49.6822 5.38432 50.9386 6.94294 51.8591 8.85351C52.8045 10.7389 53.2275 12.8129 53.128 15.0754ZM43.7984 15.0377C43.7984 13.0517 43.0645 11.4428 41.5966 10.211C40.1288 8.9792 38.3624 8.3633 36.2975 8.3633C34.133 8.3633 32.292 8.91636 30.7744 10.0225C29.2568 11.1286 28.498 12.8003 28.498 15.0377C28.498 17.0991 29.2692 18.7206 30.8117 19.9021C32.3791 21.0836 34.2076 21.6744 36.2975 21.6744C38.437 21.6744 40.2159 21.1214 41.634 20.0152C43.0769 18.9091 43.7984 17.2499 43.7984 15.0377Z" fill="white"/>
<path d="M85.0388 14.6229C85.2378 19.701 83.77 23.5598 80.6352 26.1994C77.9483 28.3865 74.4031 29.4801 69.9996 29.4801C65.6706 29.4801 62.1752 28.3991 59.5131 26.2371C56.3784 23.6981 54.8111 19.9775 54.8111 15.0754C54.8111 10.2739 56.5028 6.55329 59.8863 3.91369C62.7474 1.65118 66.2802 0.51992 70.4847 0.51992C76.7541 0.51992 81.2075 3.32292 83.8446 8.92893L75.5226 12.3604C75.2241 11.0029 74.5151 9.90935 73.3955 9.07976C72.3755 8.35073 71.2435 7.98621 69.9996 7.98621C68.1585 7.98621 66.7031 8.67754 65.6333 10.0602C64.5387 11.3423 63.9913 13.1146 63.9913 15.3771C63.9913 17.4888 64.5635 19.1982 65.708 20.5054C66.8275 21.863 68.2829 22.5417 70.0742 22.5417C72.6865 22.5417 74.3409 21.599 75.0375 19.7136L69.3651 19.7513V12.926L85.0015 12.9637L85.0388 14.6229Z" fill="white"/>
<path d="M120.986 15.0754C121.011 18.0418 120.227 20.6814 118.635 22.9942C117.043 25.2819 114.953 26.9913 112.365 28.1226C109.803 29.2287 107.066 29.6686 104.155 29.4424C101.966 29.5178 99.8264 29.2538 97.7366 28.6505C95.6716 28.0472 93.8182 27.1547 92.1762 25.9732C90.5342 24.7665 89.2405 23.2079 88.2951 21.2973C87.3497 19.3868 86.9267 17.2877 87.0263 15C86.9765 12.0085 87.7726 9.35629 89.4146 7.0435C91.0815 4.70557 93.2211 2.98355 95.8334 1.87743C98.4705 0.771311 101.244 0.331379 104.155 0.55763C106.32 0.482212 108.422 0.771311 110.462 1.42493C112.527 2.0534 114.356 2.97098 115.948 4.17765C117.54 5.38432 118.796 6.94294 119.717 8.85351C120.662 10.7389 121.085 12.8129 120.986 15.0754ZM111.656 15.0377C111.656 13.0517 110.922 11.4428 109.454 10.211C107.987 8.9792 106.22 8.3633 104.155 8.3633C101.991 8.3633 100.15 8.91636 98.6322 10.0225C97.1146 11.1286 96.3558 12.8003 96.3558 15.0377C96.3558 17.0991 97.127 18.7206 98.6695 19.9021C100.237 21.0836 102.065 21.6744 104.155 21.6744C106.295 21.6744 108.074 21.1214 109.492 20.0152C110.935 18.9091 111.656 17.2499 111.656 15.0377Z" fill="white"/>
</svg>
