<svg width="118" height="29" viewBox="0 0 118 29" fill="none" xmlns="http://www.w3.org/2000/svg">
<path fill-rule="evenodd" clip-rule="evenodd" d="M76.621 0.895242C76.621 0.974589 76.5232 1.03951 76.4037 1.03951C76.0633 1.03951 75.5338 1.66995 75.3523 2.29159C75.2073 2.78815 75.2244 2.9392 75.4923 3.52405C75.9695 4.56522 77.0639 4.9406 78.0694 4.40754C78.6226 4.11425 78.8607 3.80869 78.8665 3.38383C78.869 3.20537 78.9343 3.05923 79.0116 3.05923C79.0889 3.05923 79.1522 2.92939 79.1522 2.7707C79.1522 2.61201 79.0889 2.48217 79.0116 2.48217C78.9343 2.48217 78.871 2.31698 78.871 2.11501C78.871 1.71006 78.305 1.03951 77.9632 1.03951C77.8437 1.03951 77.746 0.974589 77.746 0.895242C77.746 0.815896 77.4929 0.750977 77.1835 0.750977C76.8741 0.750977 76.621 0.815896 76.621 0.895242ZM87.871 1.76084C87.871 1.84018 87.6515 1.9051 87.383 1.9051C86.6544 1.9051 85.1991 2.86216 85.1991 3.34127C85.1991 3.42422 85.1358 3.49203 85.0585 3.49203C84.9811 3.49203 84.9179 3.58941 84.9179 3.70843C84.9179 3.82745 84.8546 3.92483 84.7772 3.92483C84.6999 3.92483 84.6366 4.08712 84.6366 4.28549C84.6366 4.48386 84.5733 4.64615 84.496 4.64615C84.4186 4.64615 84.3554 4.90583 84.3554 5.22322C84.3554 5.5406 84.2921 5.80028 84.2147 5.80028C84.1374 5.80028 84.0741 6.12488 84.0741 6.52161V7.24294H83.1751C82.1257 7.24294 82.1054 7.2692 82.1054 8.61866V9.53806L83.0546 9.58062L84.0038 9.62333L84.0405 15.7907L84.0771 21.9581H85.6225H87.1679V15.7546V9.55119H88.2929H89.4179V8.6253C89.4179 7.24337 89.4174 7.24294 88.1925 7.24294C87.2415 7.24294 87.1482 7.21813 87.2431 6.99047C87.3012 6.85155 87.3905 6.4375 87.4417 6.07035C87.5357 5.39634 87.8751 4.72132 88.2823 4.39831C88.5496 4.18609 89.8216 4.15854 90.3228 4.35402C90.6089 4.46568 90.6835 4.45082 90.6835 4.28188C90.6835 4.16488 90.7468 4.06909 90.8241 4.06909C90.9014 4.06909 90.9647 3.93925 90.9647 3.78056C90.9647 3.62187 91.028 3.49203 91.1054 3.49203C91.1827 3.49203 91.246 3.39465 91.246 3.27563C91.246 3.15661 91.3135 3.05923 91.3959 3.05923C91.4784 3.05923 91.5258 2.88077 91.5014 2.6625C91.4665 2.35088 91.3739 2.25596 91.0702 2.22018C90.8574 2.19508 90.6835 2.11386 90.6835 2.03985C90.6835 1.96569 90.3671 1.9051 89.9804 1.9051C89.5936 1.9051 89.2772 1.84018 89.2772 1.76084C89.2772 1.68149 88.9608 1.61657 88.5741 1.61657C88.1874 1.61657 87.871 1.68149 87.871 1.76084ZM68.2001 11.4627C68.2092 16.7195 68.2572 21.2151 68.3067 21.4531L68.3967 21.8859L69.9073 21.9269L71.4179 21.9679V11.9365V1.9051H69.8007H68.1835L68.2001 11.4627ZM0.0418068 3.10309C0.00243182 3.20826 -0.0116306 4.00417 0.0104475 4.87179L0.0506667 6.44948L6.16785 6.48958C9.53231 6.51151 12.4295 6.49362 12.6059 6.44962C12.9201 6.37114 12.9259 6.33493 12.8872 4.67833L12.8475 2.9871L6.48046 2.94959C1.2997 2.919 0.0998849 2.94757 0.0418068 3.10309ZM15.642 7.42327C15.5747 7.52253 15.5364 10.8334 15.5571 14.7808L15.5949 21.9581H17.1391H18.6835V15.1753C18.6835 10.1724 18.6376 8.24169 18.5087 7.81769L18.3337 7.24294H17.0493C16.1809 7.24294 15.725 7.30137 15.642 7.42327ZM21.2147 7.38721C21.2147 7.46655 21.0249 7.53147 20.7929 7.53147C20.5608 7.53147 20.371 7.59639 20.371 7.67574C20.371 7.75508 20.2716 7.82 20.1501 7.82C19.678 7.82 19.5272 8.19928 19.5272 9.38687C19.5272 10.4286 19.5558 10.551 19.8189 10.6365C19.9792 10.6887 20.2977 10.6519 20.5265 10.5547C20.8019 10.4377 21.3923 10.4021 22.2739 10.4494L23.6054 10.5208V8.88194V7.24294H22.41C21.7069 7.24294 21.2147 7.30238 21.2147 7.38721ZM31.0585 7.38721C31.0585 7.46655 30.9319 7.53147 30.7772 7.53147C30.6225 7.53147 30.496 7.59639 30.496 7.67574C30.496 7.75508 30.3694 7.82 30.2147 7.82C30.06 7.82 29.9335 7.88492 29.9335 7.96427C29.9335 8.04361 29.8374 8.10853 29.7199 8.10853C29.6024 8.10853 29.1052 8.52012 28.6148 9.02318C27.129 10.5475 26.4225 12.3713 26.4195 14.6902C26.4171 16.5358 27.091 18.5845 28.0321 19.5938C28.1885 19.7615 28.4094 20.0373 28.5232 20.207C28.6369 20.3766 28.7798 20.5154 28.8408 20.5154C28.9017 20.5154 29.1503 20.7102 29.3931 20.9482C29.6359 21.1862 29.9201 21.381 30.0246 21.381C30.1292 21.381 30.2147 21.4459 30.2147 21.5253C30.2147 21.6046 30.4046 21.6695 30.6366 21.6695C30.8686 21.6695 31.0585 21.7344 31.0585 21.8138C31.0585 21.8931 31.2673 21.9581 31.5225 21.9581C31.7778 21.9581 32.0558 22.029 32.1404 22.1159C32.3577 22.3388 35.0597 22.0712 35.3405 21.7991C35.4139 21.7278 35.588 21.6695 35.7272 21.6695C35.8664 21.6695 35.9804 21.6046 35.9804 21.5253C35.9804 21.4459 36.077 21.381 36.1949 21.381C36.3131 21.381 36.6928 21.0906 37.0387 20.7355C37.7293 20.0271 37.8384 19.5511 37.3866 19.217C37.2319 19.1026 37.1054 18.9214 37.1054 18.8142C37.1054 18.563 36.7584 18.2071 36.5136 18.2071C36.4091 18.2071 36.2325 18.337 36.121 18.4957C36.0095 18.6544 35.8057 18.7842 35.668 18.7842C35.5305 18.7842 35.4179 18.8491 35.4179 18.9285C35.4179 19.0078 35.2597 19.0727 35.0663 19.0727C34.8729 19.0727 34.7147 19.1377 34.7147 19.217C34.7147 19.3036 34.1522 19.3613 33.3085 19.3613C32.4647 19.3613 31.9022 19.3036 31.9022 19.217C31.9022 19.1377 31.7757 19.0727 31.621 19.0727C31.4663 19.0727 31.3397 19.0078 31.3397 18.9285C31.3397 18.8491 31.2607 18.7841 31.1639 18.7841C31.0673 18.7839 30.83 18.6379 30.6366 18.4595C29.3589 17.2804 29.0429 14.1469 29.982 11.9684C30.3797 11.0456 31.2291 10.1283 31.6854 10.1283C31.8046 10.1283 31.9022 10.0633 31.9022 9.98399C31.9022 9.90464 32.0288 9.83972 32.1835 9.83972C32.4439 9.83972 32.4647 9.7435 32.4647 8.54133V7.24294H31.7616C31.3749 7.24294 31.0585 7.30786 31.0585 7.38721ZM33.3085 8.47367C33.3085 9.51888 33.3456 9.71667 33.5546 9.78548C34.6461 10.1447 35.5503 10.8479 35.8681 11.5845C35.9676 11.815 36.0968 12.0037 36.1553 12.0037C36.2138 12.0037 36.2616 12.3283 36.2616 12.725V13.4464H33.3788H30.496V14.6005V15.7546H34.9257H39.3554V14.2861C39.3554 12.9347 39.2357 12.1856 38.9162 11.5369C38.8484 11.3991 38.7929 11.188 38.7929 11.068C38.7929 10.9478 38.7296 10.8496 38.6522 10.8496C38.5749 10.8496 38.5116 10.7522 38.5116 10.6332C38.5116 10.5142 38.4483 10.4168 38.371 10.4168C38.2936 10.4168 38.2304 10.3194 38.2304 10.2004C38.2304 10.0814 38.1671 9.98399 38.0897 9.98399C38.0124 9.98399 37.9491 9.91489 37.9491 9.83035C37.9491 9.61092 36.5985 8.29031 36.2622 8.18081C36.1072 8.13032 35.9804 8.02861 35.9804 7.9546C35.9804 7.88059 35.8538 7.82 35.6991 7.82C35.5444 7.82 35.4179 7.75508 35.4179 7.67574C35.4179 7.59639 35.228 7.53147 34.996 7.53147C34.7639 7.53147 34.5741 7.46655 34.5741 7.38721C34.5741 7.30786 34.2893 7.24294 33.9413 7.24294H33.3085V8.47367ZM43.5273 7.33916C43.4757 7.39197 43.4335 10.7029 43.4335 14.6967V21.9581H45.058H46.6825L46.64 14.8426C46.6016 8.40947 46.5749 7.70372 46.3614 7.48502C46.1759 7.29473 45.8577 7.24294 44.8732 7.24294C44.1844 7.24294 43.5787 7.28622 43.5273 7.33916ZM49.1991 7.38721C49.1991 7.46655 49.0093 7.53147 48.7772 7.53147C48.5452 7.53147 48.3554 7.59639 48.3554 7.67574C48.3554 7.75508 48.2559 7.82 48.1344 7.82C47.6857 7.82 47.5116 8.20505 47.5116 9.19702V10.1619L47.8983 10.054C48.1109 9.99467 48.8437 9.91748 49.5265 9.88243L50.7679 9.81866L51.2432 10.3207C51.5045 10.5968 51.7571 11.0073 51.8045 11.2329C51.8517 11.4585 51.9493 11.7922 52.0213 11.9744C52.0933 12.1566 52.1522 14.4776 52.1522 17.1319V21.9581H53.6173C54.423 21.9581 55.1824 21.9187 55.3048 21.8705C55.5008 21.7933 55.5272 21.2698 55.5272 17.4704C55.5272 14.6915 55.4772 13.1578 55.3866 13.1578C55.3039 13.1578 55.246 12.6529 55.246 11.9316C55.246 11.2102 55.188 10.7053 55.1054 10.7053C55.028 10.7053 54.9647 10.5106 54.9647 10.2725C54.9647 10.0345 54.9014 9.83972 54.8241 9.83972C54.7468 9.83972 54.6835 9.75014 54.6835 9.64078C54.6835 9.33393 53.1621 7.82 52.8538 7.82C52.7773 7.82 52.7147 7.75508 52.7147 7.67574C52.7147 7.59639 52.5565 7.53147 52.3632 7.53147C52.1698 7.53147 52.0116 7.46655 52.0116 7.38721C52.0116 7.30065 51.4491 7.24294 50.6054 7.24294C49.7616 7.24294 49.1991 7.30065 49.1991 7.38721ZM62.9804 7.38721C62.9804 7.46655 62.7905 7.53147 62.5585 7.53147C62.3264 7.53147 62.1366 7.59639 62.1366 7.67574C62.1366 7.75508 62.01 7.82 61.8554 7.82C61.7007 7.82 61.5741 7.88059 61.5741 7.9546C61.5741 8.02861 61.4445 8.13133 61.2858 8.18298C61.0148 8.27112 60.3608 8.88512 59.8866 9.49637C59.6917 9.74754 59.1613 10.8178 58.8939 11.4988C58.5464 12.3844 58.4555 15.3846 58.7366 16.6924C58.8218 17.0891 58.9329 17.6255 58.9834 17.8843C59.034 18.1431 59.1313 18.3905 59.1996 18.4338C59.2681 18.4772 59.3241 18.6386 59.3241 18.7927C59.3241 18.9468 59.3874 19.0727 59.4647 19.0727C59.5421 19.0727 59.6054 19.1883 59.6054 19.3294C59.6054 19.4706 59.7319 19.6797 59.8866 19.7941C60.0413 19.9085 60.168 20.0689 60.168 20.1505C60.1683 20.3882 60.8143 21.0925 61.0321 21.0925C61.1414 21.0925 61.322 21.2223 61.4335 21.381C61.545 21.5397 61.7451 21.6695 61.8781 21.6695C62.0112 21.6695 62.1547 21.7272 62.1974 21.7979C62.3747 22.0922 64.5642 22.3215 65.2529 22.1178C65.5499 22.0299 66.0619 21.8789 66.3905 21.7821C67.2818 21.5196 67.3397 21.4123 67.3397 20.0207C67.3397 18.9315 67.3099 18.7842 67.0896 18.7842C66.9519 18.7842 66.7481 18.914 66.6366 19.0727C66.5175 19.2421 66.2725 19.3613 66.043 19.3613C65.8281 19.3613 65.6522 19.4262 65.6522 19.5055C65.6522 19.5849 65.4307 19.6498 65.16 19.6498C64.8893 19.6498 64.6679 19.5849 64.6679 19.5055C64.6679 19.4262 64.5097 19.3613 64.3163 19.3613C64.1229 19.3613 63.9647 19.2964 63.9647 19.217C63.9647 19.1377 63.8993 19.0727 63.8195 19.0727C63.5928 19.0727 62.6991 18.0984 62.6991 17.8512C62.6991 17.7296 62.6358 17.6301 62.5585 17.6301C62.4811 17.6301 62.4179 17.5041 62.4179 17.3501C62.4179 17.196 62.3546 17.0299 62.2772 16.9809C62.1999 16.9318 62.1366 16.6359 62.1366 16.3232C62.1366 16.0104 62.0683 15.7546 61.9849 15.7546C61.8835 15.7546 61.8577 15.4078 61.9072 14.7087C62.0199 13.1199 62.1514 12.2922 62.2914 12.2922C62.3609 12.2922 62.4179 12.2078 62.4179 12.1046C62.4179 11.8392 62.7486 11.1406 62.8749 11.1393C62.933 11.1387 62.9804 11.0645 62.9804 10.9745C62.9804 10.7669 63.6964 10.1287 63.9296 10.1284C64.0263 10.1284 64.1054 10.0633 64.1054 9.98399C64.1054 9.90277 64.5011 9.83972 65.0114 9.83972C65.6922 9.83972 66.0505 9.91922 66.4528 10.1596C66.7473 10.3354 67.0093 10.5302 67.035 10.5924C67.0609 10.6545 67.1399 10.7053 67.2108 10.7053C67.2817 10.7053 67.3397 10.0561 67.3397 9.26266C67.3397 7.91623 67.321 7.82 67.0585 7.82C66.9038 7.82 66.7772 7.75508 66.7772 7.67574C66.7772 7.59639 66.6228 7.53147 66.434 7.53147C66.2451 7.53147 66.0516 7.46655 66.0038 7.38721C65.9549 7.30598 65.2758 7.24294 64.4486 7.24294C63.5635 7.24294 62.9804 7.30021 62.9804 7.38721ZM75.5652 7.56754C75.5228 7.74599 75.5058 11.0407 75.5273 14.889L75.5663 21.8859L77.2186 21.9266L78.871 21.9671V14.8111C78.871 8.80159 78.8388 7.62207 78.67 7.4491C78.5227 7.29776 78.0932 7.24294 77.0555 7.24294C75.7061 7.24294 75.6384 7.25765 75.5652 7.56754ZM94.6873 7.78394C94.7411 8.08156 94.8432 8.34657 94.914 8.37297C94.9849 8.39952 95.0429 8.51392 95.0429 8.62746C95.0429 8.741 95.1061 8.96273 95.1835 9.12042C95.2608 9.27795 95.3874 9.5359 95.4647 9.69344C95.5421 9.85112 95.6054 10.0783 95.6054 10.1984C95.6054 10.3185 95.6686 10.4168 95.746 10.4168C95.8233 10.4168 95.8866 10.5791 95.8866 10.7775C95.8866 10.9758 95.9499 11.1381 96.0272 11.1381C96.1046 11.1381 96.1679 11.3004 96.1679 11.4988C96.1679 11.6971 96.2311 11.8594 96.3085 11.8594C96.3858 11.8594 96.4491 12.0217 96.4491 12.2201C96.4491 12.4185 96.5124 12.5808 96.5897 12.5808C96.6671 12.5808 96.7304 12.7106 96.7304 12.8693C96.7304 13.028 96.7936 13.1578 96.871 13.1578C96.9483 13.1578 97.0116 13.3526 97.0116 13.5906C97.0116 13.8287 97.0749 14.0234 97.1522 14.0234C97.2296 14.0234 97.2929 14.1533 97.2929 14.312C97.2929 14.4707 97.3561 14.6005 97.4335 14.6005C97.5108 14.6005 97.5741 14.7312 97.5741 14.8911C97.5741 15.0508 97.6332 15.2943 97.7052 15.432C97.7773 15.5698 98.0659 16.2668 98.3463 16.9809C98.6268 17.695 98.9736 18.5714 99.1169 18.9285C99.2602 19.2855 99.454 19.7887 99.5475 20.0465C99.641 20.3043 99.7971 20.5154 99.8944 20.5154C99.9917 20.5154 100.149 20.3043 100.243 20.0465C100.338 19.7887 100.558 19.2206 100.733 18.7842C101.444 17.0056 101.443 17.2838 100.743 15.4622C100.392 14.5519 100.106 13.7552 100.106 13.6919C100.105 13.6286 99.9788 13.308 99.8241 12.9795C99.6694 12.651 99.5429 12.2963 99.5429 12.1911C99.5429 12.0858 99.487 11.887 99.4187 11.7492C99.3503 11.6115 99.2163 11.304 99.121 11.066C99.0256 10.8279 98.8916 10.5205 98.8233 10.3827C98.7549 10.245 98.6991 10.0014 98.6991 9.84174C98.6991 9.6819 98.6358 9.55119 98.5585 9.55119C98.4811 9.55119 98.4179 9.38889 98.4179 9.19053C98.4179 8.99216 98.3546 8.82986 98.2772 8.82986C98.1999 8.82986 98.1366 8.66756 98.1366 8.4692C98.1366 8.27083 98.0733 8.10853 97.996 8.10853C97.9186 8.10853 97.8554 8.00654 97.8554 7.88189C97.8554 7.36759 97.4975 7.24294 96.0216 7.24294H94.5896L94.6873 7.78394ZM105.199 7.9282C105.042 8.30502 104.849 8.84068 104.77 9.1184C104.513 10.0134 103.808 12.0044 103.713 12.1017C103.662 12.1536 103.621 12.3475 103.621 12.5327C103.621 12.7178 103.558 12.8693 103.48 12.8693C103.403 12.8693 103.34 13.0641 103.34 13.3021C103.34 13.5401 103.276 13.7349 103.199 13.7349C103.122 13.7349 103.058 13.9297 103.058 14.1677C103.058 14.4057 102.995 14.6005 102.918 14.6005C102.841 14.6005 102.777 14.7628 102.777 14.9612C102.777 15.1595 102.714 15.3218 102.637 15.3218C102.559 15.3218 102.496 15.5166 102.496 15.7546C102.496 15.9927 102.433 16.1874 102.355 16.1874C102.278 16.1874 102.215 16.3497 102.215 16.5481C102.215 16.7465 102.151 16.9088 102.074 16.9088C101.997 16.9088 101.933 17.0672 101.933 17.2609C101.933 17.4547 101.87 17.6532 101.793 17.7022C101.716 17.7513 101.652 17.9498 101.652 18.1435C101.652 18.3373 101.589 18.4957 101.512 18.4957C101.434 18.4957 101.371 18.6904 101.371 18.9285C101.371 19.1665 101.308 19.3613 101.23 19.3613C101.153 19.3613 101.09 19.556 101.09 19.7941C101.09 20.0321 101.04 20.2269 100.98 20.2269C100.919 20.2269 100.782 20.5352 100.675 20.9121C100.568 21.2891 100.433 21.6948 100.375 21.8138C100.25 22.071 100.009 22.6523 99.4087 24.1456C98.9539 25.277 98.5783 25.8532 98.2959 25.8532C98.2083 25.8532 98.1366 25.9182 98.1366 25.9975C98.1366 26.0768 97.8202 26.1418 97.4335 26.1418C97.0468 26.1418 96.7304 26.0768 96.7304 25.9975C96.7304 25.9182 96.5405 25.8532 96.3085 25.8532C95.9804 25.8532 95.8866 25.9173 95.8866 26.1418C95.8866 26.3005 95.8233 26.4303 95.746 26.4303C95.6686 26.4303 95.6054 26.6536 95.6054 26.9267C95.6054 27.1998 95.5421 27.4632 95.4647 27.5123C95.178 27.6941 95.3341 28.0265 95.746 28.111C95.978 28.1586 96.1679 28.2544 96.1679 28.3238C96.1679 28.3932 96.87 28.45 97.7282 28.45C99.1107 28.45 99.3391 28.4137 99.7321 28.131C100.253 27.7567 100.949 27.0281 100.949 26.8582C100.949 26.7928 101.04 26.6464 101.151 26.5326C101.393 26.2842 102.496 23.9827 102.496 23.7259C102.496 23.6263 102.559 23.545 102.637 23.545C102.714 23.545 102.777 23.3827 102.777 23.1843C102.777 22.986 102.841 22.8237 102.918 22.8237C102.995 22.8237 103.058 22.6614 103.058 22.463C103.058 22.2646 103.122 22.1023 103.199 22.1023C103.276 22.1023 103.34 21.94 103.34 21.7417C103.34 21.5433 103.403 21.381 103.48 21.381C103.558 21.381 103.621 21.255 103.621 21.101C103.621 20.9469 103.684 20.7808 103.762 20.7318C103.839 20.6827 103.902 20.4842 103.902 20.2905C103.902 20.0967 103.966 19.9383 104.043 19.9383C104.12 19.9383 104.183 19.7436 104.183 19.5055C104.183 19.2675 104.247 19.0727 104.324 19.0727C104.401 19.0727 104.465 18.9468 104.465 18.7927C104.465 18.6386 104.528 18.4726 104.605 18.4235C104.683 18.3745 104.746 18.176 104.746 17.9822C104.746 17.7885 104.809 17.6301 104.887 17.6301C104.964 17.6301 105.027 17.4678 105.027 17.2694C105.027 17.0711 105.091 16.9088 105.168 16.9088C105.245 16.9088 105.308 16.7503 105.308 16.5566C105.308 16.3629 105.359 16.1723 105.421 16.1329C105.483 16.0936 105.621 15.7327 105.728 15.3309C105.835 14.9293 105.96 14.6005 106.006 14.6005C106.053 14.6005 106.178 14.2978 106.284 13.9279C106.391 13.558 106.753 12.5361 107.089 11.6569C107.424 10.7777 107.699 9.94432 107.699 9.80481C107.699 9.66531 107.762 9.55119 107.84 9.55119C107.917 9.55119 107.98 9.39279 107.98 9.19904C107.98 9.00529 108.044 8.80678 108.121 8.75773C108.198 8.70868 108.262 8.54263 108.262 8.38856C108.262 8.23448 108.325 8.10853 108.402 8.10853C108.48 8.10853 108.543 7.91378 108.543 7.67574V7.24294H107.013H105.484L105.199 7.9282ZM4.33973 15.0333V21.9581H6.4491H8.55848V15.0333V8.10853H6.4491H4.33973V15.0333Z" fill="white"/>
<path fill-rule="evenodd" clip-rule="evenodd" d="M114.238 14.839C113.766 15.0927 113.183 15.6685 113.183 15.8804C113.183 15.9566 113.111 16.0436 113.023 16.0739C112.811 16.1464 112.817 18.25 113.03 18.3227C113.114 18.3517 113.183 18.4378 113.183 18.5141C113.183 18.7363 113.853 19.3611 114.091 19.3611C114.211 19.3611 114.308 19.426 114.308 19.5054C114.308 19.5883 114.744 19.6497 115.333 19.6497C116.317 19.6497 116.381 19.6283 116.954 19.1087C117.685 18.446 117.965 17.9136 117.965 17.185C117.965 16.3197 117.023 14.8896 116.453 14.889C116.356 14.889 116.277 14.824 116.277 14.7446C116.277 14.5148 114.705 14.5875 114.238 14.839Z" fill="#00C2CB"/>
</svg>
