<svg width="17" height="17" viewBox="0 0 17 17" fill="none" xmlns="http://www.w3.org/2000/svg">
<g clip-path="url(#clip0_110_528)">
<path d="M8.75003 16.5C13.1683 16.5 16.75 12.9183 16.75 8.5C16.75 4.08172 13.1683 0.5 8.75003 0.5C4.33175 0.5 0.750031 4.08172 0.750031 8.5C0.750031 12.9183 4.33175 16.5 8.75003 16.5Z" fill="white"/>
<path d="M13.8795 5.31743C13.5022 5.48487 13.0969 5.59807 12.6707 5.64895C13.1056 5.38852 13.4388 4.97584 13.5961 4.48467C13.183 4.73004 12.7309 4.90279 12.2594 4.99539C11.8757 4.5864 11.3285 4.33105 10.7232 4.33105C9.56127 4.33105 8.61895 5.27299 8.61895 6.43558C8.61895 6.60031 8.63751 6.76102 8.67318 6.91531C6.92407 6.82741 5.37337 5.98957 4.33541 4.71647C4.15417 5.02739 4.05043 5.3889 4.05043 5.77461C4.05043 6.50466 4.42201 7.14879 4.98663 7.52611C4.65238 7.51575 4.32548 7.42553 4.03323 7.26299V7.28959C4.03323 8.30935 4.75855 9.15966 5.72138 9.35304C5.54451 9.40151 5.35889 9.42682 5.16687 9.42682C5.0311 9.42682 4.89938 9.41397 4.7707 9.38977C5.03851 10.2256 5.81575 10.834 6.73641 10.8512C6.01614 11.4158 5.10857 11.7524 4.12285 11.7524C3.95307 11.7524 3.78527 11.7423 3.62054 11.7224C4.55205 12.3197 5.65806 12.6684 6.84659 12.6684C10.7175 12.6684 12.8345 9.46154 12.8345 6.68053C12.8345 6.58923 12.8324 6.49861 12.828 6.40831C13.2405 6.10998 13.5965 5.74059 13.8795 5.31743Z" fill="#2385BF"/>
</g>
<defs>
<clipPath id="clip0_110_528">
<rect width="16" height="16" fill="white" transform="translate(0.75 0.5)"/>
</clipPath>
</defs>
</svg>
